Archicoco.ufo
<glyph name="exclam" format="1">
  <advance width="333"/>
  <unicode hex="0021"/>
  <outline>
    <contour>
      <point x="286" y="688" type="line"/>
      <point x="229" y="246" type="line"/>
      <point x="102" y="246" type="line"/>
      <point x="47" y="688" type="line"/>
    </contour>
    <contour>
      <point x="265" y="185" type="line"/>
      <point x="265" y="0" type="line"/>
      <point x="67" y="0" type="line"/>
      <point x="67" y="185" type="line"/>
    </contour>
  </outline>
</glyph>
<glyph name="quotedbl" format="1">
  <advance width="500"/>
  <unicode hex="0022"/>
  <outline>
    <contour>
      <point x="441" y="688" type="line"/>
      <point x="441" y="541" type="line"/>
      <point x="393" y="398" type="line"/>
      <point x="325" y="398" type="line"/>
      <point x="278" y="541" type="line"/>
      <point x="278" y="688" type="line"/>
    </contour>
    <contour>
      <point x="222" y="688" type="line"/>
      <point x="222" y="541" type="line"/>
      <point x="175" y="398" type="line"/>
      <point x="106" y="398" type="line"/>
      <point x="59" y="541" type="line"/>
      <point x="59" y="688" type="line"/>
    </contour>
  </outline>
</glyph>
<glyph name="numbersign" format="1">
  <advance width="660"/>
  <unicode hex="0023"/>
  <outline>
    <contour>
      <point x="592" y="700" type="line"/>
      <point x="546" y="502" type="line"/>
      <point x="639" y="502" type="line"/>
      <point x="639" y="391" type="line"/>
      <point x="526" y="391" type="line"/>
      <point x="500" y="268" type="line"/>
      <point x="606" y="268" type="line"/>
      <point x="606" y="159" type="line"/>
      <point x="472" y="159" type="line"/>
      <point x="435" y="-11" type="line"/>
      <point x="318" y="-11" type="line"/>
      <point x="379" y="267" type="line"/>
      <point x="408" y="390" type="line"/>
      <point x="348" y="390" type="line"/>
      <point x="373.621" y="502" type="line"/>
      <point x="428" y="502" type="line"/>
      <point x="472" y="700" type="line"/>
    </contour>
    <contour>
      <point x="298.773" y="159" type="line"/>
      <point x="240" y="159" type="line"/>
      <point x="204" y="-11" type="line"/>
      <point x="84" y="-11" type="line"/>
      <point x="120" y="159" type="line"/>
      <point x="20" y="159" type="line"/>
      <point x="20" y="268" type="line"/>
      <point x="146" y="268" type="line"/>
      <point x="174" y="391" type="line"/>
      <point x="66" y="391" type="line"/>
      <point x="66" y="502" type="line"/>
      <point x="196" y="502" type="line"/>
      <point x="240" y="700" type="line"/>
      <point x="362" y="700" type="line"/>
      <point x="317" y="502" type="line"/>
      <point x="317.29" y="502" type="line"/>
      <point x="292" y="390" type="line"/>
      <point x="265" y="267" type="line"/>
      <point x="322.135" y="267" type="line"/>
    </contour>
  </outline>
</glyph>
<glyph name="dollar" format="1">
  <advance width="667"/>
  <unicode hex="0024"/>
  <outline>
    <contour>
      <point x="397" y="756" type="line"/>
      <point x="389" y="619" type="line"/>
      <point x="500" y="610"/>
      <point x="601" y="562"/>
      <point x="601" y="451" type="curve"/>
      <point x="416" y="451" type="line"/>
      <point x="415" y="493"/>
      <point x="372" y="502"/>
      <point x="345" y="502" type="curve" smooth="yes"/>
      <point x="328" y="502"/>
      <point x="273" y="502"/>
      <point x="273" y="468" type="curve" smooth="yes"/>
      <point x="273" y="392"/>
      <point x="614" y="471"/>
      <point x="614" y="256" type="curve" smooth="yes"/>
      <point x="614" y="127"/>
      <point x="513" y="79"/>
      <point x="389" y="70" type="curve"/>
      <point x="397" y="-67" type="line"/>
      <point x="284" y="-67" type="line"/>
      <point x="291" y="71" type="line"/>
      <point x="176" y="83"/>
      <point x="69" y="137"/>
      <point x="69" y="253" type="curve"/>
      <point x="254" y="253" type="line"/>
      <point x="254" y="249" type="line" smooth="yes"/>
      <point x="255" y="198"/>
      <point x="312" y="188"/>
      <point x="341" y="188" type="curve" smooth="yes"/>
      <point x="369" y="188"/>
      <point x="424" y="190"/>
      <point x="424" y="227" type="curve" smooth="yes"/>
      <point x="424" y="306"/>
      <point x="83" y="234"/>
      <point x="83" y="442" type="curve" smooth="yes"/>
      <point x="83" y="562"/>
      <point x="176" y="608"/>
      <point x="291" y="618" type="curve"/>
      <point x="284" y="756" type="line"/>
    </contour>
  </outline>
</glyph>
<glyph name="percent" format="1">
  <advance width="1000"/>
  <unicode hex="0025"/>
  <outline>
    <contour>
      <point x="230" y="700" type="curve" smooth="yes"/>
      <point x="360" y="700"/>
      <point x="413" y="628"/>
      <point x="413" y="520" type="curve" smooth="yes"/>
      <point x="413" y="414"/>
      <point x="360" y="342"/>
      <point x="230" y="342" type="curve" smooth="yes"/>
      <point x="100" y="342"/>
      <point x="46" y="414"/>
      <point x="46" y="520" type="curve" smooth="yes"/>
      <point x="46" y="628"/>
      <point x="100" y="700"/>
    </contour>
    <contour>
      <point x="230" y="624" type="curve" smooth="yes"/>
      <point x="187" y="624"/>
      <point x="170" y="587"/>
      <point x="170" y="537" type="curve" smooth="yes"/>
      <point x="170" y="505" type="line" smooth="yes"/>
      <point x="170" y="455"/>
      <point x="187" y="418"/>
      <point x="230" y="418" type="curve" smooth="yes"/>
      <point x="274" y="418"/>
      <point x="289" y="455"/>
      <point x="289" y="505" type="curve" smooth="yes"/>
      <point x="289" y="537" type="line" smooth="yes"/>
      <point x="289" y="587"/>
      <point x="274" y="624"/>
    </contour>
    <contour>
      <point x="762" y="346" type="curve" smooth="yes"/>
      <point x="892" y="346"/>
      <point x="945" y="274"/>
      <point x="945" y="166" type="curve" smooth="yes"/>
      <point x="945" y="60"/>
      <point x="892" y="-12"/>
      <point x="762" y="-12" type="curve" smooth="yes"/>
      <point x="632" y="-12"/>
      <point x="578" y="60"/>
      <point x="578" y="166" type="curve" smooth="yes"/>
      <point x="578" y="274"/>
      <point x="632" y="346"/>
    </contour>
    <contour>
      <point x="762" y="270" type="curve" smooth="yes"/>
      <point x="719" y="270"/>
      <point x="702" y="233"/>
      <point x="702" y="183" type="curve" smooth="yes"/>
      <point x="702" y="151" type="line" smooth="yes"/>
      <point x="702" y="101"/>
      <point x="719" y="64"/>
      <point x="762" y="64" type="curve" smooth="yes"/>
      <point x="806" y="64"/>
      <point x="821" y="101"/>
      <point x="821" y="151" type="curve" smooth="yes"/>
      <point x="821" y="183" type="line" smooth="yes"/>
      <point x="821" y="233"/>
      <point x="806" y="270"/>
    </contour>
    <contour>
      <point x="759" y="687" type="line"/>
      <point x="342" y="0" type="line"/>
      <point x="231" y="0" type="line"/>
      <point x="650" y="687" type="line"/>
    </contour>
  </outline>
</glyph>
<glyph name="ampersand" format="1">
  <advance width="889"/>
  <unicode hex="0026"/>
  <outline>
    <contour>
      <point x="417" y="700" type="curve" smooth="yes"/>
      <point x="627" y="700"/>
      <point x="749" y="615"/>
      <point x="749" y="512" type="curve" smooth="yes"/>
      <point x="749" y="487" type="line"/>
      <point x="572" y="487" type="line"/>
      <point x="572" y="526"/>
      <point x="527" y="559"/>
      <point x="430" y="559" type="curve" smooth="yes"/>
      <point x="339" y="559"/>
      <point x="299" y="517"/>
      <point x="299" y="475" type="curve" smooth="yes"/>
      <point x="299" y="431"/>
      <point x="333" y="412"/>
      <point x="370" y="412" type="curve" smooth="yes"/>
      <point x="474" y="412" type="line"/>
      <point x="474" y="289" type="line"/>
      <point x="348" y="289" type="line" smooth="yes"/>
      <point x="309" y="289"/>
      <point x="278" y="266"/>
      <point x="278" y="217" type="curve" smooth="yes"/>
      <point x="278" y="166"/>
      <point x="317" y="129"/>
      <point x="422" y="129" type="curve" smooth="yes"/>
      <point x="539" y="129"/>
      <point x="572" y="169"/>
      <point x="572" y="218" type="curve" smooth="yes"/>
      <point x="572" y="412" type="line"/>
      <point x="888" y="412" type="line"/>
      <point x="888" y="289" type="line"/>
      <point x="751" y="289" type="line"/>
      <point x="751" y="222" type="line" smooth="yes"/>
      <point x="751" y="79"/>
      <point x="657" y="-12"/>
      <point x="423" y="-12" type="curve" smooth="yes"/>
      <point x="180" y="-12"/>
      <point x="75" y="76"/>
      <point x="75" y="192" type="curve" smooth="yes"/>
      <point x="75" y="273"/>
      <point x="120" y="333"/>
      <point x="195" y="357" type="curve"/>
      <point x="195" y="361" type="line"/>
      <point x="139" y="382"/>
      <point x="95" y="438"/>
      <point x="95" y="503" type="curve" smooth="yes"/>
      <point x="95" y="609"/>
      <point x="203" y="700"/>
    </contour>
  </outline>
</glyph>
<glyph name="quotesingle" format="1">
  <advance width="278"/>
  <unicode hex="0027"/>
  <outline>
    <contour>
      <point x="220" y="688" type="line"/>
      <point x="220" y="541" type="line"/>
      <point x="172" y="398" type="line"/>
      <point x="104" y="398" type="line"/>
      <point x="57" y="541" type="line"/>
      <point x="57" y="688" type="line"/>
    </contour>
  </outline>
</glyph>
<glyph name="parenright" format="1">
  <advance width="389"/>
  <unicode hex="0029"/>
  <outline>
    <contour>
      <point x="34" y="737" type="curve"/>
      <point x="154" y="737" type="line"/>
      <point x="269" y="614"/>
      <point x="334" y="452"/>
      <point x="334" y="288" type="curve" smooth="yes"/>
      <point x="334" y="125"/>
      <point x="269" y="-37"/>
      <point x="154" y="-160" type="curve"/>
      <point x="34" y="-160" type="line"/>
      <point x="113" y="-37"/>
      <point x="167" y="146"/>
      <point x="167" y="288" type="curve" smooth="yes"/>
      <point x="167" y="429"/>
      <point x="113" y="614"/>
    </contour>
  </outline>
</glyph>
<glyph name="plus" format="1">
  <advance width="660"/>
  <unicode hex="002B"/>
  <outline>
    <contour>
      <point x="396" y="528" type="line"/>
      <point x="396" y="330" type="line"/>
      <point x="594" y="330" type="line"/>
      <point x="594" y="198" type="line"/>
      <point x="396" y="198" type="line"/>
      <point x="396" y="0" type="line"/>
      <point x="264" y="0" type="line"/>
      <point x="264" y="198" type="line"/>
      <point x="66" y="198" type="line"/>
      <point x="66" y="330" type="line"/>
      <point x="264" y="330" type="line"/>
      <point x="264" y="528" type="line"/>
    </contour>
  </outline>
</glyph>
<glyph name="comma" format="1">
  <advance width="333"/>
  <unicode hex="002C"/>
  <outline>
    <contour>
      <point x="273" y="199" type="line"/>
      <point x="273" y="11" type="line"/>
      <point x="168" y="-183" type="line"/>
      <point x="60" y="-183" type="line"/>
      <point x="142" y="0" type="line"/>
      <point x="61" y="0" type="line"/>
      <point x="61" y="199" type="line"/>
    </contour>
  </outline>
</glyph>
<glyph name="slash" format="1">
  <advance width="278"/>
  <unicode hex="002F"/>
  <outline>
    <contour>
      <point x="279" y="736" type="line"/>
      <point x="120" y="-48" type="line"/>
      <point x="-2" y="-48" type="line"/>
      <point x="158" y="736" type="line"/>
    </contour>
  </outline>
</glyph>
<glyph name="zero" format="1">
  <advance width="667"/>
  <unicode hex="0030"/>
  <outline>
    <contour>
      <point x="238" y="-1.63913" type="line" smooth="yes"/>
      <point x="87.1339" y="34.7914"/>
      <point x="41" y="164.554"/>
      <point x="41" y="344" type="curve" smooth="yes"/>
      <point x="41" y="523.446"/>
      <point x="87.1339" y="653.209"/>
      <point x="238" y="689.639" type="curve"/>
    </contour>
    <contour>
      <point x="354" y="699.619" type="line"/>
      <point x="565.767" y="691.392"/>
      <point x="626" y="550.636"/>
      <point x="626" y="344" type="curve" smooth="yes"/>
      <point x="626" y="137.364"/>
      <point x="565.767" y="-3.39241"/>
      <point x="354" y="-11.619" type="curve"/>
      <point x="354" y="124.611" type="line"/>
      <point x="408.645" y="134.127"/>
      <point x="428" y="186.337"/>
      <point x="428" y="295" type="curve" smooth="yes"/>
      <point x="428" y="394" type="line" smooth="yes"/>
      <point x="428" y="502.663"/>
      <point x="408.645" y="554.066"/>
      <point x="354" y="563.418" type="curve"/>
    </contour>
  </outline>
</glyph>
<glyph name="one" format="1">
  <advance width="667"/>
  <unicode hex="0031"/>
  <outline>
    <contour>
      <point x="467" y="689" type="line"/>
      <point x="467" y="154" type="line"/>
      <point x="624" y="154" type="line"/>
      <point x="624" y="0" type="line"/>
      <point x="105" y="0" type="line"/>
      <point x="105" y="154" type="line"/>
      <point x="268" y="154" type="line"/>
      <point x="268" y="465" type="line"/>
      <point x="105" y="465" type="line"/>
      <point x="105" y="581" type="line"/>
      <point x="198" y="587"/>
      <point x="322" y="638"/>
      <point x="400" y="689" type="curve"/>
    </contour>
  </outline>
</glyph>
<glyph name="two" format="1">
  <advance width="667"/>
  <unicode hex="0032"/>
  <outline>
    <contour>
      <point x="297" y="555.471" type="line"/>
      <point x="253.832" y="544.586"/>
      <point x="230" y="509.559"/>
      <point x="230" y="465" type="curve" smooth="yes"/>
      <point x="230" y="445" type="line"/>
      <point x="52" y="445" type="line"/>
      <point x="51" y="453"/>
      <point x="51" y="460"/>
      <point x="51" y="467" type="curve" smooth="yes"/>
      <point x="51" y="595.777"/>
      <point x="132.746" y="683.682"/>
      <point x="297" y="697.954" type="curve"/>
    </contour>
    <contour>
      <point x="413" y="694.936" type="line"/>
      <point x="536.463" y="675.288"/>
      <point x="611" y="599.856"/>
      <point x="611" y="493" type="curve" smooth="yes"/>
      <point x="611" y="344"/>
      <point x="460" y="271"/>
      <point x="318" y="169" type="curve"/>
      <point x="619" y="169" type="line"/>
      <point x="619" y="0" type="line"/>
      <point x="49" y="0" type="line"/>
      <point x="49" y="48" type="line" smooth="yes"/>
      <point x="49" y="123"/>
      <point x="89" y="176"/>
      <point x="145" y="226" type="curve" smooth="yes"/>
      <point x="301" y="365"/>
      <point x="413" y="421"/>
      <point x="413" y="486" type="curve" smooth="yes"/>
    </contour>
  </outline>
</glyph>
<glyph name="three" format="1">
  <advance width="667"/>
  <unicode hex="0033"/>
  <outline>
    <contour>
      <point x="294" y="560.125" type="line"/>
      <point x="252.382" y="550.963"/>
      <point x="231" y="521.051"/>
      <point x="231" y="487" type="curve"/>
      <point x="64" y="487" type="line"/>
      <point x="64" y="512" type="line" smooth="yes"/>
      <point x="64" y="605.864"/>
      <point x="146.217" y="684.78"/>
      <point x="294" y="698.041" type="curve"/>
    </contour>
    <contour>
      <point x="410" y="694.562" type="line"/>
      <point x="535.481" y="674.288"/>
      <point x="605" y="599.799"/>
      <point x="605" y="513" type="curve" smooth="yes"/>
      <point x="605" y="444"/>
      <point x="564" y="383"/>
      <point x="505" y="361" type="curve"/>
      <point x="505" y="357" type="line"/>
      <point x="581" y="333"/>
      <point x="625" y="271"/>
      <point x="625" y="187" type="curve" smooth="yes"/>
      <point x="620.845" y="95.5866"/>
      <point x="560.059" y="18.676"/>
      <point x="426" y="-4.70508" type="curve"/>
      <point x="426" y="217" type="line" smooth="yes"/>
      <point x="426" y="266"/>
      <point x="395" y="289"/>
      <point x="356" y="289" type="curve" smooth="yes"/>
      <point x="283" y="289" type="line"/>
      <point x="283" y="412" type="line"/>
      <point x="340" y="412" type="line" smooth="yes"/>
      <point x="379" y="412"/>
      <point x="410" y="435"/>
      <point x="410" y="484" type="curve" smooth="yes"/>
    </contour>
    <contour>
      <point x="310" y="-11.5245" type="line"/>
      <point x="126.358" y="-4.41079"/>
      <point x="42" y="81.6253"/>
      <point x="42" y="186" type="curve" smooth="yes"/>
      <point x="42" y="207" type="line"/>
      <point x="218" y="207" type="line"/>
      <point x="218" y="164.334"/>
      <point x="239.575" y="128.859"/>
      <point x="310" y="125.295" type="curve"/>
    </contour>
  </outline>
</glyph>
<glyph name="four" format="1">
  <advance width="667"/>
  <unicode hex="0034"/>
  <outline>
    <contour>
      <point x="242" y="288" type="line"/>
      <point x="242" y="141" type="line"/>
      <point x="23" y="141" type="line"/>
      <point x="23" y="290" type="line"/>
      <point x="88" y="385"/>
      <point x="215" y="700"/>
      <point x="215" y="700" type="curve"/>
      <point x="411" y="700" type="line"/>
      <point x="396" y="591"/>
      <point x="255" y="385"/>
      <point x="160" y="288" type="curve"/>
    </contour>
    <contour>
      <point x="358" y="431" type="line"/>
      <point x="392" y="480"/>
      <point x="449" y="577"/>
      <point x="463" y="634" type="curve"/>
      <point x="548" y="634" type="line"/>
      <point x="548" y="288" type="line"/>
      <point x="644" y="288" type="line"/>
      <point x="644" y="141" type="line"/>
      <point x="548" y="141" type="line"/>
      <point x="548" y="0" type="line"/>
      <point x="358" y="0" type="line"/>
    </contour>
  </outline>
</glyph>
<glyph name="five" format="1">
  <advance width="667"/>
  <unicode hex="0035"/>
  <outline>
    <contour>
      <point x="260" y="688" type="line"/>
      <point x="239" y="414" type="line"/>
      <point x="298" y="445" type="line" smooth="yes"/>
      <point x="321" y="453"/>
      <point x="351" y="459"/>
      <point x="386" y="459" type="curve" smooth="yes"/>
      <point x="532" y="459"/>
      <point x="625" y="371"/>
      <point x="625" y="225" type="curve" smooth="yes"/>
      <point x="625" y="117"/>
      <point x="551" y="26"/>
      <point x="428" y="-3" type="curve"/>
      <point x="428" y="228" type="line" smooth="yes"/>
      <point x="428" y="287"/>
      <point x="391" y="331"/>
      <point x="323" y="331" type="curve" smooth="yes"/>
      <point x="256" y="331"/>
      <point x="238" y="294"/>
      <point x="227" y="281" type="curve"/>
      <point x="69" y="303" type="line"/>
      <point x="98" y="688" type="line"/>
    </contour>
    <contour>
      <point x="574" y="688" type="line"/>
      <point x="574" y="518" type="line"/>
      <point x="359" y="518" type="line"/>
      <point x="373" y="688" type="line"/>
    </contour>
    <contour>
      <point x="312" y="126" type="curve"/>
      <point x="312" y="-11" type="line"/>
      <point x="132" y="-2"/>
      <point x="39" y="89"/>
      <point x="39" y="222" type="curve"/>
      <point x="215" y="222" type="line"/>
      <point x="215" y="173"/>
      <point x="248" y="130"/>
    </contour>
  </outline>
</glyph>
<glyph name="six" format="1">
  <advance width="667"/>
  <unicode hex="0036"/>
  <outline>
    <contour>
      <point x="242" y="387" type="line"/>
      <point x="278" y="412" type="line"/>
      <point x="314" y="431"/>
      <point x="355" y="439"/>
      <point x="387" y="439" type="curve" smooth="yes"/>
      <point x="523" y="439"/>
      <point x="631" y="365"/>
      <point x="631" y="228" type="curve" smooth="yes"/>
      <point x="631" y="105"/>
      <point x="558" y="15"/>
      <point x="438" y="-12" type="curve"/>
      <point x="438" y="219" type="line" smooth="yes"/>
      <point x="438" y="316.33"/>
      <point x="350.492" y="319.009"/>
      <point x="340.858" y="319.009" type="curve" smooth="yes"/>
      <point x="340.297" y="319.009"/>
      <point x="340" y="319"/>
      <point x="340" y="319" type="curve" smooth="yes"/>
      <point x="277" y="319"/>
      <point x="242" y="284"/>
      <point x="242" y="221" type="curve" smooth="yes"/>
      <point x="242" y="164"/>
      <point x="270" y="130"/>
      <point x="322" y="124" type="curve"/>
      <point x="322" y="-12" type="line"/>
      <point x="133" y="-6"/>
      <point x="41" y="101"/>
      <point x="41" y="327" type="curve" smooth="yes"/>
      <point x="41" y="547"/>
      <point x="107" y="657"/>
      <point x="242" y="690" type="curve"/>
    </contour>
    <contour>
      <point x="358" y="700" type="line"/>
      <point x="511" y="694"/>
      <point x="614" y="614"/>
      <point x="614" y="468" type="curve"/>
      <point x="436" y="468" type="line"/>
      <point x="436" y="475" type="line" smooth="yes"/>
      <point x="436" y="520"/>
      <point x="411" y="558"/>
      <point x="358" y="564" type="curve"/>
    </contour>
  </outline>
</glyph>
<glyph name="seven" format="1">
  <advance width="667"/>
  <unicode hex="0037"/>
  <outline>
    <contour>
      <point x="625" y="688" type="line"/>
      <point x="625" y="597" type="line"/>
      <point x="498" y="440"/>
      <point x="380" y="262"/>
      <point x="380" y="59" type="curve" smooth="yes"/>
      <point x="380" y="0" type="line"/>
      <point x="158" y="0" type="line"/>
      <point x="158" y="190"/>
      <point x="250" y="370"/>
      <point x="375" y="516" type="curve"/>
      <point x="45" y="516" type="line"/>
      <point x="45" y="688" type="line"/>
    </contour>
  </outline>
</glyph>
<glyph name="eight" format="1">
  <advance width="667"/>
  <unicode hex="0038"/>
  <outline>
    <contour>
      <point x="332" y="287" type="curve" smooth="yes"/>
      <point x="282" y="287"/>
      <point x="240" y="259"/>
      <point x="240" y="205" type="curve" smooth="yes"/>
      <point x="240" y="158.312"/>
      <point x="268.406" y="131.059"/>
      <point x="311" y="124.535" type="curve"/>
      <point x="311" y="-11.666" type="line"/>
      <point x="145.16" y="-6.31496"/>
      <point x="41" y="63.2286"/>
      <point x="41" y="189" type="curve" smooth="yes"/>
      <point x="41" y="271"/>
      <point x="84" y="311"/>
      <point x="150" y="348" type="curve"/>
      <point x="150" y="352" type="line"/>
      <point x="102" y="386"/>
      <point x="66" y="420"/>
      <point x="66" y="497" type="curve" smooth="yes"/>
      <point x="66" y="599.309"/>
      <point x="137.973" y="665.632"/>
      <point x="240" y="689.776" type="curve"/>
      <point x="240" y="489" type="line" smooth="yes"/>
      <point x="240" y="435"/>
      <point x="282" y="414"/>
      <point x="332" y="414" type="curve" smooth="yes"/>
      <point x="382" y="414"/>
      <point x="427" y="435"/>
      <point x="427" y="489" type="curve" smooth="yes"/>
      <point x="427" y="534.655"/>
      <point x="397.693" y="557.436"/>
      <point x="356" y="563.387" type="curve"/>
      <point x="356" y="699.357" type="line"/>
      <point x="492.758" y="691.954"/>
      <point x="600" y="620.84"/>
      <point x="600" y="497" type="curve" smooth="yes"/>
      <point x="600" y="420"/>
      <point x="564" y="386"/>
      <point x="516" y="352" type="curve"/>
      <point x="516" y="348" type="line"/>
      <point x="582" y="311"/>
      <point x="626" y="271"/>
      <point x="626" y="189" type="curve" smooth="yes"/>
      <point x="626" y="83.0691"/>
      <point x="550.149" y="17.0253"/>
      <point x="427" y="-4.37259" type="curve"/>
      <point x="427" y="205" type="line" smooth="yes"/>
      <point x="427" y="259"/>
      <point x="382" y="287"/>
    </contour>
  </outline>
</glyph>
<glyph name="nine" format="1">
  <advance width="667"/>
  <unicode hex="0039"/>
  <outline>
    <contour>
      <point x="425" y="-2" type="curve"/>
      <point x="425" y="301" type="line"/>
      <point x="406" y="286" type="line" smooth="yes"/>
      <point x="367" y="260"/>
      <point x="317" y="249"/>
      <point x="280" y="249" type="curve" smooth="yes"/>
      <point x="144" y="249"/>
      <point x="36" y="323"/>
      <point x="36" y="460" type="curve" smooth="yes"/>
      <point x="36" y="583"/>
      <point x="109" y="663"/>
      <point x="229" y="690" type="curve" smooth="yes"/>
      <point x="229" y="467" type="line" smooth="yes"/>
      <point x="229" y="404"/>
      <point x="263" y="369"/>
      <point x="326" y="369" type="curve" smooth="yes"/>
      <point x="389" y="369"/>
      <point x="425" y="402"/>
      <point x="425" y="465" type="curve" smooth="yes"/>
      <point x="425" y="522"/>
      <point x="397" y="557"/>
      <point x="345" y="564" type="curve"/>
      <point x="345" y="700" type="line"/>
      <point x="534" y="694"/>
      <point x="626" y="587"/>
      <point x="626" y="361" type="curve" smooth="yes"/>
      <point x="626" y="141"/>
      <point x="560" y="31"/>
    </contour>
    <contour>
      <point x="309" y="-12" type="line"/>
      <point x="156" y="-6"/>
      <point x="53" y="74"/>
      <point x="53" y="220" type="curve"/>
      <point x="231" y="220" type="line"/>
      <point x="231" y="213" type="line" smooth="yes"/>
      <point x="231" y="168"/>
      <point x="256" y="130"/>
      <point x="309" y="124" type="curve"/>
    </contour>
  </outline>
</glyph>
<glyph name="semicolon" format="1">
  <advance width="333"/>
  <unicode hex="003B"/>
  <outline>
    <contour>
      <point x="273" y="199" type="line"/>
      <point x="273" y="11" type="line"/>
      <point x="168" y="-183" type="line"/>
      <point x="60" y="-183" type="line"/>
      <point x="142" y="0" type="line"/>
      <point x="61" y="0" type="line"/>
      <point x="61" y="199" type="line"/>
    </contour>
    <contour>
      <point x="273" y="528" type="line"/>
      <point x="273" y="328" type="line"/>
      <point x="61" y="328" type="line"/>
      <point x="61" y="528" type="line"/>
    </contour>
  </outline>
</glyph>
<glyph name="less" format="1">
  <advance width="660"/>
  <unicode hex="003C"/>
  <outline>
    <contour>
      <point x="592" y="535" type="line"/>
      <point x="592" y="392" type="line"/>
      <point x="233" y="260" type="line"/>
      <point x="592" y="129" type="line"/>
      <point x="592" y="-13" type="line"/>
      <point x="67" y="189" type="line"/>
      <point x="67" y="332" type="line"/>
    </contour>
  </outline>
</glyph>
<glyph name="equal" format="1">
  <advance width="660"/>
  <unicode hex="003D"/>
  <outline>
    <contour>
      <point x="594" y="443" type="line"/>
      <point x="594" y="311" type="line"/>
      <point x="66" y="311" type="line"/>
      <point x="66" y="443" type="line"/>
    </contour>
    <contour>
      <point x="594" y="217" type="line"/>
      <point x="594" y="85" type="line"/>
      <point x="66" y="85" type="line"/>
      <point x="66" y="217" type="line"/>
    </contour>
  </outline>
</glyph>
<glyph name="greater" format="1">
  <advance width="660"/>
  <unicode hex="003E"/>
  <outline>
    <contour>
      <point x="68" y="535" type="line"/>
      <point x="593" y="332" type="line"/>
      <point x="593" y="189" type="line"/>
      <point x="68" y="-13" type="line"/>
      <point x="68" y="129" type="line"/>
      <point x="427" y="260" type="line"/>
      <point x="68" y="392" type="line"/>
    </contour>
  </outline>
</glyph>
<glyph name="question" format="1">
  <advance width="611"/>
  <unicode hex="003F"/>
  <outline>
    <contour>
      <point x="410" y="185" type="line"/>
      <point x="410" y="0" type="line"/>
      <point x="212" y="0" type="line"/>
      <point x="212" y="185" type="line"/>
    </contour>
    <contour>
      <point x="298" y="561" type="line" smooth="yes"/>
      <point x="295" y="562"/>
      <point x="291" y="562"/>
      <point x="288" y="562" type="curve" smooth="yes"/>
      <point x="234" y="562"/>
      <point x="223" y="520"/>
      <point x="223" y="478" type="curve" smooth="yes"/>
      <point x="223" y="469"/>
      <point x="223" y="460"/>
      <point x="224" y="451" type="curve"/>
      <point x="40" y="451" type="line"/>
      <point x="39" y="464"/>
      <point x="37" y="476"/>
      <point x="37" y="489" type="curve" smooth="yes"/>
      <point x="37" y="616"/>
      <point x="147" y="696"/>
      <point x="298" y="700" type="curve"/>
    </contour>
    <contour>
      <point x="354" y="698" type="line"/>
      <point x="482" y="684"/>
      <point x="566" y="608"/>
      <point x="566" y="496" type="curve" smooth="yes"/>
      <point x="566" y="360"/>
      <point x="395" y="320"/>
      <point x="395" y="267" type="curve" smooth="yes"/>
      <point x="395" y="246" type="line"/>
      <point x="224" y="246" type="line"/>
      <point x="224" y="296" type="line" smooth="yes"/>
      <point x="224" y="369"/>
      <point x="354" y="411"/>
      <point x="354" y="492" type="curve" smooth="yes"/>
    </contour>
  </outline>
</glyph>
<glyph name="at" format="1">
  <advance width="740"/>
  <unicode hex="0040"/>
  <outline>
    <contour>
      <point x="437" y="104" type="curve"/>
      <point x="427" y="120"/>
      <point x="420" y="206"/>
      <point x="420" y="309" type="curve"/>
      <point x="420" y="329" type="line" smooth="yes"/>
      <point x="420" y="361"/>
      <point x="399" y="378"/>
      <point x="372" y="378" type="curve" smooth="yes"/>
      <point x="349" y="378"/>
      <point x="322" y="370"/>
      <point x="322" y="339" type="curve"/>
      <point x="173" y="339" type="line"/>
      <point x="172" y="343"/>
      <point x="172" y="346"/>
      <point x="172" y="349" type="curve" smooth="yes"/>
      <point x="172" y="423"/>
      <point x="242" y="474"/>
      <point x="374" y="474" type="curve" smooth="yes"/>
      <point x="479" y="474"/>
      <point x="573" y="442"/>
      <point x="573" y="343" type="curve" smooth="yes"/>
      <point x="573" y="184" type="line" smooth="yes"/>
      <point x="573" y="160"/>
      <point x="587" y="154"/>
      <point x="602" y="154" type="curve" smooth="yes"/>
      <point x="616" y="154"/>
      <point x="652" y="172"/>
      <point x="652" y="324" type="curve" smooth="yes"/>
      <point x="652" y="547"/>
      <point x="540" y="639"/>
      <point x="380" y="639" type="curve" smooth="yes"/>
      <point x="190" y="639"/>
      <point x="88" y="517"/>
      <point x="88" y="265" type="curve" smooth="yes"/>
      <point x="88" y="31"/>
      <point x="172" y="-88"/>
      <point x="350" y="-88" type="curve" smooth="yes"/>
      <point x="391" y="-88"/>
      <point x="463" y="-74"/>
      <point x="495" y="-56" type="curve"/>
      <point x="495" y="-122" type="line"/>
      <point x="458" y="-138"/>
      <point x="388" y="-149"/>
      <point x="350" y="-149" type="curve" smooth="yes"/>
      <point x="146" y="-149"/>
      <point x="20" y="-23"/>
      <point x="20" y="266" type="curve" smooth="yes"/>
      <point x="20" y="700"/>
      <point x="381" y="700"/>
      <point x="381" y="700" type="curve" smooth="yes"/>
      <point x="575" y="700"/>
      <point x="720" y="591"/>
      <point x="720" y="323" type="curve" smooth="yes"/>
      <point x="720" y="114"/>
      <point x="626" y="51"/>
      <point x="546" y="51" type="curve" smooth="yes"/>
      <point x="486" y="51"/>
      <point x="455" y="74"/>
    </contour>
    <contour>
      <point x="364" y="60" type="line"/>
      <point x="346" y="54"/>
      <point x="326" y="51"/>
      <point x="303" y="51" type="curve" smooth="yes"/>
      <point x="219" y="51"/>
      <point x="161" y="80"/>
      <point x="161" y="165" type="curve" smooth="yes"/>
      <point x="161" y="272"/>
      <point x="233" y="302"/>
      <point x="364" y="308" type="curve"/>
      <point x="364" y="231" type="line"/>
      <point x="328" y="222"/>
      <point x="312" y="205"/>
      <point x="312" y="184" type="curve" smooth="yes"/>
      <point x="312" y="152"/>
      <point x="334" y="145"/>
      <point x="354" y="145" type="curve" smooth="yes"/>
      <point x="357" y="145"/>
      <point x="361" y="145"/>
      <point x="364" y="146" type="curve" smooth="yes"/>
    </contour>
  </outline>
</glyph>
<glyph name="A" format="1">
  <advance width="778"/>
  <unicode hex="0041"/>
  <outline>
    <contour>
      <point x="440" y="688" type="line"/>
      <point x="236" y="0" type="line"/>
      <point x="10" y="0" type="line"/>
      <point x="261" y="688" type="line"/>
    </contour>
    <contour>
      <point x="539" y="630" type="line"/>
      <point x="769" y="0" type="line"/>
      <point x="535" y="0" type="line"/>
      <point x="506" y="97" type="line"/>
      <point x="381" y="97" type="line"/>
      <point x="427" y="251" type="line"/>
      <point x="460" y="251" type="line"/>
      <point x="444" y="307" type="line"/>
    </contour>
  </outline>
</glyph>
<glyph name="B" format="1">
  <advance width="778"/>
  <unicode hex="0042"/>
  <outline>
    <contour>
      <point x="295" y="688" type="line"/>
      <point x="295" y="0" type="line"/>
      <point x="74" y="0" type="line"/>
      <point x="74" y="688" type="line"/>
    </contour>
    <contour>
      <point x="411" y="537" type="line"/>
      <point x="411" y="688" type="line"/>
      <point x="532" y="688" type="line" smooth="yes"/>
      <point x="636" y="688"/>
      <point x="722" y="618"/>
      <point x="722" y="519" type="curve" smooth="yes"/>
      <point x="722" y="419"/>
      <point x="669" y="377"/>
      <point x="607" y="359" type="curve"/>
      <point x="607" y="355" type="line"/>
      <point x="678" y="339"/>
      <point x="738" y="293"/>
      <point x="738" y="183" type="curve" smooth="yes"/>
      <point x="738" y="73"/>
      <point x="649" y="0"/>
      <point x="538" y="0" type="curve" smooth="yes"/>
      <point x="411" y="0" type="line"/>
      <point x="411" y="160" type="line"/>
      <point x="463" y="160" type="line" smooth="yes"/>
      <point x="492" y="160"/>
      <point x="514" y="183"/>
      <point x="514" y="214" type="curve" smooth="yes"/>
      <point x="514" y="224" type="line" smooth="yes"/>
      <point x="514" y="254"/>
      <point x="492" y="278"/>
      <point x="463" y="278" type="curve" smooth="yes"/>
      <point x="411" y="278" type="line"/>
      <point x="411" y="420" type="line"/>
      <point x="447" y="420" type="line" smooth="yes"/>
      <point x="476" y="420"/>
      <point x="498" y="444"/>
      <point x="498" y="474" type="curve" smooth="yes"/>
      <point x="498" y="484" type="line" smooth="yes"/>
      <point x="498" y="513"/>
      <point x="475" y="537"/>
      <point x="447" y="537" type="curve" smooth="yes"/>
    </contour>
  </outline>
</glyph>
<glyph name="C" format="1">
  <advance width="778"/>
  <unicode hex="0043"/>
  <outline>
    <contour>
      <point x="402" y="700" type="line" smooth="yes"/>
      <point x="602" y="700"/>
      <point x="733" y="597"/>
      <point x="733" y="405" type="curve"/>
      <point x="522" y="405" type="line"/>
      <point x="522" y="484"/>
      <point x="480" y="535"/>
      <point x="401" y="535" type="curve" smooth="yes"/>
      <point x="396" y="535"/>
      <point x="392" y="535"/>
      <point x="387" y="534" type="curve"/>
      <point x="387" y="700" type="line"/>
    </contour>
    <contour>
      <point x="271" y="376" type="line"/>
      <point x="271" y="312" type="line"/>
      <point x="271" y="3" type="line"/>
      <point x="122" y="43"/>
      <point x="45" y="158"/>
      <point x="45" y="344" type="curve" smooth="yes"/>
      <point x="45" y="530"/>
      <point x="122" y="645"/>
      <point x="271" y="685" type="curve"/>
    </contour>
    <contour>
      <point x="387" y="153" type="line" smooth="yes"/>
      <point x="399" y="153" type="line" smooth="yes"/>
      <point x="486" y="153"/>
      <point x="529" y="200"/>
      <point x="529" y="279" type="curve"/>
      <point x="733" y="279" type="line"/>
      <point x="733" y="90"/>
      <point x="612" y="-12"/>
      <point x="402" y="-12" type="curve" smooth="yes"/>
      <point x="387" y="-12" type="line"/>
    </contour>
  </outline>
</glyph>
<glyph name="D" format="1">
  <advance width="778"/>
  <unicode hex="0044"/>
  <outline>
    <contour>
      <point x="295" y="688" type="line"/>
      <point x="295" y="0" type="line"/>
      <point x="74" y="0" type="line"/>
      <point x="74" y="688" type="line"/>
    </contour>
    <contour>
      <point x="411" y="519" type="curve"/>
      <point x="411" y="687" type="line" smooth="yes"/>
      <point x="621" y="675"/>
      <point x="733" y="566"/>
      <point x="733" y="344" type="curve" smooth="yes"/>
      <point x="733" y="122"/>
      <point x="621" y="13"/>
      <point x="411" y="1" type="curve"/>
      <point x="411" y="169" type="line"/>
      <point x="478" y="184"/>
      <point x="507" y="235"/>
      <point x="507" y="314" type="curve" smooth="yes"/>
      <point x="507" y="374" type="line" smooth="yes"/>
      <point x="507" y="453"/>
      <point x="478" y="504"/>
    </contour>
  </outline>
</glyph>
<glyph name="E" format="1">
  <advance width="722"/>
  <unicode hex="0045"/>
  <outline>
    <contour>
      <point x="295" y="0" type="line"/>
      <point x="74" y="0" type="line"/>
      <point x="74" y="688" type="line"/>
      <point x="295" y="688" type="line"/>
    </contour>
    <contour>
      <point x="411" y="0" type="line"/>
      <point x="411" y="165" type="line"/>
      <point x="676" y="165" type="line"/>
      <point x="676" y="0" type="line"/>
    </contour>
    <contour>
      <point x="411" y="688" type="line"/>
      <point x="669" y="688" type="line"/>
      <point x="669" y="523" type="line"/>
      <point x="411" y="523" type="line"/>
    </contour>
    <contour>
      <point x="411" y="270" type="line"/>
      <point x="411" y="428" type="line"/>
      <point x="615" y="428" type="line"/>
      <point x="615" y="270" type="line"/>
    </contour>
  </outline>
</glyph>
<glyph name="F" format="1">
  <advance width="667"/>
  <unicode hex="0046"/>
  <outline>
    <contour>
      <point x="295" y="688" type="line"/>
      <point x="295" y="0" type="line"/>
      <point x="74" y="0" type="line"/>
      <point x="74" y="688" type="line"/>
    </contour>
    <contour>
      <point x="411" y="688" type="line"/>
      <point x="630" y="688" type="line"/>
      <point x="630" y="523" type="line"/>
      <point x="411" y="523" type="line"/>
    </contour>
    <contour>
      <point x="583" y="405" type="line"/>
      <point x="583" y="247" type="line"/>
      <point x="411" y="247" type="line"/>
      <point x="411" y="405" type="line"/>
    </contour>
  </outline>
</glyph>
<glyph name="G" format="1">
  <advance width="833"/>
  <unicode hex="0047"/>
  <outline>
    <contour>
      <point x="271" y="376" type="line"/>
      <point x="271" y="340" type="line"/>
      <point x="271" y="312" type="line" smooth="yes"/>
      <point x="271" y="212"/>
      <point x="324" y="153"/>
      <point x="429" y="153" type="curve" smooth="yes"/>
      <point x="446" y="153"/>
      <point x="462" y="155"/>
      <point x="477" y="159" type="curve"/>
      <point x="536" y="11" type="line"/>
      <point x="493" y="-4"/>
      <point x="444" y="-12"/>
      <point x="388" y="-12" type="curve" smooth="yes"/>
      <point x="159" y="-12"/>
      <point x="45" y="109"/>
      <point x="45" y="344" type="curve" smooth="yes"/>
      <point x="45" y="524"/>
      <point x="126" y="638"/>
      <point x="271" y="681" type="curve"/>
    </contour>
    <contour>
      <point x="420" y="700" type="curve" smooth="yes"/>
      <point x="613" y="700"/>
      <point x="770" y="612"/>
      <point x="770" y="439" type="curve"/>
      <point x="559" y="439" type="line"/>
      <point x="559" y="498"/>
      <point x="499" y="535"/>
      <point x="429" y="535" type="curve" smooth="yes"/>
      <point x="414" y="535"/>
      <point x="400" y="534"/>
      <point x="387" y="531" type="curve"/>
      <point x="387" y="699" type="line"/>
      <point x="398" y="700"/>
      <point x="409" y="700"/>
    </contour>
    <contour>
      <point x="656" y="0" type="line"/>
      <point x="559" y="244" type="line"/>
      <point x="443" y="244" type="line"/>
      <point x="403" y="244" type="line"/>
      <point x="403" y="384" type="line"/>
      <point x="770" y="384" type="line"/>
      <point x="770" y="0" type="line"/>
    </contour>
  </outline>
</glyph>
<glyph name="H" format="1">
  <advance width="833"/>
  <unicode hex="0048"/>
  <outline>
    <contour>
      <point x="759" y="688" type="line"/>
      <point x="759" y="0" type="line"/>
      <point x="538" y="0" type="line"/>
      <point x="538" y="261" type="line"/>
      <point x="411" y="261" type="line"/>
      <point x="411" y="437" type="line"/>
      <point x="538" y="437" type="line"/>
      <point x="538" y="688" type="line"/>
    </contour>
    <contour>
      <point x="295" y="0" type="line"/>
      <point x="74" y="0" type="line"/>
      <point x="74" y="688" type="line"/>
      <point x="295" y="688" type="line"/>
    </contour>
  </outline>
</glyph>
<glyph name="J" format="1">
  <advance width="667"/>
  <unicode hex="004A"/>
  <outline>
    <contour>
      <point x="372" y="688" type="line"/>
      <point x="593" y="688" type="line"/>
      <point x="593" y="239" type="line" smooth="yes"/>
      <point x="593" y="85.2384"/>
      <point x="511.332" y="8.56567"/>
      <point x="372" y="-8.35533" type="curve"/>
    </contour>
    <contour>
      <point x="256" y="-9.65186" type="line"/>
      <point x="109.369" y="4.27633"/>
      <point x="23" y="80.8752"/>
      <point x="23" y="239" type="curve" smooth="yes"/>
      <point x="23" y="248" type="line"/>
      <point x="230" y="248" type="line"/>
      <point x="230" y="240" type="line" smooth="yes"/>
      <point x="230" y="201.379"/>
      <point x="238.74" y="177.688"/>
      <point x="256" y="164.972" type="curve"/>
    </contour>
  </outline>
</glyph>
<glyph name="K" format="1">
  <advance width="833"/>
  <unicode hex="004B"/>
  <outline>
    <contour>
      <point x="295" y="0" type="line"/>
      <point x="74" y="0" type="line"/>
      <point x="74" y="688" type="line"/>
      <point x="295" y="688" type="line"/>
    </contour>
    <contour>
      <point x="411" y="533.2" type="line"/>
      <point x="540" y="688" type="line"/>
      <point x="814" y="688" type="line"/>
      <point x="567" y="405" type="line"/>
      <point x="819" y="0" type="line"/>
      <point x="558" y="0" type="line"/>
      <point x="415" y="252" type="line"/>
      <point x="411" y="248.733" type="line"/>
    </contour>
  </outline>
</glyph>
<glyph name="M" format="1">
  <advance width="944"/>
  <unicode hex="004D"/>
  <outline>
    <contour>
      <point x="884" y="688" type="line"/>
      <point x="884" y="0" type="line"/>
      <point x="665" y="0" type="line"/>
      <point x="665" y="248" type="line" smooth="yes"/>
      <point x="665" y="352"/>
      <point x="681" y="466"/>
      <point x="681" y="466" type="curve"/>
      <point x="677" y="466" type="line"/>
      <point x="550" y="0" type="line"/>
      <point x="377" y="0" type="line"/>
      <point x="249" y="465" type="line"/>
      <point x="245" y="465" type="line"/>
      <point x="245" y="465"/>
      <point x="263" y="352"/>
      <point x="263" y="248" type="curve" smooth="yes"/>
      <point x="263" y="0" type="line"/>
      <point x="60" y="0" type="line"/>
      <point x="60" y="688" type="line"/>
      <point x="372" y="688" type="line"/>
      <point x="476" y="291" type="line"/>
      <point x="480" y="291" type="line"/>
      <point x="583" y="688" type="line"/>
    </contour>
  </outline>
</glyph>
<glyph name="N" format="1">
  <advance width="833"/>
  <unicode hex="004E"/>
  <outline>
    <contour>
      <point x="759" y="688" type="line"/>
      <point x="759" y="0" type="line"/>
      <point x="566" y="0" type="line"/>
      <point x="393" y="200" type="line"/>
      <point x="393" y="540" type="line"/>
      <point x="556" y="349" type="line"/>
      <point x="556" y="688" type="line"/>
    </contour>
    <contour>
      <point x="277" y="334" type="line"/>
      <point x="277" y="0" type="line"/>
      <point x="74" y="0" type="line"/>
      <point x="74" y="688" type="line"/>
      <point x="267" y="688" type="line"/>
      <point x="277" y="676" type="line"/>
    </contour>
  </outline>
</glyph>
<glyph name="O" format="1">
  <advance width="833"/>
  <unicode hex="004F"/>
  <outline>
    <contour>
      <point x="271" y="7" type="line" smooth="yes"/>
      <point x="126" y="49"/>
      <point x="45" y="163"/>
      <point x="45" y="344" type="curve" smooth="yes"/>
      <point x="45" y="525"/>
      <point x="126" y="639"/>
      <point x="271" y="681" type="curve" smooth="yes"/>
    </contour>
    <contour>
      <point x="387" y="533" type="curve"/>
      <point x="387" y="700" type="line"/>
      <point x="416" y="700" type="line" smooth="yes"/>
      <point x="651" y="700"/>
      <point x="788" y="579"/>
      <point x="788" y="344" type="curve" smooth="yes"/>
      <point x="788" y="109"/>
      <point x="651" y="-12"/>
      <point x="416" y="-12" type="curve" smooth="yes"/>
      <point x="406" y="-12"/>
      <point x="396" y="-12"/>
      <point x="387" y="-11" type="curve"/>
      <point x="387" y="155" type="line"/>
      <point x="396" y="154"/>
      <point x="406" y="153"/>
      <point x="416" y="153" type="curve" smooth="yes"/>
      <point x="513" y="153"/>
      <point x="562" y="218"/>
      <point x="562" y="312" type="curve" smooth="yes"/>
      <point x="562" y="376" type="line" smooth="yes"/>
      <point x="562" y="470"/>
      <point x="513" y="535"/>
      <point x="416" y="535" type="curve" smooth="yes"/>
      <point x="406" y="535"/>
      <point x="396" y="534"/>
    </contour>
  </outline>
</glyph>
<glyph name="P" format="1">
  <advance width="722"/>
  <unicode hex="0050"/>
  <outline>
    <contour>
      <point x="295" y="688" type="line"/>
      <point x="295" y="0" type="line"/>
      <point x="74" y="0" type="line"/>
      <point x="74" y="688" type="line"/>
    </contour>
    <contour>
      <point x="411" y="522" type="curve"/>
      <point x="411" y="688" type="line"/>
      <point x="460" y="688" type="line" smooth="yes"/>
      <point x="590" y="688"/>
      <point x="680" y="592"/>
      <point x="680" y="462" type="curve" smooth="yes"/>
      <point x="680" y="449" type="line" smooth="yes"/>
      <point x="680" y="319"/>
      <point x="590" y="222"/>
      <point x="460" y="222" type="curve" smooth="yes"/>
      <point x="411" y="222" type="line"/>
      <point x="411" y="386" type="line"/>
      <point x="441" y="394"/>
      <point x="456" y="417"/>
      <point x="456" y="450" type="curve" smooth="yes"/>
      <point x="456" y="458" type="line" smooth="yes"/>
      <point x="456" y="491"/>
      <point x="442" y="514"/>
    </contour>
  </outline>
</glyph>
<glyph name="Q" format="1">
  <advance width="833"/>
  <unicode hex="0051"/>
  <outline>
    <contour>
      <point x="562" y="312" type="curve" smooth="yes"/>
      <point x="562" y="376" type="line" smooth="yes"/>
      <point x="562" y="470"/>
      <point x="513" y="535"/>
      <point x="416" y="535" type="curve" smooth="yes"/>
      <point x="406" y="535"/>
      <point x="396" y="534"/>
      <point x="387" y="533" type="curve"/>
      <point x="387" y="699" type="line"/>
      <point x="396" y="700"/>
      <point x="406" y="700"/>
      <point x="416" y="700" type="curve" smooth="yes"/>
      <point x="651" y="700"/>
      <point x="788" y="579"/>
      <point x="788" y="344" type="curve" smooth="yes"/>
      <point x="788" y="188"/>
      <point x="727" y="82"/>
      <point x="618" y="28" type="curve"/>
      <point x="775" y="-131" type="line"/>
      <point x="512" y="-131" type="line"/>
      <point x="406" y="-12" type="line"/>
      <point x="400" y="-12"/>
      <point x="393" y="-12"/>
      <point x="387" y="-11" type="curve"/>
      <point x="387" y="155" type="line"/>
      <point x="396" y="154"/>
      <point x="406" y="153"/>
      <point x="416" y="153" type="curve" smooth="yes"/>
      <point x="513" y="153"/>
      <point x="562" y="218"/>
    </contour>
    <contour>
      <point x="271" y="681" type="curve" smooth="yes"/>
      <point x="271" y="7" type="line"/>
      <point x="126" y="49"/>
      <point x="45" y="162"/>
      <point x="45" y="344" type="curve" smooth="yes"/>
      <point x="45" y="525"/>
      <point x="126" y="639"/>
    </contour>
  </outline>
</glyph>
<glyph name="S" format="1">
  <advance width="722"/>
  <unicode hex="0053"/>
  <outline>
    <contour>
      <point x="396" y="699" type="line"/>
      <point x="547" y="691"/>
      <point x="664" y="625"/>
      <point x="667" y="488" type="curve" smooth="yes"/>
      <point x="667" y="476" type="line"/>
      <point x="460" y="476" type="line"/>
      <point x="460" y="480" type="line" smooth="yes"/>
      <point x="460" y="511"/>
      <point x="442" y="540"/>
      <point x="396" y="548" type="curve"/>
    </contour>
    <contour>
      <point x="280" y="694" type="curve"/>
      <point x="280" y="505" type="line" smooth="yes"/>
      <point x="280" y="402"/>
      <point x="681" y="483"/>
      <point x="686" y="228" type="curve" smooth="yes"/>
      <point x="686" y="83"/>
      <point x="593" y="12"/>
      <point x="460" y="-7" type="curve"/>
      <point x="460" y="192" type="line" smooth="yes"/>
      <point x="460" y="291"/>
      <point x="54" y="212"/>
      <point x="54" y="480" type="curve" smooth="yes"/>
      <point x="54" y="612"/>
      <point x="154" y="676"/>
    </contour>
    <contour>
      <point x="344" y="146" type="curve"/>
      <point x="344" y="-11" type="line"/>
      <point x="171" y="-5"/>
      <point x="43" y="50"/>
      <point x="43" y="233" type="curve"/>
      <point x="252" y="233" type="line"/>
      <point x="252" y="166"/>
      <point x="287" y="149"/>
    </contour>
  </outline>
</glyph>
<glyph name="U" format="1">
  <advance width="833"/>
  <unicode hex="0055"/>
  <outline>
    <contour>
      <point x="759" y="688" type="line"/>
      <point x="759" y="277" type="line" smooth="yes"/>
      <point x="759" y="87"/>
      <point x="633" y="-12"/>
      <point x="417" y="-12" type="curve" smooth="yes"/>
      <point x="414.992" y="-12"/>
      <point x="412.992" y="-11.9914"/>
      <point x="411" y="-11.9743" type="curve" smooth="yes"/>
      <point x="411" y="153.068" type="line"/>
      <point x="412.649" y="153.023"/>
      <point x="414.316" y="153"/>
      <point x="416" y="153" type="curve" smooth="yes"/>
      <point x="497" y="153"/>
      <point x="538" y="206"/>
      <point x="538" y="280" type="curve" smooth="yes"/>
      <point x="538" y="688" type="line"/>
    </contour>
    <contour>
      <point x="295" y="0.573335" type="line" smooth="yes"/>
      <point x="153.999" y="32.7268"/>
      <point x="74" y="126.202"/>
      <point x="74" y="277" type="curve" smooth="yes"/>
      <point x="74" y="688" type="line"/>
      <point x="295" y="688" type="line"/>
    </contour>
  </outline>
</glyph>
<glyph name="V" format="1">
  <advance width="778"/>
  <unicode hex="0056"/>
  <outline>
    <contour>
      <point x="460" y="0" type="line"/>
      <point x="261" y="0" type="line"/>
      <point x="17" y="688" type="line"/>
      <point x="253" y="688" type="line"/>
      <point x="391" y="228" type="line"/>
      <point x="391" y="228" type="line"/>
    </contour>
    <contour>
      <point x="549" y="90" type="line"/>
      <point x="760" y="688" type="line"/>
      <point x="534" y="688" type="line"/>
      <point x="451" y="414" type="line"/>
    </contour>
  </outline>
</glyph>
<glyph name="W" format="1">
  <advance width="1000"/>
  <unicode hex="0057"/>
  <outline>
    <contour>
      <point x="375" y="0" type="line"/>
      <point x="314" y="298" type="line"/>
      <point x="314" y="298" type="line"/>
      <point x="235" y="688" type="line"/>
      <point x="5" y="688" type="line"/>
      <point x="166" y="0" type="line"/>
    </contour>
    <contour>
      <point x="396" y="688" type="line"/>
      <point x="614" y="688" type="line"/>
      <point x="697" y="298" type="line"/>
      <point x="697" y="298" type="line"/>
      <point x="761" y="0" type="line"/>
      <point x="591" y="0" type="line"/>
    </contour>
    <contour>
      <point x="857" y="96" type="line"/>
      <point x="995" y="688" type="line"/>
      <point x="775" y="688" type="line"/>
    </contour>
  </outline>
</glyph>
<glyph name="X" format="1">
  <advance width="778"/>
  <unicode hex="0058"/>
  <outline>
    <contour>
      <point x="755" y="688" type="line"/>
      <point x="532" y="363" type="line"/>
      <point x="778" y="0" type="line"/>
      <point x="510" y="0" type="line"/>
      <point x="383" y="214" type="line"/>
      <point x="379" y="214" type="line"/>
      <point x="252" y="0" type="line"/>
      <point x="4" y="0" type="line"/>
      <point x="250" y="364" type="line"/>
      <point x="28" y="688" type="line"/>
      <point x="295" y="688" type="line"/>
      <point x="399" y="512" type="line"/>
      <point x="403" y="512" type="line"/>
      <point x="508" y="688" type="line"/>
    </contour>
  </outline>
</glyph>
<glyph name="Y" format="1">
  <advance width="778"/>
  <unicode hex="0059"/>
  <outline>
    <contour>
      <point x="502" y="268" type="line"/>
      <point x="501" y="267" type="line"/>
      <point x="501" y="0" type="line"/>
      <point x="280" y="0" type="line"/>
      <point x="280" y="267" type="line"/>
      <point x="7" y="688" type="line"/>
      <point x="261" y="688" type="line"/>
    </contour>
    <contour>
      <point x="563" y="364" type="line"/>
      <point x="453" y="556" type="line"/>
      <point x="529" y="688" type="line"/>
      <point x="770" y="688" type="line"/>
    </contour>
  </outline>
</glyph>
<glyph name="Z" format="1">
  <advance width="722"/>
  <unicode hex="005A"/>
  <outline>
    <contour>
      <point x="228" y="523" type="line"/>
      <point x="345" y="688" type="line"/>
      <point x="48" y="688" type="line"/>
      <point x="48" y="523" type="line"/>
    </contour>
    <contour>
      <point x="364" y="165" type="line"/>
      <point x="364" y="165" type="line"/>
      <point x="683" y="617" type="line"/>
      <point x="683" y="688" type="line"/>
      <point x="461" y="688" type="line"/>
      <point x="24" y="71" type="line"/>
      <point x="24" y="0" type="line"/>
      <point x="248" y="0" type="line"/>
    </contour>
    <contour>
      <point x="480" y="165" type="line"/>
      <point x="691" y="165" type="line"/>
      <point x="691" y="0" type="line"/>
      <point x="364" y="0" type="line"/>
    </contour>
  </outline>
</glyph>
<glyph name="backslash" format="1">
  <advance width="278"/>
  <unicode hex="005C"/>
  <outline>
    <contour>
      <point x="119" y="736" type="line"/>
      <point x="279" y="-48" type="line"/>
      <point x="157" y="-48" type="line"/>
      <point x="-2" y="736" type="line"/>
    </contour>
  </outline>
</glyph>
<glyph name="bracketright" format="1">
  <advance width="389"/>
  <unicode hex="005D"/>
  <outline>
    <contour>
      <point x="339" y="737" type="line"/>
      <point x="339" y="-160" type="line"/>
      <point x="66" y="-160" type="line"/>
      <point x="66" y="-57" type="line"/>
      <point x="180" y="-57" type="line"/>
      <point x="180" y="634" type="line"/>
      <point x="66" y="634" type="line"/>
      <point x="66" y="737" type="line"/>
    </contour>
  </outline>
</glyph>
<glyph name="asciicircum" format="1">
  <advance width="660"/>
  <unicode hex="005E"/>
  <outline>
    <contour>
      <point x="401" y="688" type="line"/>
      <point x="604" y="337" type="line"/>
      <point x="462" y="337" type="line"/>
      <point x="331" y="549" type="line"/>
      <point x="199" y="337" type="line"/>
      <point x="55" y="337" type="line"/>
      <point x="258" y="688" type="line"/>
    </contour>
  </outline>
</glyph>
<glyph name="grave" format="1">
  <advance width="333"/>
  <unicode hex="0060"/>
  <outline>
    <contour>
      <point x="218" y="725" type="line"/>
      <point x="310" y="592" type="line"/>
      <point x="183" y="592" type="line"/>
      <point x="23" y="721" type="line"/>
      <point x="25" y="725" type="line"/>
    </contour>
  </outline>
</glyph>
<glyph name="b" format="1">
  <advance width="667"/>
  <unicode hex="0062"/>
  <outline>
    <contour>
      <point x="343" y="-3" type="line"/>
      <point x="363" y="-9"/>
      <point x="385" y="-12"/>
      <point x="408" y="-12" type="curve" smooth="yes"/>
      <point x="548" y="-12"/>
      <point x="631" y="79"/>
      <point x="631" y="265" type="curve" smooth="yes"/>
      <point x="631" y="449"/>
      <point x="548" y="540"/>
      <point x="408" y="540" type="curve" smooth="yes"/>
      <point x="397" y="540"/>
      <point x="386" y="539"/>
      <point x="376" y="538" type="curve"/>
      <point x="376" y="389" type="line"/>
      <point x="416" y="377"/>
      <point x="432" y="341"/>
      <point x="432" y="290" type="curve" smooth="yes"/>
      <point x="432" y="237" type="line" smooth="yes"/>
      <point x="432" y="186"/>
      <point x="416" y="150"/>
      <point x="376" y="139" type="curve"/>
      <point x="376" y="-3" type="line"/>
    </contour>
    <contour>
      <point x="260" y="479" type="line"/>
      <point x="260" y="308" type="line" smooth="yes"/>
      <point x="259" y="299"/>
      <point x="258" y="290"/>
      <point x="258" y="280" type="curve" smooth="yes"/>
      <point x="258" y="247" type="line" smooth="yes"/>
      <point x="258" y="237"/>
      <point x="259" y="228"/>
      <point x="260" y="219" type="curve" smooth="yes"/>
      <point x="260" y="160" type="line"/>
      <point x="240" y="75" type="line" smooth="yes"/>
      <point x="240" y="75" type="line" smooth="yes"/>
      <point x="223" y="0" type="line"/>
      <point x="61" y="0" type="line"/>
      <point x="61" y="725" type="line"/>
      <point x="260" y="725" type="line"/>
    </contour>
  </outline>
</glyph>
<glyph name="c" format="1">
  <advance width="667"/>
  <unicode hex="0063"/>
  <outline>
    <contour>
      <point x="333" y="540" type="curve" smooth="yes"/>
      <point x="494" y="540"/>
      <point x="624" y="476"/>
      <point x="624" y="315" type="curve"/>
      <point x="431" y="315" type="line"/>
      <point x="431" y="377"/>
      <point x="395" y="405"/>
      <point x="333" y="405" type="curve" smooth="yes"/>
      <point x="317" y="405"/>
      <point x="303" y="403"/>
      <point x="291" y="398" type="curve"/>
      <point x="291" y="538" type="line"/>
      <point x="305" y="539"/>
      <point x="319" y="540"/>
    </contour>
    <contour>
      <point x="235" y="292" type="line"/>
      <point x="235" y="235" type="line"/>
      <point x="235" y="-2" type="line"/>
      <point x="112" y="27"/>
      <point x="36" y="115"/>
      <point x="36" y="264" type="curve" smooth="yes"/>
      <point x="36" y="413"/>
      <point x="112" y="501"/>
      <point x="235" y="530" type="curve"/>
    </contour>
    <contour>
      <point x="291" y="130" type="line"/>
      <point x="304" y="126"/>
      <point x="319" y="123"/>
      <point x="337" y="123" type="curve" smooth="yes"/>
      <point x="402" y="123"/>
      <point x="439" y="150"/>
      <point x="439" y="215" type="curve"/>
      <point x="624" y="215" type="line"/>
      <point x="624" y="54"/>
      <point x="494" y="-12"/>
      <point x="333" y="-12" type="curve" smooth="yes"/>
      <point x="319" y="-12"/>
      <point x="305" y="-11"/>
      <point x="291" y="-10" type="curve"/>
    </contour>
  </outline>
</glyph>
<glyph name="d" format="1">
  <advance width="667"/>
  <unicode hex="0064"/>
  <outline>
    <contour>
      <point x="407" y="725" type="line"/>
      <point x="606" y="725" type="line"/>
      <point x="606" y="0" type="line"/>
      <point x="444" y="0" type="line"/>
      <point x="427" y="75" type="line" smooth="yes"/>
      <point x="427" y="75" type="line" smooth="yes"/>
      <point x="407" y="161" type="line"/>
    </contour>
    <contour>
      <point x="321" y="393" type="curve" smooth="yes"/>
      <point x="332" y="393"/>
      <point x="342" y="391"/>
      <point x="351" y="388" type="curve"/>
      <point x="351" y="520" type="line"/>
      <point x="324" y="534"/>
      <point x="293" y="540"/>
      <point x="259" y="540" type="curve" smooth="yes"/>
      <point x="119" y="540"/>
      <point x="36" y="449"/>
      <point x="36" y="265" type="curve" smooth="yes"/>
      <point x="36" y="79"/>
      <point x="119" y="-12"/>
      <point x="259" y="-12" type="curve" smooth="yes"/>
      <point x="293" y="-12"/>
      <point x="324" y="-6"/>
      <point x="351" y="7" type="curve"/>
      <point x="351" y="140" type="line"/>
      <point x="342" y="137"/>
      <point x="332" y="135"/>
      <point x="321" y="135" type="curve" smooth="yes"/>
      <point x="259" y="135"/>
      <point x="235" y="175"/>
      <point x="235" y="237" type="curve" smooth="yes"/>
      <point x="235" y="290" type="line" smooth="yes"/>
      <point x="235" y="352"/>
      <point x="259" y="393"/>
    </contour>
  </outline>
</glyph>
<glyph name="e" format="1">
  <advance width="667"/>
  <unicode hex="0065"/>
  <outline>
    <contour>
      <point x="333" y="540" type="curve" smooth="yes"/>
      <point x="523" y="540"/>
      <point x="631" y="454"/>
      <point x="631" y="264" type="curve" smooth="yes"/>
      <point x="631" y="230" type="line"/>
      <point x="291" y="230" type="line"/>
      <point x="291" y="324" type="line"/>
      <point x="430" y="324" type="line"/>
      <point x="430" y="379"/>
      <point x="397" y="413"/>
      <point x="341" y="413" type="curve" smooth="yes"/>
      <point x="321" y="413"/>
      <point x="305" y="410"/>
      <point x="291" y="405" type="curve"/>
      <point x="291" y="538" type="line"/>
      <point x="305" y="539"/>
      <point x="319" y="540"/>
    </contour>
    <contour>
      <point x="235" y="530" type="curve"/>
      <point x="235" y="230" type="line" smooth="yes"/>
      <point x="235" y="157"/>
      <point x="265" y="115"/>
      <point x="341" y="115" type="curve" smooth="yes"/>
      <point x="412" y="115"/>
      <point x="438" y="149"/>
      <point x="438" y="192" type="curve"/>
      <point x="631" y="192" type="line"/>
      <point x="631" y="66"/>
      <point x="535" y="-12"/>
      <point x="345" y="-12" type="curve" smooth="yes"/>
      <point x="155" y="-12"/>
      <point x="36" y="74"/>
      <point x="36" y="264" type="curve" smooth="yes"/>
      <point x="36" y="413"/>
      <point x="112" y="501"/>
    </contour>
  </outline>
</glyph>
<glyph name="h" format="1">
  <advance width="667"/>
  <unicode hex="0068"/>
  <outline>
    <contour>
      <point x="315" y="514" type="line"/>
      <point x="348" y="531"/>
      <point x="385" y="540"/>
      <point x="424" y="540" type="curve" smooth="yes"/>
      <point x="549" y="540"/>
      <point x="608" y="467"/>
      <point x="608" y="342" type="curve" smooth="yes"/>
      <point x="608" y="0" type="line"/>
      <point x="409" y="0" type="line"/>
      <point x="409" y="318" type="line" smooth="yes"/>
      <point x="409" y="362"/>
      <point x="386" y="393"/>
      <point x="342" y="393" type="curve" smooth="yes"/>
      <point x="332" y="393"/>
      <point x="323" y="392"/>
      <point x="315" y="389" type="curve"/>
    </contour>
    <contour>
      <point x="259" y="725" type="line"/>
      <point x="259" y="0" type="line"/>
      <point x="60" y="0" type="line"/>
      <point x="60" y="725" type="line"/>
    </contour>
  </outline>
</glyph>
<glyph name="j" format="1">
  <advance width="333"/>
  <unicode hex="006A"/>
  <outline>
    <contour>
      <point x="266" y="528" type="line"/>
      <point x="266" y="-29" type="line" smooth="yes"/>
      <point x="266" y="-157"/>
      <point x="211" y="-210"/>
      <point x="83" y="-210" type="curve" smooth="yes"/>
      <point x="51" y="-210"/>
      <point x="-10" y="-203"/>
      <point x="-41" y="-192" type="curve"/>
      <point x="-41" y="-73" type="line"/>
      <point x="11" y="-73" type="line" smooth="yes"/>
      <point x="51" y="-73"/>
      <point x="67" y="-50"/>
      <point x="67" y="-9" type="curve" smooth="yes"/>
      <point x="67" y="528" type="line"/>
    </contour>
    <contour>
      <point x="266" y="725" type="line"/>
      <point x="266" y="590" type="line"/>
      <point x="67" y="590" type="line"/>
      <point x="67" y="725" type="line"/>
    </contour>
  </outline>
</glyph>
<glyph name="k" format="1">
  <advance width="667"/>
  <unicode hex="006B"/>
  <outline>
    <contour>
      <point x="315" y="393" type="line"/>
      <point x="428" y="528" type="line"/>
      <point x="660" y="528" type="line"/>
      <point x="465" y="315" type="line"/>
      <point x="665" y="0" type="line"/>
      <point x="439" y="0" type="line"/>
      <point x="315" y="203" type="line"/>
    </contour>
    <contour>
      <point x="259" y="0" type="line"/>
      <point x="60" y="0" type="line"/>
      <point x="60" y="726" type="line"/>
      <point x="259" y="726" type="line"/>
    </contour>
  </outline>
</glyph>
<glyph name="m" format="1">
  <advance width="1000"/>
  <unicode hex="006D"/>
  <outline>
    <contour>
      <point x="259" y="311" type="line"/>
      <point x="259" y="310" type="line"/>
      <point x="259" y="0" type="line"/>
      <point x="60" y="0" type="line"/>
      <point x="60" y="528" type="line"/>
      <point x="223" y="528" type="line"/>
      <point x="236" y="449" type="line"/>
    </contour>
    <contour>
      <point x="580" y="449" type="curve"/>
      <point x="592" y="422"/>
      <point x="600" y="370"/>
      <point x="600" y="310" type="curve"/>
      <point x="600" y="0" type="line"/>
      <point x="401" y="0" type="line"/>
      <point x="401" y="318" type="line" smooth="yes"/>
      <point x="401" y="362"/>
      <point x="379" y="393"/>
      <point x="338" y="393" type="curve" smooth="yes"/>
      <point x="330" y="393"/>
      <point x="322" y="392"/>
      <point x="315" y="390" type="curve"/>
      <point x="315" y="514" type="line"/>
      <point x="347" y="530"/>
      <point x="383" y="540"/>
      <point x="420" y="540" type="curve" smooth="yes"/>
      <point x="501" y="540"/>
      <point x="554" y="507"/>
    </contour>
    <contour>
      <point x="656" y="513" type="line"/>
      <point x="688" y="530"/>
      <point x="724" y="540"/>
      <point x="761" y="540" type="curve" smooth="yes"/>
      <point x="883" y="540"/>
      <point x="941" y="467"/>
      <point x="941" y="342" type="curve" smooth="yes"/>
      <point x="941" y="0" type="line"/>
      <point x="742" y="0" type="line"/>
      <point x="742" y="318" type="line" smooth="yes"/>
      <point x="742" y="362"/>
      <point x="720" y="393"/>
      <point x="679" y="393" type="curve" smooth="yes"/>
      <point x="671" y="393"/>
      <point x="663" y="392"/>
      <point x="656" y="390" type="curve"/>
    </contour>
  </outline>
</glyph>
<glyph name="n" format="1">
  <advance width="667"/>
  <unicode hex="006E"/>
  <outline>
    <contour>
      <point x="424" y="540" type="curve" smooth="yes"/>
      <point x="386" y="540"/>
      <point x="348" y="530"/>
      <point x="315" y="514" type="curve"/>
      <point x="315" y="389" type="line"/>
      <point x="323" y="392"/>
      <point x="332" y="393"/>
      <point x="342" y="393" type="curve" smooth="yes"/>
      <point x="386" y="393"/>
      <point x="409" y="362"/>
      <point x="409" y="318" type="curve" smooth="yes"/>
      <point x="409" y="0" type="line"/>
      <point x="608" y="0" type="line"/>
      <point x="608" y="342" type="line" smooth="yes"/>
      <point x="608" y="467"/>
      <point x="549" y="540"/>
    </contour>
    <contour>
      <point x="259" y="312" type="line"/>
      <point x="236" y="448" type="line" smooth="yes"/>
      <point x="236" y="448" type="line" smooth="yes"/>
      <point x="223" y="528" type="line"/>
      <point x="60" y="528" type="line"/>
      <point x="60" y="-0" type="line"/>
      <point x="259" y="-0" type="line"/>
      <point x="259" y="310" type="line"/>
    </contour>
  </outline>
</glyph>
<glyph name="o" format="1">
  <advance width="667"/>
  <unicode hex="006F"/>
  <outline>
    <contour>
      <point x="333" y="540" type="curve" smooth="yes"/>
      <point x="513" y="540"/>
      <point x="631" y="449"/>
      <point x="631" y="264" type="curve" smooth="yes"/>
      <point x="631" y="79"/>
      <point x="513" y="-12"/>
      <point x="333" y="-12" type="curve" smooth="yes"/>
      <point x="318.587" y="-12"/>
      <point x="304.578" y="-11.4165"/>
      <point x="291" y="-10.2481" type="curve"/>
      <point x="291" y="129.566" type="line"/>
      <point x="302.869" y="125.246"/>
      <point x="316.811" y="123"/>
      <point x="333" y="123" type="curve" smooth="yes"/>
      <point x="403" y="123"/>
      <point x="432" y="165"/>
      <point x="432" y="235" type="curve" smooth="yes"/>
      <point x="432" y="292" type="line" smooth="yes"/>
      <point x="432" y="362"/>
      <point x="403" y="405"/>
      <point x="333" y="405" type="curve" smooth="yes"/>
      <point x="316.811" y="405"/>
      <point x="302.869" y="402.7"/>
      <point x="291" y="398.298" type="curve"/>
      <point x="291" y="538.248" type="line"/>
      <point x="304.578" y="539.417"/>
      <point x="318.587" y="540"/>
    </contour>
    <contour>
      <point x="235" y="-1.53015" type="line" smooth="yes"/>
      <point x="111.701" y="27.2009"/>
      <point x="36" y="115.19"/>
      <point x="36" y="264" type="curve" smooth="yes"/>
      <point x="36" y="412.81"/>
      <point x="111.701" y="500.799"/>
      <point x="235" y="529.53" type="curve"/>
    </contour>
  </outline>
</glyph>
<glyph name="p" format="1">
  <advance width="667"/>
  <unicode hex="0070"/>
  <outline>
    <contour>
      <point x="260" y="48" type="line"/>
      <point x="260" y="220" type="line" smooth="yes"/>
      <point x="259" y="229"/>
      <point x="258" y="238"/>
      <point x="258" y="248" type="curve" smooth="yes"/>
      <point x="258" y="281" type="line" smooth="yes"/>
      <point x="258" y="291"/>
      <point x="259" y="300"/>
      <point x="260" y="309" type="curve" smooth="yes"/>
      <point x="260" y="367" type="line"/>
      <point x="240" y="453" type="line" smooth="yes"/>
      <point x="240" y="453" type="line" smooth="yes"/>
      <point x="223" y="528" type="line"/>
      <point x="61" y="528" type="line"/>
      <point x="61" y="-197" type="line"/>
      <point x="260" y="-197" type="line"/>
    </contour>
    <contour>
      <point x="408" y="540" type="curve" smooth="yes"/>
      <point x="374" y="540"/>
      <point x="343" y="534"/>
      <point x="316" y="521" type="curve"/>
      <point x="316" y="388" type="line"/>
      <point x="325" y="391"/>
      <point x="335" y="393"/>
      <point x="346" y="393" type="curve" smooth="yes"/>
      <point x="408" y="393"/>
      <point x="432" y="353"/>
      <point x="432" y="291" type="curve" smooth="yes"/>
      <point x="432" y="238" type="line" smooth="yes"/>
      <point x="432" y="176"/>
      <point x="408" y="135"/>
      <point x="346" y="135" type="curve" smooth="yes"/>
      <point x="335" y="135"/>
      <point x="325" y="137"/>
      <point x="316" y="140" type="curve"/>
      <point x="316" y="7" type="line"/>
      <point x="343" y="-6"/>
      <point x="374" y="-12"/>
      <point x="408" y="-12" type="curve" smooth="yes"/>
      <point x="548" y="-12"/>
      <point x="631" y="79"/>
      <point x="631" y="263" type="curve" smooth="yes"/>
      <point x="631" y="449"/>
      <point x="548" y="540"/>
    </contour>
  </outline>
</glyph>
<glyph name="r" format="1">
  <advance width="444"/>
  <unicode hex="0072"/>
  <outline>
    <contour>
      <point x="381" y="541" type="curve" smooth="yes"/>
      <point x="418" y="541"/>
      <point x="440" y="529"/>
      <point x="440" y="529" type="curve"/>
      <point x="440" y="362" type="line"/>
      <point x="376" y="362" type="line" smooth="yes"/>
      <point x="351" y="362"/>
      <point x="331" y="358"/>
      <point x="315" y="351" type="curve"/>
      <point x="315" y="529" type="line"/>
      <point x="335" y="537"/>
      <point x="358" y="541"/>
    </contour>
    <contour>
      <point x="259" y="304" type="line"/>
      <point x="259" y="235" type="line"/>
      <point x="259" y="0" type="line"/>
      <point x="60" y="0" type="line"/>
      <point x="60" y="528" type="line"/>
      <point x="223" y="528" type="line"/>
    </contour>
  </outline>
</glyph>
<glyph name="s" format="1">
  <advance width="611"/>
  <unicode hex="0073"/>
  <outline>
    <contour>
      <point x="311" y="540" type="line" smooth="yes"/>
      <point x="436" y="540"/>
      <point x="564" y="495"/>
      <point x="564" y="370" type="curve"/>
      <point x="379" y="370" type="line"/>
      <point x="379" y="391"/>
      <point x="368" y="404"/>
      <point x="353" y="411" type="curve" smooth="yes"/>
      <point x="339" y="419"/>
      <point x="322" y="421"/>
      <point x="308" y="421" type="curve" smooth="yes"/>
      <point x="292" y="421" type="line"/>
      <point x="292" y="540" type="line"/>
    </contour>
    <contour>
      <point x="236" y="536" type="curve"/>
      <point x="236" y="387" type="line" smooth="yes"/>
      <point x="236" y="311"/>
      <point x="577" y="390"/>
      <point x="577" y="175" type="curve" smooth="yes"/>
      <point x="577" y="59"/>
      <point x="495" y="9"/>
      <point x="387" y="-7" type="curve"/>
      <point x="387" y="146" type="line" smooth="yes"/>
      <point x="387" y="225"/>
      <point x="46" y="153"/>
      <point x="46" y="361" type="curve" smooth="yes"/>
      <point x="46" y="474"/>
      <point x="130" y="522"/>
    </contour>
    <contour>
      <point x="331" y="-11" type="line"/>
      <point x="322" y="-12"/>
      <point x="313" y="-12"/>
      <point x="304" y="-12" type="curve" smooth="yes"/>
      <point x="172" y="-12"/>
      <point x="32" y="40"/>
      <point x="32" y="172" type="curve"/>
      <point x="217" y="172" type="line"/>
      <point x="217" y="168" type="line" smooth="yes"/>
      <point x="218" y="117"/>
      <point x="275" y="107"/>
      <point x="304" y="107" type="curve" smooth="yes"/>
      <point x="312" y="107"/>
      <point x="321" y="107"/>
      <point x="331" y="108" type="curve"/>
    </contour>
  </outline>
</glyph>
<glyph name="t" format="1">
  <advance width="444"/>
  <unicode hex="0074"/>
  <outline>
    <contour>
      <point x="300" y="688" type="line"/>
      <point x="300" y="528" type="line"/>
      <point x="412" y="528" type="line"/>
      <point x="412" y="393" type="line"/>
      <point x="300" y="393" type="line"/>
      <point x="300" y="192" type="line" smooth="yes"/>
      <point x="300" y="147"/>
      <point x="311" y="123"/>
      <point x="356" y="123" type="curve" smooth="yes"/>
      <point x="412" y="123" type="line"/>
      <point x="412" y="6" type="line"/>
      <point x="379" y="-5"/>
      <point x="319" y="-12"/>
      <point x="284" y="-12" type="curve" smooth="yes"/>
      <point x="176" y="-12"/>
      <point x="101" y="21"/>
      <point x="101" y="129" type="curve" smooth="yes"/>
      <point x="101" y="393" type="line"/>
      <point x="27" y="393" type="line"/>
      <point x="27" y="528" type="line"/>
      <point x="109" y="528" type="line"/>
      <point x="152" y="688" type="line"/>
    </contour>
  </outline>
</glyph>
<glyph name="u" format="1">
  <advance width="667"/>
  <unicode hex="0075"/>
  <outline>
    <contour>
      <point x="351" y="14" type="line"/>
      <point x="318" y="-3"/>
      <point x="280" y="-12"/>
      <point x="242" y="-12" type="curve" smooth="yes"/>
      <point x="117" y="-12"/>
      <point x="58" y="61"/>
      <point x="58" y="186" type="curve" smooth="yes"/>
      <point x="58" y="528" type="line"/>
      <point x="257" y="528" type="line"/>
      <point x="257" y="210" type="line" smooth="yes"/>
      <point x="257" y="166"/>
      <point x="280" y="135"/>
      <point x="324" y="135" type="curve" smooth="yes"/>
      <point x="334" y="135"/>
      <point x="343" y="136"/>
      <point x="351" y="139" type="curve"/>
    </contour>
    <contour>
      <point x="407" y="528" type="line"/>
      <point x="606" y="528" type="line"/>
      <point x="606" y="0" type="line"/>
      <point x="443" y="0" type="line"/>
      <point x="407" y="223" type="line"/>
    </contour>
  </outline>
</glyph>
<glyph name="v" format="1">
  <advance width="611"/>
  <unicode hex="0076"/>
  <outline>
    <contour>
      <point x="368.182" y="-1.42109e-14" type="line"/>
      <point x="200" y="0" type="line"/>
      <point x="0" y="528" type="line"/>
      <point x="214" y="528" type="line"/>
    </contour>
    <contour>
      <point x="417.61" y="22.5054" type="line"/>
      <point x="611" y="528" type="line"/>
      <point x="415" y="528" type="line"/>
      <point x="342.151" y="280.916" type="line"/>
    </contour>
  </outline>
</glyph>
<glyph name="w" format="1">
  <advance width="944"/>
  <unicode hex="0077"/>
  <outline>
    <contour>
      <point x="349" y="0" type="line"/>
      <point x="193" y="0" type="line"/>
      <point x="0" y="528" type="line"/>
      <point x="214" y="528" type="line"/>
    </contour>
    <contour>
      <point x="556" y="0" type="line"/>
      <point x="718" y="0" type="line"/>
      <point x="662" y="216" type="line"/>
      <point x="662" y="216" type="line"/>
      <point x="582" y="528" type="line"/>
      <point x="384" y="528" type="line"/>
    </contour>
    <contour>
      <point x="764" y="38" type="line"/>
      <point x="944" y="528" type="line"/>
      <point x="750" y="528" type="line"/>
    </contour>
  </outline>
</glyph>
<glyph name="x" format="1">
  <advance width="667"/>
  <unicode hex="0078"/>
  <outline>
    <contour>
      <point x="650" y="528" type="line"/>
      <point x="464" y="275" type="line"/>
      <point x="662" y="0" type="line"/>
      <point x="430" y="0" type="line"/>
      <point x="330" y="166" type="line"/>
      <point x="326" y="166" type="line"/>
      <point x="225" y="0" type="line"/>
      <point x="4" y="0" type="line"/>
      <point x="207" y="280" type="line"/>
      <point x="24" y="528" type="line"/>
      <point x="258" y="528" type="line"/>
      <point x="342" y="388" type="line"/>
      <point x="346" y="388" type="line"/>
      <point x="430" y="528" type="line"/>
    </contour>
  </outline>
</glyph>
<glyph name="y" format="1">
  <advance width="611"/>
  <unicode hex="0079"/>
  <outline>
    <contour>
      <point x="611" y="528" type="line"/>
      <point x="423" y="16" type="line" smooth="yes"/>
      <point x="421.553" y="12.0513"/>
      <point x="420.091" y="8.1354"/>
      <point x="418.611" y="4.25378" type="curve" smooth="yes"/>
      <point x="344.983" y="263.741" type="line"/>
      <point x="415" y="528" type="line"/>
    </contour>
    <contour>
      <point x="384.202" y="-71.8398" type="line"/>
      <point x="338.383" y="-155.371"/>
      <point x="272.781" y="-210"/>
      <point x="156" y="-210" type="curve" smooth="yes"/>
      <point x="108" y="-210"/>
      <point x="66" y="-201"/>
      <point x="41" y="-192" type="curve"/>
      <point x="41" y="-73" type="line"/>
      <point x="121" y="-73" type="line" smooth="yes"/>
      <point x="191" y="-73"/>
      <point x="205" y="-26"/>
      <point x="210" y="0" type="curve"/>
      <point x="0" y="528" type="line"/>
      <point x="214" y="528" type="line"/>
    </contour>
  </outline>
</glyph>
<glyph name="z" format="1">
  <advance width="556"/>
  <unicode hex="007A"/>
  <outline>
    <contour>
      <point x="185.897" y="393" type="line"/>
      <point x="32" y="393" type="line"/>
      <point x="32" y="528" type="line"/>
      <point x="277.226" y="528" type="line"/>
    </contour>
    <contour>
      <point x="20" y="65" type="line"/>
      <point x="242" y="393" type="line"/>
      <point x="241.897" y="393" type="line"/>
      <point x="333.226" y="528" type="line"/>
      <point x="526" y="528" type="line"/>
      <point x="526" y="466" type="line"/>
      <point x="209.943" y="0" type="line"/>
      <point x="20" y="0" type="line"/>
    </contour>
    <contour>
      <point x="357.505" y="135" type="line"/>
      <point x="535" y="135" type="line"/>
      <point x="535" y="0" type="line"/>
      <point x="265.943" y="0" type="line"/>
    </contour>
  </outline>
</glyph>
<glyph name="braceleft" format="1">
  <advance width="389"/>
  <unicode hex="007B"/>
  <outline>
    <contour>
      <point x="349" y="737" type="line"/>
      <point x="349" y="639" type="line"/>
      <point x="321" y="639"/>
      <point x="275" y="635"/>
      <point x="273" y="598" type="curve" smooth="yes"/>
      <point x="263" y="397" type="line" smooth="yes"/>
      <point x="260" y="332"/>
      <point x="229" y="294"/>
      <point x="162" y="294" type="curve"/>
      <point x="162" y="285" type="line"/>
      <point x="229" y="285"/>
      <point x="260" y="247"/>
      <point x="263" y="182" type="curve" smooth="yes"/>
      <point x="273" y="-20" type="line" smooth="yes"/>
      <point x="275" y="-58"/>
      <point x="320" y="-62"/>
      <point x="349" y="-62" type="curve"/>
      <point x="349" y="-160" type="line"/>
      <point x="258" y="-160" type="line" smooth="yes"/>
      <point x="190" y="-160"/>
      <point x="117" y="-125"/>
      <point x="117" y="-48" type="curve" smooth="yes"/>
      <point x="117" y="195" type="line" smooth="yes"/>
      <point x="117" y="235"/>
      <point x="75" y="250"/>
      <point x="30" y="250" type="curve"/>
      <point x="30" y="329" type="line"/>
      <point x="70" y="329"/>
      <point x="117" y="346"/>
      <point x="117" y="386" type="curve" smooth="yes"/>
      <point x="117" y="625" type="line" smooth="yes"/>
      <point x="117" y="702"/>
      <point x="190" y="737"/>
      <point x="258" y="737" type="curve" smooth="yes"/>
    </contour>
  </outline>
</glyph>
<glyph name="bar" format="1">
  <advance width="278"/>
  <unicode hex="007C"/>
  <outline>
    <contour>
      <point x="201" y="726" type="line"/>
      <point x="201" y="-211" type="line"/>
      <point x="77" y="-211" type="line"/>
      <point x="77" y="726" type="line"/>
    </contour>
  </outline>
</glyph>
<glyph name="braceright" format="1">
  <advance width="389"/>
  <unicode hex="007D"/>
  <outline>
    <contour>
      <point x="40" y="737" type="line"/>
      <point x="131" y="737" type="line" smooth="yes"/>
      <point x="199" y="737"/>
      <point x="272" y="702"/>
      <point x="272" y="625" type="curve" smooth="yes"/>
      <point x="272" y="386" type="line" smooth="yes"/>
      <point x="272" y="346"/>
      <point x="319" y="329"/>
      <point x="359" y="329" type="curve"/>
      <point x="359" y="250" type="line"/>
      <point x="314" y="250"/>
      <point x="272" y="235"/>
      <point x="272" y="195" type="curve" smooth="yes"/>
      <point x="272" y="-48" type="line" smooth="yes"/>
      <point x="272" y="-125"/>
      <point x="199" y="-160"/>
      <point x="131" y="-160" type="curve" smooth="yes"/>
      <point x="40" y="-160" type="line"/>
      <point x="40" y="-62" type="line"/>
      <point x="69" y="-62"/>
      <point x="114" y="-58"/>
      <point x="116" y="-20" type="curve" smooth="yes"/>
      <point x="126" y="182" type="line" smooth="yes"/>
      <point x="129" y="247"/>
      <point x="160" y="285"/>
      <point x="227" y="285" type="curve"/>
      <point x="227" y="294" type="line"/>
      <point x="160" y="294"/>
      <point x="129" y="332"/>
      <point x="126" y="397" type="curve" smooth="yes"/>
      <point x="116" y="598" type="line" smooth="yes"/>
      <point x="114" y="635"/>
      <point x="68" y="639"/>
      <point x="40" y="639" type="curve"/>
    </contour>
  </outline>
</glyph>
<glyph name="exclamdown" format="1">
  <advance width="333"/>
  <unicode hex="00A1"/>
  <outline>
    <contour>
      <point x="229" y="282" type="line"/>
      <point x="286" y="-160" type="line"/>
      <point x="47" y="-160" type="line"/>
      <point x="102" y="282" type="line"/>
    </contour>
    <contour>
      <point x="265" y="528" type="line"/>
      <point x="265" y="343" type="line"/>
      <point x="67" y="343" type="line"/>
      <point x="67" y="528" type="line"/>
    </contour>
  </outline>
</glyph>
<glyph name="cent" format="1">
  <advance width="667"/>
  <unicode hex="00A2"/>
  <outline>
    <contour>
      <point x="392" y="756" type="line"/>
      <point x="384" y="618" type="line"/>
      <point x="521" y="605"/>
      <point x="624" y="539"/>
      <point x="624" y="396" type="curve"/>
      <point x="431" y="396" type="line"/>
      <point x="431" y="458"/>
      <point x="395" y="486"/>
      <point x="333" y="486" type="curve" smooth="yes"/>
      <point x="263" y="486"/>
      <point x="235" y="443"/>
      <point x="235" y="373" type="curve" smooth="yes"/>
      <point x="235" y="316" type="line" smooth="yes"/>
      <point x="235" y="246"/>
      <point x="264" y="204"/>
      <point x="337" y="204" type="curve" smooth="yes"/>
      <point x="402" y="204"/>
      <point x="439" y="231"/>
      <point x="439" y="296" type="curve"/>
      <point x="624" y="296" type="line"/>
      <point x="624" y="152"/>
      <point x="521" y="84"/>
      <point x="384" y="71" type="curve"/>
      <point x="392" y="-67" type="line"/>
      <point x="279" y="-67" type="line"/>
      <point x="286" y="71" type="line"/>
      <point x="133" y="86"/>
      <point x="36" y="176"/>
      <point x="36" y="345" type="curve" smooth="yes"/>
      <point x="36" y="513"/>
      <point x="133" y="604"/>
      <point x="286" y="619" type="curve"/>
      <point x="279" y="756" type="line"/>
    </contour>
  </outline>
</glyph>
<glyph name="sterling" format="1">
  <advance width="667"/>
  <unicode hex="00A3"/>
  <outline>
    <contour>
      <point x="381" y="700" type="curve" smooth="yes"/>
      <point x="550" y="700"/>
      <point x="638" y="608"/>
      <point x="638" y="494" type="curve" smooth="yes"/>
      <point x="638" y="466" type="line"/>
      <point x="439" y="466" type="line"/>
      <point x="439" y="494" type="line" smooth="yes"/>
      <point x="439" y="526"/>
      <point x="413" y="552"/>
      <point x="381" y="552" type="curve" smooth="yes"/>
      <point x="349" y="552"/>
      <point x="323" y="526"/>
      <point x="323" y="494" type="curve" smooth="yes"/>
      <point x="323" y="403" type="line"/>
      <point x="419" y="403" type="line"/>
      <point x="419" y="276" type="line"/>
      <point x="322" y="276" type="line"/>
      <point x="302" y="147" type="line"/>
      <point x="584" y="147" type="line"/>
      <point x="584" y="0" type="line"/>
      <point x="61" y="0" type="line"/>
      <point x="61" y="147" type="line"/>
      <point x="125" y="147" type="line"/>
      <point x="125" y="276" type="line"/>
      <point x="31" y="276" type="line"/>
      <point x="31" y="403" type="line"/>
      <point x="125" y="403" type="line"/>
      <point x="125" y="493" type="line" smooth="yes"/>
      <point x="125" y="608"/>
      <point x="203" y="700"/>
    </contour>
  </outline>
</glyph>
<glyph name="currency" format="1">
  <advance width="660"/>
  <unicode hex="00A4"/>
  <outline>
    <contour>
      <point x="523" y="603" type="line"/>
      <point x="591" y="535" type="line"/>
      <point x="535" y="479" type="line"/>
      <point x="561" y="451"/>
      <point x="577" y="395"/>
      <point x="577" y="339" type="curve" smooth="yes"/>
      <point x="577" y="285"/>
      <point x="561" y="231"/>
      <point x="533" y="197" type="curve"/>
      <point x="589" y="141" type="line"/>
      <point x="529" y="81" type="line"/>
      <point x="471" y="139" type="line"/>
      <point x="441" y="109"/>
      <point x="386" y="91"/>
      <point x="329" y="91" type="curve" smooth="yes"/>
      <point x="273" y="91"/>
      <point x="219" y="108"/>
      <point x="187" y="137" type="curve"/>
      <point x="130" y="80" type="line"/>
      <point x="69" y="141" type="line"/>
      <point x="127" y="199" type="line"/>
      <point x="98" y="232"/>
      <point x="81" y="283"/>
      <point x="81" y="339" type="curve" smooth="yes"/>
      <point x="81" y="393"/>
      <point x="96" y="449"/>
      <point x="127" y="479" type="curve"/>
      <point x="69" y="537" type="line"/>
      <point x="132" y="600" type="line"/>
      <point x="189" y="543" type="line"/>
      <point x="219" y="569"/>
      <point x="276" y="587"/>
      <point x="329" y="587" type="curve" smooth="yes"/>
      <point x="385" y="587"/>
      <point x="439" y="569"/>
      <point x="465" y="545" type="curve"/>
    </contour>
    <contour>
      <point x="329" y="477" type="curve" smooth="yes"/>
      <point x="255" y="477"/>
      <point x="201" y="415"/>
      <point x="201" y="339" type="curve" smooth="yes"/>
      <point x="201" y="262"/>
      <point x="256" y="201"/>
      <point x="329" y="201" type="curve" smooth="yes"/>
      <point x="406" y="201"/>
      <point x="457" y="265"/>
      <point x="457" y="339" type="curve" smooth="yes"/>
      <point x="457" y="413"/>
      <point x="406" y="477"/>
    </contour>
  </outline>
</glyph>
<glyph name="yen" format="1">
  <advance width="667"/>
  <unicode hex="00A5"/>
  <outline>
    <contour>
      <point x="665" y="688" type="line"/>
      <point x="540" y="459" type="line"/>
      <point x="638" y="459" type="line"/>
      <point x="638" y="366" type="line"/>
      <point x="489" y="366" type="line"/>
      <point x="463" y="318" type="line"/>
      <point x="638" y="318" type="line"/>
      <point x="638" y="225" type="line"/>
      <point x="436" y="225" type="line"/>
      <point x="436" y="0" type="line"/>
      <point x="235" y="0" type="line"/>
      <point x="235" y="225" type="line"/>
      <point x="32" y="225" type="line"/>
      <point x="32" y="318" type="line"/>
      <point x="207" y="318" type="line"/>
      <point x="180" y="366" type="line"/>
      <point x="32" y="366" type="line"/>
      <point x="32" y="459" type="line"/>
      <point x="129" y="459" type="line"/>
      <point x="2" y="688" type="line"/>
      <point x="232" y="688" type="line"/>
      <point x="338" y="459" type="line"/>
      <point x="342" y="459" type="line"/>
      <point x="448" y="688" type="line"/>
    </contour>
  </outline>
</glyph>
<glyph name="brokenbar" format="1">
  <advance width="278"/>
  <unicode hex="00A6"/>
  <outline>
    <contour>
      <point x="202" y="726" type="line"/>
      <point x="202" y="336" type="line"/>
      <point x="78" y="336" type="line"/>
      <point x="78" y="726" type="line"/>
    </contour>
    <contour>
      <point x="202" y="180" type="line"/>
      <point x="202" y="-210" type="line"/>
      <point x="78" y="-210" type="line"/>
      <point x="78" y="180" type="line"/>
    </contour>
  </outline>
</glyph>
<glyph name="section" format="1">
  <advance width="667"/>
  <unicode hex="00A7"/>
  <outline>
    <contour>
      <point x="330" y="700" type="curve" smooth="yes"/>
      <point x="439" y="700"/>
      <point x="590" y="666"/>
      <point x="590" y="547" type="curve" smooth="yes"/>
      <point x="590" y="537" type="line"/>
      <point x="409" y="537" type="line"/>
      <point x="409" y="570"/>
      <point x="370" y="582"/>
      <point x="339" y="582" type="curve" smooth="yes"/>
      <point x="305" y="582"/>
      <point x="263" y="573"/>
      <point x="263" y="546" type="curve" smooth="yes"/>
      <point x="263" y="454"/>
      <point x="613" y="457"/>
      <point x="613" y="261" type="curve" smooth="yes"/>
      <point x="613" y="180"/>
      <point x="553" y="130"/>
      <point x="522" y="109" type="curve"/>
      <point x="567" y="78"/>
      <point x="598" y="40"/>
      <point x="598" y="-13" type="curve" smooth="yes"/>
      <point x="598" y="-144"/>
      <point x="448" y="-184"/>
      <point x="337" y="-184" type="curve" smooth="yes"/>
      <point x="228" y="-184"/>
      <point x="77" y="-150"/>
      <point x="77" y="-31" type="curve" smooth="yes"/>
      <point x="77" y="-21" type="line"/>
      <point x="258" y="-21" type="line"/>
      <point x="258" y="-54"/>
      <point x="297" y="-66"/>
      <point x="328" y="-66" type="curve" smooth="yes"/>
      <point x="362" y="-66"/>
      <point x="404" y="-57"/>
      <point x="404" y="-30" type="curve" smooth="yes"/>
      <point x="404" y="62"/>
      <point x="54" y="59"/>
      <point x="54" y="255" type="curve" smooth="yes"/>
      <point x="54" y="335"/>
      <point x="113" y="386"/>
      <point x="144" y="407" type="curve"/>
      <point x="100" y="437"/>
      <point x="69" y="476"/>
      <point x="69" y="529" type="curve" smooth="yes"/>
      <point x="69" y="660"/>
      <point x="219" y="700"/>
    </contour>
    <contour>
      <point x="252" y="351" type="curve"/>
      <point x="237" y="339"/>
      <point x="221" y="322"/>
      <point x="221" y="301" type="curve" smooth="yes"/>
      <point x="221" y="239"/>
      <point x="319" y="206"/>
      <point x="415" y="165" type="curve"/>
      <point x="430" y="177"/>
      <point x="446" y="193"/>
      <point x="446" y="215" type="curve" smooth="yes"/>
      <point x="446" y="277"/>
      <point x="348" y="310"/>
    </contour>
  </outline>
</glyph>
<glyph name="dieresis" format="1">
  <advance width="333"/>
  <unicode hex="00A8"/>
  <outline>
    <contour>
      <point x="352" y="725" type="line"/>
      <point x="352" y="586" type="line"/>
      <point x="200" y="586" type="line"/>
      <point x="200" y="725" type="line"/>
    </contour>
    <contour>
      <point x="132" y="725" type="line"/>
      <point x="132" y="586" type="line"/>
      <point x="-20" y="586" type="line"/>
      <point x="-20" y="725" type="line"/>
    </contour>
  </outline>
</glyph>
<glyph name="copyright" format="1">
  <advance width="800"/>
  <unicode hex="00A9"/>
  <outline>
    <contour>
      <point x="400" y="700" type="curve" smooth="yes"/>
      <point x="610" y="700"/>
      <point x="758" y="544"/>
      <point x="758" y="345" type="curve" smooth="yes"/>
      <point x="758" y="146"/>
      <point x="610" y="-12"/>
      <point x="400" y="-12" type="curve" smooth="yes"/>
      <point x="190" y="-12"/>
      <point x="44" y="146"/>
      <point x="44" y="345" type="curve" smooth="yes"/>
      <point x="44" y="544"/>
      <point x="190" y="700"/>
    </contour>
    <contour>
      <point x="405" y="558" type="curve" smooth="yes"/>
      <point x="525" y="558"/>
      <point x="604" y="496"/>
      <point x="604" y="381" type="curve"/>
      <point x="477" y="381" type="line"/>
      <point x="477" y="428"/>
      <point x="451" y="459"/>
      <point x="404" y="459" type="curve" smooth="yes"/>
      <point x="347" y="459"/>
      <point x="326" y="420"/>
      <point x="326" y="363" type="curve" smooth="yes"/>
      <point x="326" y="325" type="line" smooth="yes"/>
      <point x="326" y="268"/>
      <point x="349" y="229"/>
      <point x="403" y="229" type="curve" smooth="yes"/>
      <point x="455" y="229"/>
      <point x="481" y="257"/>
      <point x="481" y="305" type="curve"/>
      <point x="604" y="305" type="line"/>
      <point x="604" y="191"/>
      <point x="531" y="130"/>
      <point x="405" y="130" type="curve" smooth="yes"/>
      <point x="263" y="130"/>
      <point x="190" y="203"/>
      <point x="190" y="344" type="curve" smooth="yes"/>
      <point x="190" y="485"/>
      <point x="263" y="558"/>
    </contour>
    <contour>
      <point x="400" y="636" type="curve" smooth="yes"/>
      <point x="229" y="636"/>
      <point x="121" y="521"/>
      <point x="121" y="345" type="curve" smooth="yes"/>
      <point x="121" y="169"/>
      <point x="229" y="53"/>
      <point x="400" y="53" type="curve" smooth="yes"/>
      <point x="571" y="53"/>
      <point x="681" y="169"/>
      <point x="681" y="345" type="curve" smooth="yes"/>
      <point x="681" y="521"/>
      <point x="571" y="636"/>
    </contour>
  </outline>
</glyph>
<glyph name="guillemotleft" format="1">
  <advance width="667"/>
  <unicode hex="00AB"/>
  <outline>
    <contour>
      <point x="606" y="528" type="line"/>
      <point x="468" y="324" type="line"/>
      <point x="606" y="119" type="line"/>
      <point x="463" y="119" type="line"/>
      <point x="296" y="324" type="line"/>
      <point x="463" y="528" type="line"/>
    </contour>
    <contour>
      <point x="370" y="528" type="line"/>
      <point x="232" y="324" type="line"/>
      <point x="370" y="119" type="line"/>
      <point x="227" y="119" type="line"/>
      <point x="60" y="324" type="line"/>
      <point x="227" y="528" type="line"/>
    </contour>
  </outline>
</glyph>
<glyph name="logicalnot" format="1">
  <advance width="660"/>
  <unicode hex="00AC"/>
  <outline>
    <contour>
      <point x="604" y="490" type="line"/>
      <point x="604" y="154" type="line"/>
      <point x="450" y="154" type="line"/>
      <point x="450" y="335" type="line"/>
      <point x="50" y="335" type="line"/>
      <point x="50" y="490" type="line"/>
    </contour>
  </outline>
</glyph>
<glyph name="uni00AD" format="1">
  <advance width="333"/>
  <unicode hex="00AD"/>
  <outline>
    <contour>
      <point x="294" y="354" type="line"/>
      <point x="294" y="196" type="line"/>
      <point x="39" y="196" type="line"/>
      <point x="39" y="354" type="line"/>
    </contour>
  </outline>
</glyph>
<glyph name="registered" format="1">
  <advance width="800"/>
  <unicode hex="00AE"/>
  <outline>
    <contour>
      <point x="400" y="700" type="curve" smooth="yes"/>
      <point x="610" y="700"/>
      <point x="758" y="544"/>
      <point x="758" y="345" type="curve" smooth="yes"/>
      <point x="758" y="146"/>
      <point x="610" y="-12"/>
      <point x="400" y="-12" type="curve" smooth="yes"/>
      <point x="190" y="-12"/>
      <point x="44" y="146"/>
      <point x="44" y="345" type="curve" smooth="yes"/>
      <point x="44" y="544"/>
      <point x="190" y="700"/>
    </contour>
    <contour>
      <point x="400" y="636" type="curve" smooth="yes"/>
      <point x="229" y="636"/>
      <point x="121" y="521"/>
      <point x="121" y="345" type="curve" smooth="yes"/>
      <point x="121" y="169"/>
      <point x="229" y="53"/>
      <point x="400" y="53" type="curve" smooth="yes"/>
      <point x="571" y="53"/>
      <point x="681" y="169"/>
      <point x="681" y="345" type="curve" smooth="yes"/>
      <point x="681" y="521"/>
      <point x="571" y="636"/>
    </contour>
    <contour>
      <point x="232" y="551" type="line"/>
      <point x="458" y="551" type="line" smooth="yes"/>
      <point x="521" y="551"/>
      <point x="573" y="510"/>
      <point x="573" y="447" type="curve" smooth="yes"/>
      <point x="573" y="385"/>
      <point x="533" y="355"/>
      <point x="506" y="344" type="curve"/>
      <point x="506" y="339" type="line"/>
      <point x="553" y="326"/>
      <point x="573" y="288"/>
      <point x="573" y="242" type="curve" smooth="yes"/>
      <point x="573" y="217"/>
      <point x="574" y="176"/>
      <point x="604" y="168" type="curve"/>
      <point x="604" y="143" type="line"/>
      <point x="582" y="134"/>
      <point x="554" y="131"/>
      <point x="531" y="131" type="curve" smooth="yes"/>
      <point x="471" y="131"/>
      <point x="438" y="150"/>
      <point x="438" y="205" type="curve" smooth="yes"/>
      <point x="438" y="240"/>
      <point x="436" y="284"/>
      <point x="384" y="284" type="curve" smooth="yes"/>
      <point x="365" y="284" type="line"/>
      <point x="365" y="138" type="line"/>
      <point x="232" y="138" type="line"/>
    </contour>
    <contour>
      <point x="400" y="457" type="curve" smooth="yes"/>
      <point x="365" y="457" type="line"/>
      <point x="365" y="376" type="line"/>
      <point x="400" y="376" type="line" smooth="yes"/>
      <point x="421" y="376"/>
      <point x="438" y="393"/>
      <point x="438" y="417" type="curve" smooth="yes"/>
      <point x="438" y="440"/>
      <point x="421" y="457"/>
    </contour>
  </outline>
</glyph>
<glyph name="macron" format="1">
  <advance width="333"/>
  <unicode hex="00AF"/>
  <outline>
    <contour>
      <point x="325" y="705" type="line"/>
      <point x="325" y="605" type="line"/>
      <point x="9" y="605" type="line"/>
      <point x="9" y="705" type="line"/>
    </contour>
  </outline>
</glyph>
<glyph name="degree" format="1">
  <advance width="400"/>
  <unicode hex="00B0"/>
  <outline>
    <contour>
      <point x="200" y="700" type="curve" smooth="yes"/>
      <point x="282" y="700"/>
      <point x="350" y="632"/>
      <point x="350" y="550" type="curve" smooth="yes"/>
      <point x="350" y="467"/>
      <point x="282" y="400"/>
      <point x="200" y="400" type="curve" smooth="yes"/>
      <point x="117" y="400"/>
      <point x="51" y="467"/>
      <point x="50" y="550" type="curve" smooth="yes"/>
      <point x="50" y="632"/>
      <point x="117" y="700"/>
    </contour>
    <contour>
      <point x="198" y="611" type="curve" smooth="yes"/>
      <point x="166" y="611"/>
      <point x="137" y="583"/>
      <point x="137" y="549" type="curve" smooth="yes"/>
      <point x="137" y="515"/>
      <point x="165" y="487"/>
      <point x="199" y="487" type="curve" smooth="yes"/>
      <point x="233" y="487"/>
      <point x="261" y="515"/>
      <point x="261" y="549" type="curve" smooth="yes"/>
      <point x="261" y="583"/>
      <point x="233" y="611"/>
    </contour>
  </outline>
</glyph>
<glyph name="plusminus" format="1">
  <advance width="660"/>
  <unicode hex="00B1"/>
  <outline>
    <contour>
      <point x="396" y="672" type="line"/>
      <point x="396" y="490" type="line"/>
      <point x="594" y="490" type="line"/>
      <point x="594" y="358" type="line"/>
      <point x="396" y="358" type="line"/>
      <point x="396" y="176" type="line"/>
      <point x="264" y="176" type="line"/>
      <point x="264" y="358" type="line"/>
      <point x="66" y="358" type="line"/>
      <point x="66" y="490" type="line"/>
      <point x="264" y="490" type="line"/>
      <point x="264" y="672" type="line"/>
    </contour>
    <contour>
      <point x="594" y="132" type="line"/>
      <point x="594" y="0" type="line"/>
      <point x="66" y="0" type="line"/>
      <point x="66" y="132" type="line"/>
    </contour>
  </outline>
</glyph>
<glyph name="twosuperior" format="1">
  <advance width="400"/>
  <unicode hex="00B2"/>
  <outline>
    <contour>
      <point x="211" y="737" type="curve" smooth="yes"/>
      <point x="318" y="737"/>
      <point x="385" y="687"/>
      <point x="385" y="613" type="curve" smooth="yes"/>
      <point x="385" y="523"/>
      <point x="286" y="480"/>
      <point x="193" y="419" type="curve"/>
      <point x="390" y="419" type="line"/>
      <point x="390" y="317" type="line"/>
      <point x="16" y="317" type="line"/>
      <point x="16" y="346" type="line" smooth="yes"/>
      <point x="16" y="391"/>
      <point x="42" y="423"/>
      <point x="79" y="453" type="curve" smooth="yes"/>
      <point x="181" y="536"/>
      <point x="255" y="570"/>
      <point x="255" y="608" type="curve" smooth="yes"/>
      <point x="255" y="631"/>
      <point x="238" y="652"/>
      <point x="198" y="652" type="curve" smooth="yes"/>
      <point x="158" y="652"/>
      <point x="135" y="628"/>
      <point x="135" y="596" type="curve" smooth="yes"/>
      <point x="135" y="584" type="line"/>
      <point x="18" y="584" type="line"/>
      <point x="17" y="589"/>
      <point x="17" y="593"/>
      <point x="17" y="597" type="curve" smooth="yes"/>
      <point x="17" y="681"/>
      <point x="82" y="737"/>
    </contour>
  </outline>
</glyph>
<glyph name="threesuperior" format="1">
  <advance width="400"/>
  <unicode hex="00B3"/>
  <outline>
    <contour>
      <point x="210" y="737" type="curve" smooth="yes"/>
      <point x="322" y="737"/>
      <point x="385" y="686"/>
      <point x="385" y="625" type="curve" smooth="yes"/>
      <point x="385" y="584"/>
      <point x="358" y="548"/>
      <point x="319" y="535" type="curve"/>
      <point x="319" y="531" type="line"/>
      <point x="369" y="516"/>
      <point x="398" y="480"/>
      <point x="398" y="430" type="curve" smooth="yes"/>
      <point x="394" y="364"/>
      <point x="337" y="311"/>
      <point x="207" y="311" type="curve" smooth="yes"/>
      <point x="76" y="311"/>
      <point x="15" y="364"/>
      <point x="15" y="429" type="curve" smooth="yes"/>
      <point x="15" y="442" type="line"/>
      <point x="131" y="442" type="line"/>
      <point x="131" y="415"/>
      <point x="146" y="393"/>
      <point x="199" y="393" type="curve" smooth="yes"/>
      <point x="249" y="393"/>
      <point x="267" y="416"/>
      <point x="267" y="448" type="curve" smooth="yes"/>
      <point x="267" y="477"/>
      <point x="247" y="491"/>
      <point x="221" y="491" type="curve" smooth="yes"/>
      <point x="173" y="491" type="line"/>
      <point x="173" y="565" type="line"/>
      <point x="211" y="565" type="line" smooth="yes"/>
      <point x="236" y="565"/>
      <point x="257" y="578"/>
      <point x="257" y="608" type="curve" smooth="yes"/>
      <point x="257" y="632"/>
      <point x="236" y="655"/>
      <point x="199" y="655" type="curve" smooth="yes"/>
      <point x="160" y="655"/>
      <point x="139" y="634"/>
      <point x="139" y="610" type="curve"/>
      <point x="30" y="610" type="line"/>
      <point x="30" y="625" type="line" smooth="yes"/>
      <point x="30" y="686"/>
      <point x="95" y="737"/>
    </contour>
  </outline>
</glyph>
<glyph name="acute" format="1">
  <advance width="333"/>
  <unicode hex="00B4"/>
  <outline>
    <contour>
      <point x="315" y="725" type="line"/>
      <point x="317" y="721" type="line"/>
      <point x="157" y="592" type="line"/>
      <point x="30" y="592" type="line"/>
      <point x="122" y="725" type="line"/>
    </contour>
  </outline>
</glyph>
<glyph name="mu" format="1">
  <advance width="667"/>
  <unicode hex="00B5"/>
  <outline>
    <contour>
      <point x="606" y="528" type="line"/>
      <point x="606" y="0" type="line"/>
      <point x="443" y="0" type="line"/>
      <point x="430" y="80" type="line"/>
      <point x="391" y="27"/>
      <point x="326" y="-7"/>
      <point x="257" y="-11" type="curve"/>
      <point x="257" y="-196" type="line"/>
      <point x="58" y="-196" type="line"/>
      <point x="58" y="528" type="line"/>
      <point x="257" y="528" type="line"/>
      <point x="257" y="210" type="line" smooth="yes"/>
      <point x="257" y="166"/>
      <point x="280" y="135"/>
      <point x="324" y="135" type="curve" smooth="yes"/>
      <point x="374" y="135"/>
      <point x="407" y="173"/>
      <point x="407" y="218" type="curve" smooth="yes"/>
      <point x="407" y="528" type="line"/>
    </contour>
  </outline>
</glyph>
<glyph name="paragraph" format="1">
  <advance width="850"/>
  <unicode hex="00B6"/>
  <outline>
    <contour>
      <point x="744" y="688" type="line"/>
      <point x="744" y="567" type="line"/>
      <point x="678" y="567" type="line"/>
      <point x="678" y="-161" type="line"/>
      <point x="550" y="-161" type="line"/>
      <point x="550" y="567" type="line"/>
      <point x="444" y="567" type="line"/>
      <point x="444" y="-161" type="line"/>
      <point x="316" y="-161" type="line"/>
      <point x="316" y="255" type="line"/>
      <point x="200" y="259"/>
      <point x="109" y="354"/>
      <point x="109" y="471" type="curve" smooth="yes"/>
      <point x="109" y="591"/>
      <point x="205" y="688"/>
      <point x="325" y="688" type="curve" smooth="yes"/>
    </contour>
  </outline>
</glyph>
<glyph name="cedilla" format="1">
  <advance width="333"/>
  <unicode hex="00B8"/>
  <outline>
    <contour>
      <point x="209" y="39" type="line"/>
      <point x="198" y="-29" type="line"/>
      <point x="247" y="-34"/>
      <point x="291" y="-56"/>
      <point x="291" y="-118" type="curve" smooth="yes"/>
      <point x="291" y="-194"/>
      <point x="219" y="-211"/>
      <point x="173" y="-211" type="curve" smooth="yes"/>
      <point x="127" y="-211"/>
      <point x="76" y="-205"/>
      <point x="47" y="-195" type="curve"/>
      <point x="47" y="-141" type="line"/>
      <point x="47" y="-141"/>
      <point x="112" y="-149"/>
      <point x="164" y="-149" type="curve" smooth="yes"/>
      <point x="188" y="-149"/>
      <point x="204" y="-141"/>
      <point x="204" y="-118" type="curve" smooth="yes"/>
      <point x="204" y="-98"/>
      <point x="195" y="-86"/>
      <point x="166" y="-86" type="curve" smooth="yes"/>
      <point x="128" y="-86" type="line"/>
      <point x="147" y="39" type="line"/>
    </contour>
  </outline>
</glyph>
<glyph name="onesuperior" format="1">
  <advance width="400"/>
  <unicode hex="00B9"/>
  <outline>
    <contour>
      <point x="268" y="729" type="line"/>
      <point x="268" y="408" type="line"/>
      <point x="371" y="408" type="line"/>
      <point x="371" y="316" type="line"/>
      <point x="30" y="316" type="line"/>
      <point x="30" y="408" type="line"/>
      <point x="137" y="408" type="line"/>
      <point x="137" y="595" type="line"/>
      <point x="30" y="595" type="line"/>
      <point x="30" y="664" type="line"/>
      <point x="91" y="668"/>
      <point x="173" y="698"/>
      <point x="224" y="729" type="curve"/>
    </contour>
  </outline>
</glyph>
<glyph name="ordmasculine" format="1">
  <advance width="400"/>
  <unicode hex="00BA"/>
  <outline>
    <contour>
      <point x="206" y="737" type="curve" smooth="yes"/>
      <point x="324" y="737"/>
      <point x="401" y="682"/>
      <point x="401" y="571" type="curve" smooth="yes"/>
      <point x="401" y="460"/>
      <point x="324" y="405"/>
      <point x="206" y="405" type="curve" smooth="yes"/>
      <point x="89" y="405"/>
      <point x="12" y="460"/>
      <point x="12" y="571" type="curve" smooth="yes"/>
      <point x="12" y="682"/>
      <point x="89" y="737"/>
    </contour>
    <contour>
      <point x="206" y="656" type="curve" smooth="yes"/>
      <point x="160" y="656"/>
      <point x="142" y="630"/>
      <point x="142" y="588" type="curve" smooth="yes"/>
      <point x="142" y="554" type="line" smooth="yes"/>
      <point x="142" y="512"/>
      <point x="160" y="486"/>
      <point x="206" y="486" type="curve" smooth="yes"/>
      <point x="252" y="486"/>
      <point x="271" y="512"/>
      <point x="271" y="554" type="curve" smooth="yes"/>
      <point x="271" y="588" type="line" smooth="yes"/>
      <point x="271" y="630"/>
      <point x="252" y="656"/>
    </contour>
  </outline>
</glyph>
<glyph name="guillemotright" format="1">
  <advance width="667"/>
  <unicode hex="00BB"/>
  <outline>
    <contour>
      <point x="199" y="324" type="line"/>
      <point x="61" y="528" type="line"/>
      <point x="204" y="528" type="line"/>
      <point x="371" y="324" type="line"/>
      <point x="204" y="119" type="line"/>
      <point x="61" y="119" type="line"/>
    </contour>
    <contour>
      <point x="435" y="324" type="line"/>
      <point x="297" y="528" type="line"/>
      <point x="440" y="528" type="line"/>
      <point x="607" y="324" type="line"/>
      <point x="440" y="119" type="line"/>
      <point x="297" y="119" type="line"/>
    </contour>
  </outline>
</glyph>
<glyph name="onequarter" format="1">
  <advance width="1000"/>
  <unicode hex="00BC"/>
  <outline>
    <contour>
      <point x="766" y="700" type="line"/>
      <point x="355" y="-12" type="line"/>
      <point x="260" y="-12" type="line"/>
      <point x="670" y="700" type="line"/>
    </contour>
    <contour>
      <point x="276" y="693" type="line"/>
      <point x="276" y="372" type="line"/>
      <point x="379" y="372" type="line"/>
      <point x="379" y="280" type="line"/>
      <point x="38" y="280" type="line"/>
      <point x="38" y="372" type="line"/>
      <point x="145" y="372" type="line"/>
      <point x="145" y="559" type="line"/>
      <point x="38" y="559" type="line"/>
      <point x="38" y="628" type="line"/>
      <point x="99" y="632"/>
      <point x="181" y="662"/>
      <point x="232" y="693" type="curve"/>
    </contour>
    <contour>
      <point x="697" y="420" type="curve"/>
      <point x="825" y="420" type="line"/>
      <point x="816" y="354"/>
      <point x="723" y="231"/>
      <point x="661" y="173" type="curve"/>
      <point x="791" y="173" type="line"/>
      <point x="791" y="258" type="line"/>
      <point x="813" y="288"/>
      <point x="850" y="346"/>
      <point x="859" y="380" type="curve"/>
      <point x="915" y="380" type="line"/>
      <point x="915" y="173" type="line"/>
      <point x="978" y="173" type="line"/>
      <point x="978" y="85" type="line"/>
      <point x="915" y="85" type="line"/>
      <point x="915" y="0" type="line"/>
      <point x="791" y="0" type="line"/>
      <point x="791" y="85" type="line"/>
      <point x="571" y="85" type="line"/>
      <point x="571" y="174" type="line"/>
      <point x="613" y="231"/>
      <point x="667" y="326"/>
    </contour>
  </outline>
</glyph>
<glyph name="onehalf" format="1">
  <advance width="1000"/>
  <unicode hex="00BD"/>
  <outline>
    <contour>
      <point x="766" y="700" type="line"/>
      <point x="355" y="-12" type="line"/>
      <point x="260" y="-12" type="line"/>
      <point x="670" y="700" type="line"/>
    </contour>
    <contour>
      <point x="276" y="694" type="line"/>
      <point x="276" y="373" type="line"/>
      <point x="379" y="373" type="line"/>
      <point x="379" y="281" type="line"/>
      <point x="38" y="281" type="line"/>
      <point x="38" y="373" type="line"/>
      <point x="145" y="373" type="line"/>
      <point x="145" y="560" type="line"/>
      <point x="38" y="560" type="line"/>
      <point x="38" y="629" type="line"/>
      <point x="99" y="633"/>
      <point x="181" y="663"/>
      <point x="232" y="694" type="curve"/>
    </contour>
    <contour>
      <point x="796" y="420" type="curve" smooth="yes"/>
      <point x="903" y="420"/>
      <point x="970" y="370"/>
      <point x="970" y="296" type="curve" smooth="yes"/>
      <point x="970" y="206"/>
      <point x="871" y="163"/>
      <point x="778" y="102" type="curve"/>
      <point x="975" y="102" type="line"/>
      <point x="975" y="0" type="line"/>
      <point x="601" y="0" type="line"/>
      <point x="601" y="29" type="line" smooth="yes"/>
      <point x="601" y="74"/>
      <point x="627" y="106"/>
      <point x="664" y="136" type="curve" smooth="yes"/>
      <point x="766" y="219"/>
      <point x="840" y="253"/>
      <point x="840" y="291" type="curve" smooth="yes"/>
      <point x="840" y="314"/>
      <point x="823" y="335"/>
      <point x="783" y="335" type="curve" smooth="yes"/>
      <point x="743" y="335"/>
      <point x="720" y="311"/>
      <point x="720" y="279" type="curve" smooth="yes"/>
      <point x="720" y="267" type="line"/>
      <point x="603" y="267" type="line"/>
      <point x="602" y="272"/>
      <point x="602" y="276"/>
      <point x="602" y="280" type="curve" smooth="yes"/>
      <point x="602" y="364"/>
      <point x="667" y="420"/>
    </contour>
  </outline>
</glyph>
<glyph name="threequarters" format="1">
  <advance width="1000"/>
  <unicode hex="00BE"/>
  <outline>
    <contour>
      <point x="766" y="700" type="line"/>
      <point x="355" y="-12" type="line"/>
      <point x="260" y="-12" type="line"/>
      <point x="670" y="700" type="line"/>
    </contour>
    <contour>
      <point x="223" y="701" type="curve" smooth="yes"/>
      <point x="335" y="701"/>
      <point x="398" y="650"/>
      <point x="398" y="589" type="curve" smooth="yes"/>
      <point x="398" y="548"/>
      <point x="371" y="512"/>
      <point x="332" y="499" type="curve"/>
      <point x="332" y="495" type="line"/>
      <point x="382" y="480"/>
      <point x="411" y="444"/>
      <point x="411" y="394" type="curve" smooth="yes"/>
      <point x="407" y="328"/>
      <point x="350" y="275"/>
      <point x="220" y="275" type="curve" smooth="yes"/>
      <point x="89" y="275"/>
      <point x="28" y="328"/>
      <point x="28" y="393" type="curve" smooth="yes"/>
      <point x="28" y="406" type="line"/>
      <point x="144" y="406" type="line"/>
      <point x="144" y="379"/>
      <point x="159" y="357"/>
      <point x="212" y="357" type="curve" smooth="yes"/>
      <point x="262" y="357"/>
      <point x="280" y="380"/>
      <point x="280" y="412" type="curve" smooth="yes"/>
      <point x="280" y="441"/>
      <point x="260" y="455"/>
      <point x="234" y="455" type="curve" smooth="yes"/>
      <point x="186" y="455" type="line"/>
      <point x="186" y="529" type="line"/>
      <point x="224" y="529" type="line" smooth="yes"/>
      <point x="249" y="529"/>
      <point x="270" y="542"/>
      <point x="270" y="572" type="curve" smooth="yes"/>
      <point x="270" y="596"/>
      <point x="249" y="619"/>
      <point x="212" y="619" type="curve" smooth="yes"/>
      <point x="173" y="619"/>
      <point x="152" y="598"/>
      <point x="152" y="574" type="curve"/>
      <point x="43" y="574" type="line"/>
      <point x="43" y="589" type="line" smooth="yes"/>
      <point x="43" y="650"/>
      <point x="108" y="701"/>
    </contour>
    <contour>
      <point x="689" y="420" type="curve"/>
      <point x="817" y="420" type="line"/>
      <point x="808" y="354"/>
      <point x="715" y="231"/>
      <point x="653" y="173" type="curve"/>
      <point x="783" y="173" type="line"/>
      <point x="783" y="258" type="line"/>
      <point x="805" y="288"/>
      <point x="842" y="346"/>
      <point x="851" y="380" type="curve"/>
      <point x="907" y="380" type="line"/>
      <point x="907" y="173" type="line"/>
      <point x="970" y="173" type="line"/>
      <point x="970" y="85" type="line"/>
      <point x="907" y="85" type="line"/>
      <point x="907" y="0" type="line"/>
      <point x="783" y="0" type="line"/>
      <point x="783" y="85" type="line"/>
      <point x="563" y="85" type="line"/>
      <point x="563" y="174" type="line"/>
      <point x="605" y="231"/>
      <point x="659" y="326"/>
    </contour>
  </outline>
</glyph>
<glyph name="questiondown" format="1">
  <advance width="611"/>
  <unicode hex="00BF"/>
  <outline>
    <contour>
      <point x="388" y="281" type="line"/>
      <point x="388" y="231" type="line" smooth="yes"/>
      <point x="388" y="158"/>
      <point x="258" y="116"/>
      <point x="258" y="35" type="curve" smooth="yes"/>
      <point x="258" y="-2"/>
      <point x="282" y="-35"/>
      <point x="324" y="-35" type="curve" smooth="yes"/>
      <point x="378" y="-35"/>
      <point x="389" y="7"/>
      <point x="389" y="49" type="curve" smooth="yes"/>
      <point x="389" y="58"/>
      <point x="389" y="67"/>
      <point x="388" y="76" type="curve"/>
      <point x="572" y="76" type="line"/>
      <point x="573" y="63"/>
      <point x="575" y="51"/>
      <point x="575" y="38" type="curve" smooth="yes"/>
      <point x="575" y="-92"/>
      <point x="459" y="-173"/>
      <point x="302" y="-173" type="curve" smooth="yes"/>
      <point x="149" y="-173"/>
      <point x="46" y="-93"/>
      <point x="46" y="31" type="curve" smooth="yes"/>
      <point x="46" y="167"/>
      <point x="217" y="207"/>
      <point x="217" y="260" type="curve" smooth="yes"/>
      <point x="217" y="281" type="line"/>
    </contour>
    <contour>
      <point x="400" y="527" type="line"/>
      <point x="400" y="342" type="line"/>
      <point x="202" y="342" type="line"/>
      <point x="202" y="527" type="line"/>
    </contour>
  </outline>
</glyph>
<glyph name="Aacute" format="1">
  <advance width="778"/>
  <unicode hex="00C1"/>
  <outline>
    <contour>
      <point x="580" y="881" type="line"/>
      <point x="420" y="752" type="line"/>
      <point x="293" y="752" type="line"/>
      <point x="385" y="885" type="line"/>
      <point x="578" y="885" type="line"/>
    </contour>
    <contour>
      <point x="769" y="0" type="line"/>
      <point x="535" y="0" type="line"/>
      <point x="506" y="97" type="line"/>
      <point x="381" y="97" type="line"/>
      <point x="427" y="251" type="line"/>
      <point x="460" y="251" type="line"/>
      <point x="444" y="307" type="line"/>
      <point x="539" y="630" type="line"/>
    </contour>
    <contour>
      <point x="440" y="688" type="line"/>
      <point x="236" y="0" type="line"/>
      <point x="10" y="0" type="line"/>
      <point x="261" y="688" type="line"/>
    </contour>
  </outline>
</glyph>
<glyph name="Acircumflex" format="1">
  <advance width="778"/>
  <unicode hex="00C2"/>
  <outline>
    <contour>
      <point x="453" y="885" type="line"/>
      <point x="592" y="740" type="line"/>
      <point x="462" y="740" type="line"/>
      <point x="388" y="817" type="line"/>
      <point x="314" y="740" type="line"/>
      <point x="186" y="740" type="line"/>
      <point x="325" y="885" type="line"/>
    </contour>
    <contour>
      <point x="440" y="688" type="line"/>
      <point x="236" y="0" type="line"/>
      <point x="10" y="0" type="line"/>
      <point x="261" y="688" type="line"/>
    </contour>
    <contour>
      <point x="539" y="630" type="line"/>
      <point x="769" y="0" type="line"/>
      <point x="535" y="0" type="line"/>
      <point x="506" y="97" type="line"/>
      <point x="381" y="97" type="line"/>
      <point x="427" y="251" type="line"/>
      <point x="460" y="251" type="line"/>
      <point x="444" y="307" type="line"/>
    </contour>
  </outline>
</glyph>
<glyph name="Atilde" format="1">
  <advance width="778"/>
  <unicode hex="00C3"/>
  <outline>
    <contour>
      <point x="530" y="885" type="curve"/>
      <point x="611" y="885" type="line"/>
      <point x="611" y="813"/>
      <point x="555" y="742"/>
      <point x="471" y="742" type="curve" smooth="yes"/>
      <point x="407" y="742"/>
      <point x="352" y="782"/>
      <point x="298" y="782" type="curve" smooth="yes"/>
      <point x="273" y="782"/>
      <point x="255" y="765"/>
      <point x="248" y="742" type="curve"/>
      <point x="167" y="742" type="line"/>
      <point x="167" y="814"/>
      <point x="223" y="885"/>
      <point x="307" y="885" type="curve" smooth="yes"/>
      <point x="371" y="885"/>
      <point x="426" y="845"/>
      <point x="480" y="845" type="curve" smooth="yes"/>
      <point x="505" y="845"/>
      <point x="523" y="862"/>
    </contour>
    <contour>
      <point x="440" y="688" type="line"/>
      <point x="236" y="0" type="line"/>
      <point x="10" y="0" type="line"/>
      <point x="261" y="688" type="line"/>
    </contour>
    <contour>
      <point x="539" y="630" type="line"/>
      <point x="769" y="0" type="line"/>
      <point x="535" y="0" type="line"/>
      <point x="506" y="97" type="line"/>
      <point x="381" y="97" type="line"/>
      <point x="427" y="251" type="line"/>
      <point x="460" y="251" type="line"/>
      <point x="444" y="307" type="line"/>
    </contour>
  </outline>
</glyph>
<glyph name="Aring" format="1">
  <advance width="778"/>
  <unicode hex="00C5"/>
  <outline>
    <contour>
      <point x="440" y="688" type="line"/>
      <point x="236" y="0" type="line"/>
      <point x="10" y="0" type="line"/>
      <point x="261" y="688" type="line"/>
    </contour>
    <contour>
      <point x="539" y="630" type="line"/>
      <point x="769" y="0" type="line"/>
      <point x="535" y="0" type="line"/>
      <point x="506" y="97" type="line"/>
      <point x="381" y="97" type="line"/>
      <point x="427" y="251" type="line"/>
      <point x="460" y="251" type="line"/>
      <point x="444" y="307" type="line"/>
    </contour>
    <contour>
      <point x="349" y="745" type="line" smooth="yes"/>
      <point x="309" y="760"/>
      <point x="280" y="799"/>
      <point x="280" y="845" type="curve" smooth="yes"/>
      <point x="280" y="891"/>
      <point x="309" y="930"/>
      <point x="349" y="946" type="curve"/>
    </contour>
    <contour>
      <point x="405" y="808" type="line"/>
      <point x="420" y="814"/>
      <point x="429" y="828"/>
      <point x="429" y="846" type="curve" smooth="yes"/>
      <point x="429" y="863"/>
      <point x="419" y="877"/>
      <point x="405" y="882" type="curve"/>
      <point x="405" y="953" type="line"/>
      <point x="457" y="945"/>
      <point x="498" y="900"/>
      <point x="498" y="845" type="curve" smooth="yes"/>
      <point x="498" y="791"/>
      <point x="457" y="746"/>
      <point x="405" y="738" type="curve"/>
    </contour>
  </outline>
</glyph>
<glyph name="Ccedilla" format="1">
  <advance width="778"/>
  <unicode hex="00C7"/>
  <outline>
    <contour>
      <point x="271" y="376" type="line"/>
      <point x="271" y="312" type="line" smooth="yes"/>
      <point x="271" y="290"/>
      <point x="273" y="269"/>
      <point x="278" y="251" type="curve"/>
      <point x="245" y="11" type="line"/>
      <point x="113" y="56"/>
      <point x="45" y="169"/>
      <point x="45" y="344" type="curve" smooth="yes"/>
      <point x="45" y="530"/>
      <point x="122" y="645"/>
      <point x="271" y="685" type="curve"/>
    </contour>
    <contour>
      <point x="402" y="700" type="line" smooth="yes"/>
      <point x="602" y="700"/>
      <point x="733" y="597"/>
      <point x="733" y="405" type="curve"/>
      <point x="522" y="405" type="line"/>
      <point x="522" y="484"/>
      <point x="480" y="535"/>
      <point x="401" y="535" type="curve" smooth="yes"/>
      <point x="396" y="535"/>
      <point x="392" y="535"/>
      <point x="387" y="534" type="curve"/>
      <point x="387" y="700" type="line"/>
    </contour>
    <contour>
      <point x="358" y="-11" type="line" smooth="yes"/>
      <point x="381" y="154" type="line"/>
      <point x="386" y="153"/>
      <point x="393" y="153"/>
      <point x="399" y="153" type="curve" smooth="yes"/>
      <point x="486" y="153"/>
      <point x="529" y="200"/>
      <point x="529" y="279" type="curve"/>
      <point x="733" y="279" type="line"/>
      <point x="733" y="96"/>
      <point x="619" y="-6"/>
      <point x="421" y="-12" type="curve"/>
      <point x="418" y="-29" type="line"/>
      <point x="467" y="-34"/>
      <point x="511" y="-56"/>
      <point x="511" y="-118" type="curve" smooth="yes"/>
      <point x="511" y="-194"/>
      <point x="439" y="-211"/>
      <point x="393" y="-211" type="curve" smooth="yes"/>
      <point x="347" y="-211"/>
      <point x="296" y="-205"/>
      <point x="267" y="-195" type="curve"/>
      <point x="267" y="-141" type="line"/>
      <point x="267" y="-141"/>
      <point x="332" y="-149"/>
      <point x="384" y="-149" type="curve" smooth="yes"/>
      <point x="408" y="-149"/>
      <point x="424" y="-141"/>
      <point x="424" y="-118" type="curve" smooth="yes"/>
      <point x="424" y="-98"/>
      <point x="415" y="-86"/>
      <point x="386" y="-86" type="curve" smooth="yes"/>
      <point x="348" y="-86" type="line"/>
      <point x="359" y="-11" type="line" smooth="yes"/>
    </contour>
  </outline>
</glyph>
<glyph name="Eacute" format="1">
  <advance width="722"/>
  <unicode hex="00C9"/>
  <outline>
    <contour>
      <point x="577" y="881" type="line"/>
      <point x="417" y="752" type="line"/>
      <point x="290" y="752" type="line"/>
      <point x="382" y="885" type="line"/>
      <point x="575" y="885" type="line"/>
    </contour>
    <contour>
      <point x="295" y="0" type="line"/>
      <point x="74" y="0" type="line"/>
      <point x="74" y="688" type="line"/>
      <point x="295" y="688" type="line"/>
    </contour>
    <contour>
      <point x="411" y="0" type="line"/>
      <point x="411" y="165" type="line"/>
      <point x="676" y="165" type="line"/>
      <point x="676" y="0" type="line"/>
    </contour>
    <contour>
      <point x="411" y="523" type="line"/>
      <point x="411" y="688" type="line"/>
      <point x="669" y="688" type="line"/>
      <point x="669" y="523" type="line"/>
    </contour>
    <contour>
      <point x="615" y="428" type="line"/>
      <point x="615" y="270" type="line"/>
      <point x="411" y="270" type="line"/>
      <point x="411" y="428" type="line"/>
    </contour>
  </outline>
</glyph>
<glyph name="Edieresis" format="1">
  <advance width="722"/>
  <unicode hex="00CB"/>
  <outline>
    <contour>
      <point x="572" y="885" type="line"/>
      <point x="572" y="746" type="line"/>
      <point x="420" y="746" type="line"/>
      <point x="420" y="885" type="line"/>
    </contour>
    <contour>
      <point x="352" y="885" type="line"/>
      <point x="352" y="746" type="line"/>
      <point x="200" y="746" type="line"/>
      <point x="200" y="885" type="line"/>
    </contour>
    <contour>
      <point x="676" y="0" type="line"/>
      <point x="74" y="0" type="line"/>
      <point x="74" y="688" type="line"/>
      <point x="669" y="688" type="line"/>
      <point x="669" y="523" type="line"/>
      <point x="295" y="523" type="line"/>
      <point x="295" y="428" type="line"/>
      <point x="615" y="428" type="line"/>
      <point x="615" y="270" type="line"/>
      <point x="295" y="270" type="line"/>
      <point x="295" y="165" type="line"/>
      <point x="676" y="165" type="line"/>
    </contour>
  </outline>
</glyph>
<glyph name="Igrave" format="1">
  <advance width="389"/>
  <unicode hex="00CC"/>
  <outline>
    <contour>
      <point x="305" y="0" type="line"/>
      <point x="84" y="0" type="line"/>
      <point x="84" y="688" type="line"/>
      <point x="305" y="688" type="line"/>
    </contour>
    <contour>
      <point x="291" y="752" type="line"/>
      <point x="164" y="752" type="line"/>
      <point x="4" y="881" type="line"/>
      <point x="6" y="885" type="line"/>
      <point x="199" y="885" type="line"/>
    </contour>
  </outline>
</glyph>
<glyph name="Iacute" format="1">
  <advance width="389"/>
  <unicode hex="00CD"/>
  <outline>
    <contour>
      <point x="305" y="0" type="line"/>
      <point x="84" y="0" type="line"/>
      <point x="84" y="688" type="line"/>
      <point x="305" y="688" type="line"/>
    </contour>
    <contour>
      <point x="386" y="881" type="line"/>
      <point x="226" y="752" type="line"/>
      <point x="99" y="752" type="line"/>
      <point x="191" y="885" type="line"/>
      <point x="384" y="885" type="line"/>
    </contour>
  </outline>
</glyph>
<glyph name="Icircumflex" format="1">
  <advance width="389"/>
  <unicode hex="00CE"/>
  <outline>
    <contour>
      <point x="305" y="688" type="line"/>
      <point x="305" y="0" type="line"/>
      <point x="84" y="0" type="line"/>
      <point x="84" y="688" type="line"/>
    </contour>
    <contour>
      <point x="259" y="885" type="line"/>
      <point x="398" y="740" type="line"/>
      <point x="268" y="740" type="line"/>
      <point x="194" y="817" type="line"/>
      <point x="120" y="740" type="line"/>
      <point x="-8" y="740" type="line"/>
      <point x="131" y="885" type="line"/>
    </contour>
  </outline>
</glyph>
<glyph name="Idieresis" format="1">
  <advance width="389"/>
  <unicode hex="00CF"/>
  <outline>
    <contour>
      <point x="305" y="688" type="line"/>
      <point x="305" y="0" type="line"/>
      <point x="84" y="0" type="line"/>
      <point x="84" y="688" type="line"/>
    </contour>
    <contour>
      <point x="381" y="885" type="line"/>
      <point x="381" y="746" type="line"/>
      <point x="229" y="746" type="line"/>
      <point x="229" y="885" type="line"/>
    </contour>
    <contour>
      <point x="161" y="885" type="line"/>
      <point x="161" y="746" type="line"/>
      <point x="9" y="746" type="line"/>
      <point x="9" y="885" type="line"/>
    </contour>
  </outline>
</glyph>
<glyph name="Ntilde" format="1">
  <advance width="833"/>
  <unicode hex="00D1"/>
  <outline>
    <contour>
      <point x="759" y="688" type="line"/>
      <point x="759" y="0" type="line"/>
      <point x="566" y="0" type="line"/>
      <point x="277" y="334" type="line"/>
      <point x="277" y="0" type="line"/>
      <point x="74" y="0" type="line"/>
      <point x="74" y="688" type="line"/>
      <point x="267" y="688" type="line"/>
      <point x="556" y="349" type="line"/>
      <point x="556" y="688" type="line"/>
    </contour>
    <contour>
      <point x="558" y="885" type="curve"/>
      <point x="639" y="885" type="line"/>
      <point x="639" y="813"/>
      <point x="583" y="742"/>
      <point x="499" y="742" type="curve" smooth="yes"/>
      <point x="435" y="742"/>
      <point x="379" y="782"/>
      <point x="326" y="782" type="curve" smooth="yes"/>
      <point x="300" y="782"/>
      <point x="283" y="765"/>
      <point x="275" y="742" type="curve"/>
      <point x="194" y="742" type="line"/>
      <point x="194" y="814"/>
      <point x="250" y="885"/>
      <point x="334" y="885" type="curve" smooth="yes"/>
      <point x="398" y="885"/>
      <point x="454" y="845"/>
      <point x="507" y="845" type="curve" smooth="yes"/>
      <point x="533" y="845"/>
      <point x="550" y="862"/>
    </contour>
  </outline>
</glyph>
<glyph name="Ocircumflex" format="1">
  <advance width="833"/>
  <unicode hex="00D4"/>
  <outline>
    <contour>
      <point x="416" y="700" type="curve" smooth="yes"/>
      <point x="651" y="700"/>
      <point x="788" y="579"/>
      <point x="788" y="344" type="curve" smooth="yes"/>
      <point x="788" y="109"/>
      <point x="651" y="-12"/>
      <point x="416" y="-12" type="curve" smooth="yes"/>
      <point x="181" y="-12"/>
      <point x="45" y="109"/>
      <point x="45" y="344" type="curve" smooth="yes"/>
      <point x="45" y="579"/>
      <point x="181" y="700"/>
    </contour>
    <contour>
      <point x="416" y="535" type="curve" smooth="yes"/>
      <point x="319" y="535"/>
      <point x="271" y="470"/>
      <point x="271" y="376" type="curve" smooth="yes"/>
      <point x="271" y="312" type="line" smooth="yes"/>
      <point x="271" y="218"/>
      <point x="319" y="153"/>
      <point x="416" y="153" type="curve" smooth="yes"/>
      <point x="513" y="153"/>
      <point x="562" y="218"/>
      <point x="562" y="312" type="curve" smooth="yes"/>
      <point x="562" y="376" type="line" smooth="yes"/>
      <point x="562" y="470"/>
      <point x="513" y="535"/>
    </contour>
    <contour>
      <point x="480" y="885" type="line"/>
      <point x="620" y="740" type="line"/>
      <point x="490" y="740" type="line"/>
      <point x="416" y="817" type="line"/>
      <point x="341" y="740" type="line"/>
      <point x="213" y="740" type="line"/>
      <point x="353" y="885" type="line"/>
    </contour>
  </outline>
</glyph>
<glyph name="Otilde" format="1">
  <advance width="833"/>
  <unicode hex="00D5"/>
  <outline>
    <contour>
      <point x="416" y="700" type="curve" smooth="yes"/>
      <point x="651" y="700"/>
      <point x="788" y="579"/>
      <point x="788" y="344" type="curve" smooth="yes"/>
      <point x="788" y="109"/>
      <point x="651" y="-12"/>
      <point x="416" y="-12" type="curve" smooth="yes"/>
      <point x="181" y="-12"/>
      <point x="45" y="109"/>
      <point x="45" y="344" type="curve" smooth="yes"/>
      <point x="45" y="579"/>
      <point x="181" y="700"/>
    </contour>
    <contour>
      <point x="416" y="535" type="curve" smooth="yes"/>
      <point x="319" y="535"/>
      <point x="271" y="470"/>
      <point x="271" y="376" type="curve" smooth="yes"/>
      <point x="271" y="312" type="line" smooth="yes"/>
      <point x="271" y="218"/>
      <point x="319" y="153"/>
      <point x="416" y="153" type="curve" smooth="yes"/>
      <point x="513" y="153"/>
      <point x="562" y="218"/>
      <point x="562" y="312" type="curve" smooth="yes"/>
      <point x="562" y="376" type="line" smooth="yes"/>
      <point x="562" y="470"/>
      <point x="513" y="535"/>
    </contour>
    <contour>
      <point x="558" y="885" type="curve"/>
      <point x="639" y="885" type="line"/>
      <point x="639" y="813"/>
      <point x="583" y="742"/>
      <point x="499" y="742" type="curve" smooth="yes"/>
      <point x="435" y="742"/>
      <point x="379" y="782"/>
      <point x="326" y="782" type="curve" smooth="yes"/>
      <point x="300" y="782"/>
      <point x="283" y="765"/>
      <point x="275" y="742" type="curve"/>
      <point x="194" y="742" type="line"/>
      <point x="194" y="814"/>
      <point x="250" y="885"/>
      <point x="334" y="885" type="curve" smooth="yes"/>
      <point x="398" y="885"/>
      <point x="454" y="845"/>
      <point x="507" y="845" type="curve" smooth="yes"/>
      <point x="533" y="845"/>
      <point x="550" y="862"/>
    </contour>
  </outline>
</glyph>
<glyph name="multiply" format="1">
  <advance width="660"/>
  <unicode hex="00D7"/>
  <outline>
    <contour>
      <point x="498" y="526" type="line"/>
      <point x="592" y="432" type="line"/>
      <point x="423" y="264" type="line"/>
      <point x="592" y="96" type="line"/>
      <point x="498" y="2" type="line"/>
      <point x="330" y="171" type="line"/>
      <point x="162" y="2" type="line"/>
      <point x="68" y="96" type="line"/>
      <point x="237" y="264" type="line"/>
      <point x="68" y="432" type="line"/>
      <point x="162" y="526" type="line"/>
      <point x="330" y="357" type="line"/>
    </contour>
  </outline>
</glyph>
<glyph name="Ucircumflex" format="1">
  <advance width="833"/>
  <unicode hex="00DB"/>
  <outline>
    <contour>
      <point x="759" y="688" type="line"/>
      <point x="759" y="277" type="line" smooth="yes"/>
      <point x="759" y="87"/>
      <point x="633" y="-12"/>
      <point x="417" y="-12" type="curve" smooth="yes"/>
      <point x="201" y="-12"/>
      <point x="74" y="87"/>
      <point x="74" y="277" type="curve" smooth="yes"/>
      <point x="74" y="688" type="line"/>
      <point x="295" y="688" type="line"/>
      <point x="295" y="280" type="line" smooth="yes"/>
      <point x="295" y="206"/>
      <point x="335" y="153"/>
      <point x="416" y="153" type="curve" smooth="yes"/>
      <point x="497" y="153"/>
      <point x="538" y="206"/>
      <point x="538" y="280" type="curve" smooth="yes"/>
      <point x="538" y="688" type="line"/>
    </contour>
    <contour>
      <point x="480" y="885" type="line"/>
      <point x="620" y="740" type="line"/>
      <point x="490" y="740" type="line"/>
      <point x="416" y="817" type="line"/>
      <point x="341" y="740" type="line"/>
      <point x="213" y="740" type="line"/>
      <point x="353" y="885" type="line"/>
    </contour>
  </outline>
</glyph>
<glyph name="Udieresis" format="1">
  <advance width="833"/>
  <unicode hex="00DC"/>
  <outline>
    <contour>
      <point x="759" y="688" type="line"/>
      <point x="759" y="277" type="line" smooth="yes"/>
      <point x="759" y="87"/>
      <point x="633" y="-12"/>
      <point x="417" y="-12" type="curve" smooth="yes"/>
      <point x="201" y="-12"/>
      <point x="74" y="87"/>
      <point x="74" y="277" type="curve" smooth="yes"/>
      <point x="74" y="688" type="line"/>
      <point x="295" y="688" type="line"/>
      <point x="295" y="280" type="line" smooth="yes"/>
      <point x="295" y="206"/>
      <point x="335" y="153"/>
      <point x="416" y="153" type="curve" smooth="yes"/>
      <point x="497" y="153"/>
      <point x="538" y="206"/>
      <point x="538" y="280" type="curve" smooth="yes"/>
      <point x="538" y="688" type="line"/>
    </contour>
    <contour>
      <point x="603" y="885" type="line"/>
      <point x="603" y="746" type="line"/>
      <point x="451" y="746" type="line"/>
      <point x="451" y="885" type="line"/>
    </contour>
    <contour>
      <point x="382" y="885" type="line"/>
      <point x="382" y="746" type="line"/>
      <point x="230" y="746" type="line"/>
      <point x="230" y="885" type="line"/>
    </contour>
  </outline>
</glyph>
<glyph name="Yacute" format="1">
  <advance width="778"/>
  <unicode hex="00DD"/>
  <outline>
    <contour>
      <point x="501" y="267" type="line"/>
      <point x="501" y="0" type="line"/>
      <point x="280" y="0" type="line"/>
      <point x="280" y="267" type="line"/>
      <point x="7" y="688" type="line"/>
      <point x="261" y="688" type="line"/>
      <point x="393" y="459" type="line"/>
      <point x="397" y="459" type="line"/>
      <point x="529" y="688" type="line"/>
      <point x="770" y="688" type="line"/>
    </contour>
    <contour>
      <point x="580" y="881" type="line"/>
      <point x="420" y="752" type="line"/>
      <point x="293" y="752" type="line"/>
      <point x="385" y="885" type="line"/>
      <point x="578" y="885" type="line"/>
    </contour>
  </outline>
</glyph>
<glyph name="Thorn" format="1">
  <advance width="722"/>
  <unicode hex="00DE"/>
  <outline>
    <contour>
      <point x="295" y="688" type="line"/>
      <point x="295" y="588" type="line"/>
      <point x="460" y="588" type="line" smooth="yes"/>
      <point x="590" y="588"/>
      <point x="680" y="492"/>
      <point x="680" y="362" type="curve" smooth="yes"/>
      <point x="680" y="349" type="line" smooth="yes"/>
      <point x="680" y="219"/>
      <point x="590" y="122"/>
      <point x="460" y="122" type="curve" smooth="yes"/>
      <point x="295" y="122" type="line"/>
      <point x="295" y="0" type="line"/>
      <point x="74" y="0" type="line"/>
      <point x="74" y="688" type="line"/>
    </contour>
    <contour>
      <point x="386" y="425" type="curve" smooth="yes"/>
      <point x="295" y="425" type="line"/>
      <point x="295" y="283" type="line"/>
      <point x="386" y="283" type="line" smooth="yes"/>
      <point x="433" y="283"/>
      <point x="456" y="309"/>
      <point x="456" y="350" type="curve" smooth="yes"/>
      <point x="456" y="358" type="line" smooth="yes"/>
      <point x="456" y="399"/>
      <point x="434" y="425"/>
    </contour>
  </outline>
</glyph>
<glyph name="germandbls" format="1">
  <advance width="667"/>
  <unicode hex="00DF"/>
  <outline>
    <contour>
      <point x="336" y="737" type="curve" smooth="yes"/>
      <point x="458" y="737"/>
      <point x="597" y="694"/>
      <point x="597" y="548" type="curve" smooth="yes"/>
      <point x="597" y="484"/>
      <point x="561" y="424"/>
      <point x="503" y="400" type="curve"/>
      <point x="503" y="395" type="line"/>
      <point x="574" y="369"/>
      <point x="624" y="294"/>
      <point x="624" y="214" type="curve" smooth="yes"/>
      <point x="624" y="70"/>
      <point x="520" y="0"/>
      <point x="378" y="0" type="curve" smooth="yes"/>
      <point x="314" y="0" type="line"/>
      <point x="314" y="136" type="line"/>
      <point x="342" y="136" type="line" smooth="yes"/>
      <point x="388" y="136"/>
      <point x="425" y="179"/>
      <point x="425" y="229" type="curve" smooth="yes"/>
      <point x="425" y="282"/>
      <point x="387" y="325"/>
      <point x="342" y="325" type="curve" smooth="yes"/>
      <point x="314" y="325" type="line"/>
      <point x="314" y="466" type="line"/>
      <point x="341" y="466" type="line" smooth="yes"/>
      <point x="378" y="466"/>
      <point x="406" y="496"/>
      <point x="406" y="534" type="curve" smooth="yes"/>
      <point x="406" y="573"/>
      <point x="380" y="603"/>
      <point x="336" y="603" type="curve" smooth="yes"/>
      <point x="293" y="603"/>
      <point x="266" y="573"/>
      <point x="266" y="534" type="curve" smooth="yes"/>
      <point x="266" y="0" type="line"/>
      <point x="67" y="0" type="line"/>
      <point x="67" y="517" type="line" smooth="yes"/>
      <point x="67" y="675"/>
      <point x="206" y="737"/>
    </contour>
  </outline>
</glyph>
<glyph name="agrave" format="1">
  <advance width="667"/>
  <unicode hex="00E0"/>
  <outline>
    <contour>
      <point x="417" y="592" type="line"/>
      <point x="291" y="592" type="line"/>
      <point x="130" y="721" type="line"/>
      <point x="132" y="725" type="line"/>
      <point x="325" y="725" type="line"/>
    </contour>
    <contour>
      <point x="411" y="54" type="curve"/>
      <point x="402" y="74"/>
      <point x="395" y="187"/>
      <point x="395" y="324" type="curve"/>
      <point x="395" y="350" type="line" smooth="yes"/>
      <point x="395" y="393"/>
      <point x="361" y="413"/>
      <point x="318" y="413" type="curve" smooth="yes"/>
      <point x="283" y="413"/>
      <point x="242" y="402"/>
      <point x="242" y="367" type="curve" smooth="yes"/>
      <point x="242" y="363" type="line"/>
      <point x="46" y="363" type="line"/>
      <point x="45" y="368"/>
      <point x="45" y="372"/>
      <point x="45" y="377" type="curve" smooth="yes"/>
      <point x="45" y="534"/>
      <point x="321" y="540"/>
      <point x="321" y="540" type="curve" smooth="yes"/>
      <point x="466" y="540"/>
      <point x="594" y="498"/>
      <point x="594" y="368" type="curve" smooth="yes"/>
      <point x="594" y="162" type="line" smooth="yes"/>
      <point x="594" y="140"/>
      <point x="604" y="123"/>
      <point x="626" y="123" type="curve" smooth="yes"/>
      <point x="662" y="123" type="line"/>
      <point x="662" y="8" type="line"/>
      <point x="662" y="8"/>
      <point x="625" y="-12"/>
      <point x="558" y="-12" type="curve" smooth="yes"/>
      <point x="478" y="-12"/>
      <point x="429" y="14"/>
    </contour>
    <contour>
      <point x="339" y="11" type="line"/>
      <point x="306" y="-3"/>
      <point x="266" y="-12"/>
      <point x="216" y="-12" type="curve" smooth="yes"/>
      <point x="106" y="-12"/>
      <point x="30" y="26"/>
      <point x="30" y="136" type="curve" smooth="yes"/>
      <point x="30" y="281"/>
      <point x="142" y="318"/>
      <point x="339" y="323" type="curve"/>
      <point x="339" y="227" type="line"/>
      <point x="262" y="219"/>
      <point x="229" y="194"/>
      <point x="229" y="162" type="curve" smooth="yes"/>
      <point x="229" y="121"/>
      <point x="263" y="112"/>
      <point x="297" y="112" type="curve" smooth="yes"/>
      <point x="312" y="112"/>
      <point x="326" y="114"/>
      <point x="339" y="119" type="curve"/>
    </contour>
  </outline>
</glyph>
<glyph name="aring" format="1">
  <advance width="667"/>
  <unicode hex="00E5"/>
  <outline>
    <contour>
      <point x="411" y="54" type="curve"/>
      <point x="402" y="75"/>
      <point x="395" y="126"/>
      <point x="395" y="185" type="curve"/>
      <point x="395" y="350" type="line" smooth="yes"/>
      <point x="395" y="393"/>
      <point x="361" y="413"/>
      <point x="318" y="413" type="curve" smooth="yes"/>
      <point x="283" y="413"/>
      <point x="242" y="402"/>
      <point x="242" y="367" type="curve" smooth="yes"/>
      <point x="242" y="363" type="line"/>
      <point x="46" y="363" type="line"/>
      <point x="45" y="368"/>
      <point x="45" y="372"/>
      <point x="45" y="377" type="curve" smooth="yes"/>
      <point x="47" y="537"/>
      <point x="321" y="540"/>
      <point x="321" y="540" type="curve" smooth="yes"/>
      <point x="466" y="540"/>
      <point x="594" y="498"/>
      <point x="594" y="368" type="curve" smooth="yes"/>
      <point x="594" y="162" type="line" smooth="yes"/>
      <point x="594" y="140"/>
      <point x="604" y="123"/>
      <point x="626" y="123" type="curve" smooth="yes"/>
      <point x="662" y="123" type="line"/>
      <point x="662" y="8" type="line"/>
      <point x="662" y="8"/>
      <point x="625" y="-12"/>
      <point x="558" y="-12" type="curve" smooth="yes"/>
      <point x="478" y="-12"/>
      <point x="429" y="14"/>
    </contour>
    <contour>
      <point x="339" y="11" type="line"/>
      <point x="306" y="-3"/>
      <point x="266" y="-12"/>
      <point x="216" y="-12" type="curve" smooth="yes"/>
      <point x="106" y="-12"/>
      <point x="30" y="26"/>
      <point x="30" y="136" type="curve" smooth="yes"/>
      <point x="30" y="281"/>
      <point x="142" y="318"/>
      <point x="339" y="323" type="curve"/>
      <point x="339" y="227" type="line"/>
      <point x="262" y="219"/>
      <point x="229" y="194"/>
      <point x="229" y="162" type="curve" smooth="yes"/>
      <point x="229" y="121"/>
      <point x="263" y="112"/>
      <point x="297" y="112" type="curve" smooth="yes"/>
      <point x="312" y="112"/>
      <point x="326" y="114"/>
      <point x="339" y="119" type="curve"/>
    </contour>
    <contour>
      <point x="293" y="585" type="line"/>
      <point x="253" y="601"/>
      <point x="225" y="639"/>
      <point x="225" y="685" type="curve" smooth="yes"/>
      <point x="225" y="731"/>
      <point x="253" y="770"/>
      <point x="293" y="786" type="curve"/>
      <point x="293" y="684" type="line"/>
    </contour>
    <contour>
      <point x="349" y="793" type="line"/>
      <point x="401" y="785"/>
      <point x="442" y="740"/>
      <point x="442" y="685" type="curve" smooth="yes"/>
      <point x="442" y="631"/>
      <point x="402" y="586"/>
      <point x="349" y="578" type="curve"/>
      <point x="349" y="648" type="line"/>
      <point x="364" y="654"/>
      <point x="374" y="668"/>
      <point x="374" y="686" type="curve" smooth="yes"/>
      <point x="374" y="703"/>
      <point x="364" y="717"/>
      <point x="349" y="722" type="curve"/>
    </contour>
  </outline>
</glyph>
<glyph name="ccedilla" format="1">
  <advance width="667"/>
  <unicode hex="00E7"/>
  <outline>
    <contour>
      <point x="333" y="540" type="curve" smooth="yes"/>
      <point x="494" y="540"/>
      <point x="624" y="476"/>
      <point x="624" y="315" type="curve"/>
      <point x="431" y="315" type="line"/>
      <point x="431" y="377"/>
      <point x="395" y="405"/>
      <point x="333" y="405" type="curve" smooth="yes"/>
      <point x="263" y="405"/>
      <point x="235" y="362"/>
      <point x="235" y="292" type="curve" smooth="yes"/>
      <point x="235" y="235" type="line" smooth="yes"/>
      <point x="235" y="165"/>
      <point x="264" y="123"/>
      <point x="337" y="123" type="curve" smooth="yes"/>
      <point x="402" y="123"/>
      <point x="439" y="150"/>
      <point x="439" y="215" type="curve"/>
      <point x="624" y="215" type="line"/>
      <point x="624" y="65"/>
      <point x="511" y="-2"/>
      <point x="365" y="-11" type="curve"/>
      <point x="363" y="-29" type="line"/>
      <point x="412" y="-34"/>
      <point x="456" y="-56"/>
      <point x="456" y="-118" type="curve" smooth="yes"/>
      <point x="456" y="-194"/>
      <point x="384" y="-211"/>
      <point x="337" y="-211" type="curve" smooth="yes"/>
      <point x="292" y="-211"/>
      <point x="241" y="-205"/>
      <point x="211" y="-195" type="curve"/>
      <point x="211" y="-141" type="line"/>
      <point x="211" y="-141"/>
      <point x="276" y="-149"/>
      <point x="329" y="-149" type="curve" smooth="yes"/>
      <point x="353" y="-149"/>
      <point x="369" y="-141"/>
      <point x="369" y="-118" type="curve" smooth="yes"/>
      <point x="369" y="-98"/>
      <point x="359" y="-86"/>
      <point x="331" y="-86" type="curve" smooth="yes"/>
      <point x="292" y="-86" type="line"/>
      <point x="304" y="-11" type="line"/>
      <point x="140" y="-1"/>
      <point x="36" y="89"/>
      <point x="36" y="264" type="curve" smooth="yes"/>
      <point x="36" y="449"/>
      <point x="153" y="540"/>
    </contour>
  </outline>
</glyph>
<glyph name="egrave" format="1">
  <advance width="667"/>
  <unicode hex="00E8"/>
  <outline>
    <contour>
      <point x="430" y="592" type="line"/>
      <point x="337" y="725" type="line"/>
      <point x="145" y="725" type="line"/>
      <point x="143" y="721" type="line"/>
      <point x="303" y="592" type="line"/>
    </contour>
    <contour>
      <point x="333" y="540" type="curve" smooth="yes"/>
      <point x="523" y="540"/>
      <point x="631" y="454"/>
      <point x="631" y="264" type="curve" smooth="yes"/>
      <point x="631" y="230" type="line"/>
      <point x="291" y="230" type="line"/>
      <point x="235" y="230" type="line"/>
      <point x="235" y="157"/>
      <point x="265" y="115"/>
      <point x="341" y="115" type="curve" smooth="yes"/>
      <point x="412" y="115"/>
      <point x="438" y="149"/>
      <point x="438" y="192" type="curve"/>
      <point x="631" y="192" type="line"/>
      <point x="631" y="66"/>
      <point x="535" y="-12"/>
      <point x="345" y="-12" type="curve" smooth="yes"/>
      <point x="155" y="-12"/>
      <point x="36" y="74"/>
      <point x="36" y="264" type="curve" smooth="yes"/>
      <point x="36" y="414"/>
      <point x="113" y="502"/>
      <point x="238" y="530" type="curve"/>
      <point x="235" y="230" type="line"/>
      <point x="291" y="230" type="line"/>
      <point x="292" y="324" type="line"/>
      <point x="430" y="324" type="line"/>
      <point x="430" y="379"/>
      <point x="397" y="413"/>
      <point x="341" y="413" type="curve" smooth="yes"/>
      <point x="322" y="413"/>
      <point x="306" y="410"/>
      <point x="293" y="405" type="curve"/>
      <point x="294" y="538" type="line"/>
      <point x="307" y="539"/>
      <point x="320" y="540"/>
    </contour>
  </outline>
</glyph>
<glyph name="eacute" format="1">
  <advance width="667"/>
  <unicode hex="00E9"/>
  <outline>
    <contour>
      <point x="524" y="721" type="line"/>
      <point x="522" y="725" type="line"/>
      <point x="330" y="725" type="line"/>
      <point x="237" y="592" type="line"/>
      <point x="365" y="592" type="line"/>
    </contour>
    <contour>
      <point x="333" y="540" type="curve" smooth="yes"/>
      <point x="523" y="540"/>
      <point x="631" y="454"/>
      <point x="631" y="264" type="curve" smooth="yes"/>
      <point x="631" y="230" type="line"/>
      <point x="291" y="230" type="line"/>
      <point x="235" y="230" type="line"/>
      <point x="235" y="157"/>
      <point x="265" y="115"/>
      <point x="341" y="115" type="curve" smooth="yes"/>
      <point x="412" y="115"/>
      <point x="438" y="149"/>
      <point x="438" y="192" type="curve"/>
      <point x="631" y="192" type="line"/>
      <point x="631" y="66"/>
      <point x="535" y="-12"/>
      <point x="345" y="-12" type="curve" smooth="yes"/>
      <point x="155" y="-12"/>
      <point x="36" y="74"/>
      <point x="36" y="264" type="curve" smooth="yes"/>
      <point x="36" y="413.17"/>
      <point x="112.069" y="501.225"/>
      <point x="235.897" y="529.738" type="curve"/>
      <point x="235" y="230" type="line"/>
      <point x="291" y="230" type="line"/>
      <point x="291.281" y="324" type="line"/>
      <point x="430" y="324" type="line"/>
      <point x="430" y="379"/>
      <point x="397" y="413"/>
      <point x="341" y="413" type="curve" smooth="yes"/>
      <point x="321.581" y="413"/>
      <point x="305.186" y="410.144"/>
      <point x="291.523" y="404.748" type="curve"/>
      <point x="291.923" y="538.327" type="line"/>
      <point x="305.212" y="539.443"/>
      <point x="318.913" y="540"/>
    </contour>
  </outline>
</glyph>
<glyph name="edieresis" format="1">
  <advance width="667"/>
  <unicode hex="00EB"/>
  <outline>
    <contour>
      <point x="299" y="725" type="line"/>
      <point x="147" y="725" type="line"/>
      <point x="147" y="586" type="line"/>
      <point x="299" y="586" type="line"/>
    </contour>
    <contour>
      <point x="520" y="725" type="line"/>
      <point x="368" y="725" type="line"/>
      <point x="368" y="586" type="line"/>
      <point x="520" y="586" type="line"/>
    </contour>
    <contour>
      <point x="333" y="540" type="curve" smooth="yes"/>
      <point x="523" y="540"/>
      <point x="631" y="454"/>
      <point x="631" y="264" type="curve" smooth="yes"/>
      <point x="631" y="230" type="line"/>
      <point x="291" y="230" type="line"/>
      <point x="235" y="230" type="line"/>
      <point x="235" y="157"/>
      <point x="265" y="115"/>
      <point x="341" y="115" type="curve" smooth="yes"/>
      <point x="412" y="115"/>
      <point x="438" y="149"/>
      <point x="438" y="192" type="curve"/>
      <point x="631" y="192" type="line"/>
      <point x="631" y="66"/>
      <point x="535" y="-12"/>
      <point x="345" y="-12" type="curve" smooth="yes"/>
      <point x="155" y="-12"/>
      <point x="36" y="74"/>
      <point x="36" y="264" type="curve" smooth="yes"/>
      <point x="36" y="412.81"/>
      <point x="111.701" y="500.799"/>
      <point x="235" y="529.53" type="curve"/>
      <point x="235" y="230" type="line"/>
      <point x="291" y="230" type="line"/>
      <point x="291" y="324" type="line"/>
      <point x="430" y="324" type="line"/>
      <point x="430" y="379"/>
      <point x="397" y="413"/>
      <point x="341" y="413" type="curve" smooth="yes"/>
      <point x="321.332" y="413"/>
      <point x="304.767" y="410.07"/>
      <point x="291" y="404.54" type="curve"/>
      <point x="291" y="538.248" type="line"/>
      <point x="304.578" y="539.417"/>
      <point x="318.587" y="540"/>
    </contour>
  </outline>
</glyph>
<glyph name="igrave" format="1">
  <advance width="333"/>
  <unicode hex="00EC"/>
  <outline>
    <contour>
      <point x="266" y="0" type="line"/>
      <point x="67" y="0" type="line"/>
      <point x="67" y="528" type="line"/>
      <point x="266" y="528" type="line"/>
    </contour>
    <contour>
      <point x="263" y="592" type="line"/>
      <point x="136" y="592" type="line"/>
      <point x="-24" y="721" type="line"/>
      <point x="-22" y="725" type="line"/>
      <point x="170" y="725" type="line"/>
    </contour>
  </outline>
</glyph>
<glyph name="idieresis" format="1">
  <advance width="333"/>
  <unicode hex="00EF"/>
  <outline>
    <contour>
      <point x="266" y="528" type="line"/>
      <point x="266" y="0" type="line"/>
      <point x="67" y="0" type="line"/>
      <point x="67" y="528" type="line"/>
    </contour>
    <contour>
      <point x="353" y="725" type="line"/>
      <point x="353" y="586" type="line"/>
      <point x="201" y="586" type="line"/>
      <point x="201" y="725" type="line"/>
    </contour>
    <contour>
      <point x="132" y="725" type="line"/>
      <point x="132" y="586" type="line"/>
      <point x="-20" y="586" type="line"/>
      <point x="-20" y="725" type="line"/>
    </contour>
  </outline>
</glyph>
<glyph name="eth" format="1">
  <advance width="667"/>
  <unicode hex="00F0"/>
  <outline>
    <contour>
      <point x="165" y="725" type="line"/>
      <point x="363" y="725" type="line"/>
      <point x="363" y="725"/>
      <point x="392" y="710"/>
      <point x="431" y="678" type="curve"/>
      <point x="570" y="694" type="line"/>
      <point x="570" y="616" type="line"/>
      <point x="502" y="608" type="line"/>
      <point x="567" y="532"/>
      <point x="631" y="419"/>
      <point x="631" y="264" type="curve" smooth="yes"/>
      <point x="631" y="79"/>
      <point x="513" y="-12"/>
      <point x="333" y="-12" type="curve" smooth="yes"/>
      <point x="153" y="-12"/>
      <point x="36" y="79"/>
      <point x="36" y="264" type="curve" smooth="yes"/>
      <point x="36" y="418"/>
      <point x="136" y="524"/>
      <point x="298" y="524" type="curve" smooth="yes"/>
      <point x="318" y="524"/>
      <point x="343" y="522"/>
      <point x="364" y="516" type="curve"/>
      <point x="348" y="541"/>
      <point x="331" y="564"/>
      <point x="314" y="586" type="curve"/>
      <point x="149" y="567" type="line"/>
      <point x="149" y="645" type="line"/>
      <point x="247" y="656" type="line"/>
      <point x="213" y="687"/>
      <point x="183" y="709"/>
      <point x="164" y="721" type="curve"/>
    </contour>
    <contour>
      <point x="333" y="405" type="curve" smooth="yes"/>
      <point x="263" y="405"/>
      <point x="235" y="362"/>
      <point x="235" y="292" type="curve" smooth="yes"/>
      <point x="235" y="235" type="line" smooth="yes"/>
      <point x="235" y="165"/>
      <point x="263" y="123"/>
      <point x="333" y="123" type="curve" smooth="yes"/>
      <point x="403" y="123"/>
      <point x="432" y="165"/>
      <point x="432" y="235" type="curve" smooth="yes"/>
      <point x="432" y="292" type="line" smooth="yes"/>
      <point x="432" y="362"/>
      <point x="403" y="405"/>
    </contour>
  </outline>
</glyph>
<glyph name="ntilde" format="1">
  <advance width="667"/>
  <unicode hex="00F1"/>
  <outline>
    <contour>
      <point x="424" y="540" type="curve" smooth="yes"/>
      <point x="549" y="540"/>
      <point x="608" y="467"/>
      <point x="608" y="342" type="curve" smooth="yes"/>
      <point x="608" y="0" type="line"/>
      <point x="409" y="0" type="line"/>
      <point x="409" y="318" type="line" smooth="yes"/>
      <point x="409" y="362"/>
      <point x="386" y="393"/>
      <point x="342" y="393" type="curve" smooth="yes"/>
      <point x="292" y="393"/>
      <point x="259" y="355"/>
      <point x="259" y="310" type="curve" smooth="yes"/>
      <point x="259" y="0" type="line"/>
      <point x="60" y="0" type="line"/>
      <point x="60" y="528" type="line"/>
      <point x="223" y="528" type="line"/>
      <point x="236" y="448" type="line"/>
      <point x="277" y="504"/>
      <point x="349" y="540"/>
    </contour>
    <contour>
      <point x="475" y="725" type="curve"/>
      <point x="556" y="725" type="line"/>
      <point x="556" y="653"/>
      <point x="500" y="582"/>
      <point x="416" y="582" type="curve" smooth="yes"/>
      <point x="352" y="582"/>
      <point x="296" y="622"/>
      <point x="243" y="622" type="curve" smooth="yes"/>
      <point x="217" y="622"/>
      <point x="200" y="605"/>
      <point x="192" y="582" type="curve"/>
      <point x="111" y="582" type="line"/>
      <point x="111" y="654"/>
      <point x="167" y="725"/>
      <point x="251" y="725" type="curve" smooth="yes"/>
      <point x="315" y="725"/>
      <point x="371" y="685"/>
      <point x="424" y="685" type="curve" smooth="yes"/>
      <point x="450" y="685"/>
      <point x="467" y="702"/>
    </contour>
  </outline>
</glyph>
<glyph name="otilde" format="1">
  <advance width="667"/>
  <unicode hex="00F5"/>
  <outline>
    <contour>
      <point x="333" y="540" type="curve" smooth="yes"/>
      <point x="513" y="540"/>
      <point x="631" y="449"/>
      <point x="631" y="264" type="curve" smooth="yes"/>
      <point x="631" y="79"/>
      <point x="513" y="-12"/>
      <point x="333" y="-12" type="curve" smooth="yes"/>
      <point x="153" y="-12"/>
      <point x="36" y="79"/>
      <point x="36" y="264" type="curve" smooth="yes"/>
      <point x="36" y="449"/>
      <point x="153" y="540"/>
    </contour>
    <contour>
      <point x="333" y="405" type="curve" smooth="yes"/>
      <point x="263" y="405"/>
      <point x="235" y="362"/>
      <point x="235" y="292" type="curve" smooth="yes"/>
      <point x="235" y="235" type="line" smooth="yes"/>
      <point x="235" y="165"/>
      <point x="263" y="123"/>
      <point x="333" y="123" type="curve" smooth="yes"/>
      <point x="403" y="123"/>
      <point x="432" y="165"/>
      <point x="432" y="235" type="curve" smooth="yes"/>
      <point x="432" y="292" type="line" smooth="yes"/>
      <point x="432" y="362"/>
      <point x="403" y="405"/>
    </contour>
    <contour>
      <point x="475" y="725" type="curve"/>
      <point x="556" y="725" type="line"/>
      <point x="556" y="653"/>
      <point x="500" y="582"/>
      <point x="416" y="582" type="curve" smooth="yes"/>
      <point x="352" y="582"/>
      <point x="296" y="622"/>
      <point x="243" y="622" type="curve" smooth="yes"/>
      <point x="217" y="622"/>
      <point x="200" y="605"/>
      <point x="192" y="582" type="curve"/>
      <point x="111" y="582" type="line"/>
      <point x="111" y="654"/>
      <point x="167" y="725"/>
      <point x="251" y="725" type="curve" smooth="yes"/>
      <point x="315" y="725"/>
      <point x="371" y="685"/>
      <point x="424" y="685" type="curve" smooth="yes"/>
      <point x="450" y="685"/>
      <point x="467" y="702"/>
    </contour>
  </outline>
</glyph>
<glyph name="divide" format="1">
  <advance width="660"/>
  <unicode hex="00F7"/>
  <outline>
    <contour>
      <point x="594" y="328" type="line"/>
      <point x="594" y="196" type="line"/>
      <point x="66" y="196" type="line"/>
      <point x="66" y="328" type="line"/>
    </contour>
    <contour>
      <point x="397" y="146" type="line"/>
      <point x="397" y="15" type="line"/>
      <point x="266" y="15" type="line"/>
      <point x="266" y="146" type="line"/>
    </contour>
    <contour>
      <point x="397" y="508" type="line"/>
      <point x="397" y="377" type="line"/>
      <point x="266" y="377" type="line"/>
      <point x="266" y="508" type="line"/>
    </contour>
  </outline>
</glyph>
<glyph name="oslash" format="1">
  <advance width="667"/>
  <unicode hex="00F8"/>
  <outline>
    <contour>
      <point x="622" y="559" type="line"/>
      <point x="551" y="470" type="line"/>
      <point x="602" y="424"/>
      <point x="631" y="355"/>
      <point x="631" y="264" type="curve" smooth="yes"/>
      <point x="631" y="79"/>
      <point x="513" y="-12"/>
      <point x="333" y="-12" type="curve" smooth="yes"/>
      <point x="277" y="-12"/>
      <point x="227" y="-3"/>
      <point x="185" y="14" type="curve"/>
      <point x="138" y="-45" type="line"/>
      <point x="46" y="-45" type="line"/>
      <point x="123" y="51" type="line"/>
      <point x="68" y="97"/>
      <point x="36" y="168"/>
      <point x="36" y="264" type="curve" smooth="yes"/>
      <point x="36" y="449"/>
      <point x="153" y="540"/>
      <point x="333" y="540" type="curve" smooth="yes"/>
      <point x="393" y="540"/>
      <point x="446" y="530"/>
      <point x="490" y="509" type="curve"/>
      <point x="530" y="559" type="line"/>
    </contour>
    <contour>
      <point x="430" y="320" type="curve"/>
      <point x="281" y="134" type="line"/>
      <point x="295" y="127"/>
      <point x="312" y="123"/>
      <point x="333" y="123" type="curve" smooth="yes"/>
      <point x="403" y="123"/>
      <point x="432" y="165"/>
      <point x="432" y="235" type="curve" smooth="yes"/>
      <point x="432" y="292" type="line" smooth="yes"/>
      <point x="432" y="302"/>
      <point x="431" y="311"/>
    </contour>
    <contour>
      <point x="333" y="405" type="curve" smooth="yes"/>
      <point x="263" y="405"/>
      <point x="235" y="362"/>
      <point x="235" y="292" type="curve" smooth="yes"/>
      <point x="235" y="235" type="line" smooth="yes"/>
      <point x="235" y="220"/>
      <point x="236" y="207"/>
      <point x="238" y="195" type="curve"/>
      <point x="393" y="389" type="line"/>
      <point x="378" y="399"/>
      <point x="358" y="405"/>
    </contour>
  </outline>
</glyph>
<glyph name="yacute" format="1">
  <advance width="611"/>
  <unicode hex="00FD"/>
  <outline>
    <contour>
      <point x="611" y="528" type="line"/>
      <point x="423" y="16" type="line" smooth="yes"/>
      <point x="375" y="-115"/>
      <point x="310" y="-210"/>
      <point x="156" y="-210" type="curve" smooth="yes"/>
      <point x="108" y="-210"/>
      <point x="66" y="-201"/>
      <point x="41" y="-192" type="curve"/>
      <point x="41" y="-73" type="line"/>
      <point x="121" y="-73" type="line" smooth="yes"/>
      <point x="191" y="-73"/>
      <point x="205" y="-26"/>
      <point x="210" y="0" type="curve"/>
      <point x="0" y="528" type="line"/>
      <point x="214" y="528" type="line"/>
      <point x="315" y="177" type="line"/>
      <point x="322" y="177" type="line"/>
      <point x="415" y="528" type="line"/>
    </contour>
    <contour>
      <point x="497" y="721" type="line"/>
      <point x="337" y="592" type="line"/>
      <point x="209" y="592" type="line"/>
      <point x="302" y="725" type="line"/>
      <point x="495" y="725" type="line"/>
    </contour>
  </outline>
</glyph>
<glyph name="thorn" format="1">
  <advance width="667"/>
  <unicode hex="00FE"/>
  <outline>
    <contour>
      <point x="260" y="725" type="line"/>
      <point x="260" y="478" type="line"/>
      <point x="298" y="520"/>
      <point x="348" y="540"/>
      <point x="408" y="540" type="curve" smooth="yes"/>
      <point x="548" y="540"/>
      <point x="631" y="449"/>
      <point x="631" y="263" type="curve" smooth="yes"/>
      <point x="631" y="79"/>
      <point x="548" y="-12"/>
      <point x="408" y="-12" type="curve" smooth="yes"/>
      <point x="348" y="-12"/>
      <point x="298" y="7"/>
      <point x="260" y="48" type="curve"/>
      <point x="260" y="-197" type="line"/>
      <point x="61" y="-197" type="line"/>
      <point x="61" y="725" type="line"/>
    </contour>
    <contour>
      <point x="346" y="393" type="curve" smooth="yes"/>
      <point x="284" y="393"/>
      <point x="258" y="343"/>
      <point x="258" y="281" type="curve" smooth="yes"/>
      <point x="258" y="248" type="line" smooth="yes"/>
      <point x="258" y="186"/>
      <point x="284" y="135"/>
      <point x="346" y="135" type="curve" smooth="yes"/>
      <point x="408" y="135"/>
      <point x="432" y="176"/>
      <point x="432" y="238" type="curve" smooth="yes"/>
      <point x="432" y="291" type="line" smooth="yes"/>
      <point x="432" y="353"/>
      <point x="408" y="393"/>
    </contour>
  </outline>
</glyph>
<glyph name="ydieresis" format="1">
  <advance width="611"/>
  <unicode hex="00FF"/>
  <outline>
    <contour>
      <point x="611" y="528" type="line"/>
      <point x="423" y="16" type="line" smooth="yes"/>
      <point x="375" y="-115"/>
      <point x="310" y="-210"/>
      <point x="156" y="-210" type="curve" smooth="yes"/>
      <point x="108" y="-210"/>
      <point x="66" y="-201"/>
      <point x="41" y="-192" type="curve"/>
      <point x="41" y="-73" type="line"/>
      <point x="121" y="-73" type="line" smooth="yes"/>
      <point x="191" y="-73"/>
      <point x="205" y="-26"/>
      <point x="210" y="0" type="curve"/>
      <point x="0" y="528" type="line"/>
      <point x="214" y="528" type="line"/>
      <point x="315" y="177" type="line"/>
      <point x="322" y="177" type="line"/>
      <point x="415" y="528" type="line"/>
    </contour>
    <contour>
      <point x="492" y="725" type="line"/>
      <point x="492" y="586" type="line"/>
      <point x="340" y="586" type="line"/>
      <point x="340" y="725" type="line"/>
    </contour>
    <contour>
      <point x="271" y="725" type="line"/>
      <point x="271" y="586" type="line"/>
      <point x="120" y="586" type="line"/>
      <point x="120" y="725" type="line"/>
    </contour>
  </outline>
</glyph>
<glyph name="Amacron" format="1">
  <advance width="778"/>
  <unicode hex="0100"/>
  <outline>
    <contour>
      <point x="518" y="688" type="line"/>
      <point x="769" y="0" type="line"/>
      <point x="535" y="0" type="line"/>
      <point x="506" y="97" type="line"/>
      <point x="265" y="97" type="line"/>
      <point x="236" y="0" type="line"/>
      <point x="10" y="0" type="line"/>
      <point x="261" y="688" type="line"/>
    </contour>
    <contour>
      <point x="388" y="496" type="line"/>
      <point x="384" y="496" type="line"/>
      <point x="311" y="251" type="line"/>
      <point x="460" y="251" type="line"/>
    </contour>
    <contour>
      <point x="547" y="865" type="line"/>
      <point x="547" y="765" type="line"/>
      <point x="231" y="765" type="line"/>
      <point x="231" y="865" type="line"/>
    </contour>
  </outline>
</glyph>
<glyph name="amacron" format="1">
  <advance width="667"/>
  <unicode hex="0101"/>
  <outline>
    <contour>
      <point x="321" y="540" type="curve" smooth="yes"/>
      <point x="466" y="540"/>
      <point x="594" y="498"/>
      <point x="594" y="368" type="curve" smooth="yes"/>
      <point x="594" y="162" type="line" smooth="yes"/>
      <point x="594" y="140"/>
      <point x="604" y="123"/>
      <point x="626" y="123" type="curve" smooth="yes"/>
      <point x="662" y="123" type="line"/>
      <point x="662" y="8" type="line"/>
      <point x="662" y="8"/>
      <point x="625" y="-12"/>
      <point x="558" y="-12" type="curve" smooth="yes"/>
      <point x="478" y="-12"/>
      <point x="429" y="14"/>
      <point x="411" y="54" type="curve"/>
      <point x="367" y="19"/>
      <point x="308" y="-12"/>
      <point x="216" y="-12" type="curve" smooth="yes"/>
      <point x="106" y="-12"/>
      <point x="30" y="26"/>
      <point x="30" y="136" type="curve" smooth="yes"/>
      <point x="30" y="294"/>
      <point x="164" y="324"/>
      <point x="395" y="324" type="curve"/>
      <point x="395" y="350" type="line" smooth="yes"/>
      <point x="395" y="393"/>
      <point x="361" y="413"/>
      <point x="318" y="413" type="curve" smooth="yes"/>
      <point x="283" y="413"/>
      <point x="242" y="402"/>
      <point x="242" y="367" type="curve" smooth="yes"/>
      <point x="242" y="363" type="line"/>
      <point x="46" y="363" type="line"/>
      <point x="45" y="368"/>
      <point x="45" y="372"/>
      <point x="45" y="377" type="curve" smooth="yes"/>
      <point x="45" y="474"/>
      <point x="140" y="540"/>
    </contour>
    <contour>
      <point x="395" y="185" type="curve" smooth="yes"/>
      <point x="395" y="230" type="line"/>
      <point x="277" y="230"/>
      <point x="229" y="201"/>
      <point x="229" y="162" type="curve" smooth="yes"/>
      <point x="229" y="121"/>
      <point x="263" y="112"/>
      <point x="297" y="112" type="curve" smooth="yes"/>
      <point x="348" y="112"/>
      <point x="395" y="142"/>
    </contour>
    <contour>
      <point x="492" y="705" type="line"/>
      <point x="492" y="605" type="line"/>
      <point x="175" y="605" type="line"/>
      <point x="175" y="705" type="line"/>
    </contour>
  </outline>
</glyph>
<glyph name="Abreve" format="1">
  <advance width="778"/>
  <unicode hex="0102"/>
  <outline>
    <contour>
      <point x="518" y="688" type="line"/>
      <point x="769" y="0" type="line"/>
      <point x="535" y="0" type="line"/>
      <point x="506" y="97" type="line"/>
      <point x="265" y="97" type="line"/>
      <point x="236" y="0" type="line"/>
      <point x="10" y="0" type="line"/>
      <point x="261" y="688" type="line"/>
    </contour>
    <contour>
      <point x="388" y="496" type="line"/>
      <point x="384" y="496" type="line"/>
      <point x="311" y="251" type="line"/>
      <point x="460" y="251" type="line"/>
    </contour>
    <contour>
      <point x="479" y="885" type="curve"/>
      <point x="574" y="885" type="line"/>
      <point x="574" y="818"/>
      <point x="502" y="741"/>
      <point x="389" y="741" type="curve" smooth="yes"/>
      <point x="273" y="741"/>
      <point x="205" y="818"/>
      <point x="205" y="885" type="curve"/>
      <point x="301" y="885" type="line"/>
      <point x="305" y="864"/>
      <point x="340" y="835"/>
      <point x="389" y="835" type="curve" smooth="yes"/>
      <point x="438" y="835"/>
      <point x="475" y="864"/>
    </contour>
  </outline>
</glyph>
<glyph name="abreve" format="1">
  <advance width="667"/>
  <unicode hex="0103"/>
  <outline>
    <contour>
      <point x="321" y="540" type="curve" smooth="yes"/>
      <point x="466" y="540"/>
      <point x="594" y="498"/>
      <point x="594" y="368" type="curve" smooth="yes"/>
      <point x="594" y="162" type="line" smooth="yes"/>
      <point x="594" y="140"/>
      <point x="604" y="123"/>
      <point x="626" y="123" type="curve" smooth="yes"/>
      <point x="662" y="123" type="line"/>
      <point x="662" y="8" type="line"/>
      <point x="662" y="8"/>
      <point x="625" y="-12"/>
      <point x="558" y="-12" type="curve" smooth="yes"/>
      <point x="478" y="-12"/>
      <point x="429" y="14"/>
      <point x="411" y="54" type="curve"/>
      <point x="367" y="19"/>
      <point x="308" y="-12"/>
      <point x="216" y="-12" type="curve" smooth="yes"/>
      <point x="106" y="-12"/>
      <point x="30" y="26"/>
      <point x="30" y="136" type="curve" smooth="yes"/>
      <point x="30" y="294"/>
      <point x="164" y="324"/>
      <point x="395" y="324" type="curve"/>
      <point x="395" y="350" type="line" smooth="yes"/>
      <point x="395" y="393"/>
      <point x="361" y="413"/>
      <point x="318" y="413" type="curve" smooth="yes"/>
      <point x="283" y="413"/>
      <point x="242" y="402"/>
      <point x="242" y="367" type="curve" smooth="yes"/>
      <point x="242" y="363" type="line"/>
      <point x="46" y="363" type="line"/>
      <point x="45" y="368"/>
      <point x="45" y="372"/>
      <point x="45" y="377" type="curve" smooth="yes"/>
      <point x="45" y="474"/>
      <point x="140" y="540"/>
    </contour>
    <contour>
      <point x="395" y="185" type="curve" smooth="yes"/>
      <point x="395" y="230" type="line"/>
      <point x="277" y="230"/>
      <point x="229" y="201"/>
      <point x="229" y="162" type="curve" smooth="yes"/>
      <point x="229" y="121"/>
      <point x="263" y="112"/>
      <point x="297" y="112" type="curve" smooth="yes"/>
      <point x="348" y="112"/>
      <point x="395" y="142"/>
    </contour>
    <contour>
      <point x="423" y="725" type="curve"/>
      <point x="518" y="725" type="line"/>
      <point x="518" y="658"/>
      <point x="447" y="581"/>
      <point x="333" y="581" type="curve" smooth="yes"/>
      <point x="218" y="581"/>
      <point x="149" y="658"/>
      <point x="149" y="725" type="curve"/>
      <point x="245" y="725" type="line"/>
      <point x="247" y="715"/>
      <point x="257" y="702"/>
      <point x="272" y="692" type="curve" smooth="yes"/>
      <point x="288" y="682"/>
      <point x="309" y="675"/>
      <point x="333" y="675" type="curve" smooth="yes"/>
      <point x="383" y="675"/>
      <point x="419" y="704"/>
    </contour>
  </outline>
</glyph>
<glyph name="Aogonek" format="1">
  <advance width="778"/>
  <unicode hex="0104"/>
  <outline>
    <contour>
      <point x="518" y="688" type="line"/>
      <point x="769" y="0" type="line"/>
      <point x="639" y="0" type="line"/>
      <point x="631" y="-16"/>
      <point x="623" y="-43"/>
      <point x="623" y="-69" type="curve" smooth="yes"/>
      <point x="623" y="-95"/>
      <point x="638" y="-120"/>
      <point x="683" y="-120" type="curve" smooth="yes"/>
      <point x="725" y="-120" type="line"/>
      <point x="725" y="-196" type="line"/>
      <point x="694" y="-206"/>
      <point x="662" y="-211"/>
      <point x="629" y="-211" type="curve" smooth="yes"/>
      <point x="564" y="-211"/>
      <point x="502" y="-179"/>
      <point x="502" y="-97" type="curve" smooth="yes"/>
      <point x="502" y="-55"/>
      <point x="522" y="-25"/>
      <point x="542" y="0" type="curve"/>
      <point x="535" y="0" type="line"/>
      <point x="506" y="97" type="line"/>
      <point x="265" y="97" type="line"/>
      <point x="236" y="0" type="line"/>
      <point x="10" y="0" type="line"/>
      <point x="261" y="688" type="line"/>
    </contour>
    <contour>
      <point x="388" y="496" type="line"/>
      <point x="384" y="496" type="line"/>
      <point x="311" y="251" type="line"/>
      <point x="460" y="251" type="line"/>
    </contour>
  </outline>
</glyph>
<glyph name="aogonek" format="1">
  <advance width="667"/>
  <unicode hex="0105"/>
  <outline>
    <contour>
      <point x="321" y="540" type="curve" smooth="yes"/>
      <point x="466" y="540"/>
      <point x="594" y="498"/>
      <point x="594" y="368" type="curve" smooth="yes"/>
      <point x="594" y="162" type="line" smooth="yes"/>
      <point x="594" y="140"/>
      <point x="604" y="123"/>
      <point x="626" y="123" type="curve" smooth="yes"/>
      <point x="662" y="123" type="line"/>
      <point x="662" y="8" type="line"/>
      <point x="662" y="8"/>
      <point x="625" y="-12"/>
      <point x="558" y="-12" type="curve"/>
      <point x="552" y="-28"/>
      <point x="547" y="-49"/>
      <point x="547" y="-69" type="curve" smooth="yes"/>
      <point x="547" y="-95"/>
      <point x="562" y="-120"/>
      <point x="607" y="-120" type="curve" smooth="yes"/>
      <point x="649" y="-120" type="line"/>
      <point x="649" y="-196" type="line"/>
      <point x="619" y="-206"/>
      <point x="586" y="-211"/>
      <point x="554" y="-211" type="curve" smooth="yes"/>
      <point x="489" y="-211"/>
      <point x="427" y="-179"/>
      <point x="427" y="-97" type="curve" smooth="yes"/>
      <point x="427" y="-53"/>
      <point x="449" y="-23"/>
      <point x="469" y="2" type="curve"/>
      <point x="440" y="14"/>
      <point x="421" y="32"/>
      <point x="411" y="54" type="curve"/>
      <point x="367" y="19"/>
      <point x="308" y="-12"/>
      <point x="216" y="-12" type="curve" smooth="yes"/>
      <point x="106" y="-12"/>
      <point x="30" y="26"/>
      <point x="30" y="136" type="curve" smooth="yes"/>
      <point x="30" y="294"/>
      <point x="164" y="324"/>
      <point x="395" y="324" type="curve"/>
      <point x="395" y="350" type="line" smooth="yes"/>
      <point x="395" y="393"/>
      <point x="361" y="413"/>
      <point x="318" y="413" type="curve" smooth="yes"/>
      <point x="283" y="413"/>
      <point x="242" y="402"/>
      <point x="242" y="367" type="curve" smooth="yes"/>
      <point x="242" y="363" type="line"/>
      <point x="46" y="363" type="line"/>
      <point x="45" y="368"/>
      <point x="45" y="372"/>
      <point x="45" y="377" type="curve" smooth="yes"/>
      <point x="45" y="474"/>
      <point x="140" y="540"/>
    </contour>
    <contour>
      <point x="395" y="185" type="curve" smooth="yes"/>
      <point x="395" y="230" type="line"/>
      <point x="277" y="230"/>
      <point x="229" y="201"/>
      <point x="229" y="162" type="curve" smooth="yes"/>
      <point x="229" y="121"/>
      <point x="263" y="112"/>
      <point x="297" y="112" type="curve" smooth="yes"/>
      <point x="348" y="112"/>
      <point x="395" y="142"/>
    </contour>
  </outline>
</glyph>
<glyph name="cacute" format="1">
  <advance width="667"/>
  <unicode hex="0107"/>
  <outline>
    <contour>
      <point x="333" y="540" type="curve" smooth="yes"/>
      <point x="494" y="540"/>
      <point x="624" y="476"/>
      <point x="624" y="315" type="curve"/>
      <point x="431" y="315" type="line"/>
      <point x="431" y="377"/>
      <point x="395" y="405"/>
      <point x="333" y="405" type="curve" smooth="yes"/>
      <point x="263" y="405"/>
      <point x="235" y="362"/>
      <point x="235" y="292" type="curve" smooth="yes"/>
      <point x="235" y="235" type="line" smooth="yes"/>
      <point x="235" y="165"/>
      <point x="264" y="123"/>
      <point x="337" y="123" type="curve" smooth="yes"/>
      <point x="402" y="123"/>
      <point x="439" y="150"/>
      <point x="439" y="215" type="curve"/>
      <point x="624" y="215" type="line"/>
      <point x="624" y="54"/>
      <point x="494" y="-12"/>
      <point x="333" y="-12" type="curve" smooth="yes"/>
      <point x="153" y="-12"/>
      <point x="36" y="79"/>
      <point x="36" y="264" type="curve" smooth="yes"/>
      <point x="36" y="449"/>
      <point x="153" y="540"/>
    </contour>
    <contour>
      <point x="524" y="721" type="line"/>
      <point x="365" y="592" type="line"/>
      <point x="237" y="592" type="line"/>
      <point x="330" y="725" type="line"/>
      <point x="522" y="725" type="line"/>
    </contour>
  </outline>
</glyph>
<glyph name="Ccaron" format="1">
  <advance width="778"/>
  <unicode hex="010C"/>
  <outline>
    <contour>
      <point x="402" y="700" type="curve" smooth="yes"/>
      <point x="602" y="700"/>
      <point x="733" y="597"/>
      <point x="733" y="405" type="curve"/>
      <point x="522" y="405" type="line"/>
      <point x="522" y="484"/>
      <point x="480" y="535"/>
      <point x="401" y="535" type="curve" smooth="yes"/>
      <point x="307" y="535"/>
      <point x="271" y="470"/>
      <point x="271" y="376" type="curve" smooth="yes"/>
      <point x="271" y="312" type="line" smooth="yes"/>
      <point x="271" y="218"/>
      <point x="309" y="153"/>
      <point x="399" y="153" type="curve" smooth="yes"/>
      <point x="486" y="153"/>
      <point x="529" y="200"/>
      <point x="529" y="279" type="curve"/>
      <point x="733" y="279" type="line"/>
      <point x="733" y="90"/>
      <point x="612" y="-12"/>
      <point x="402" y="-12" type="curve" smooth="yes"/>
      <point x="167" y="-12"/>
      <point x="45" y="109"/>
      <point x="45" y="344" type="curve" smooth="yes"/>
      <point x="45" y="579"/>
      <point x="167" y="700"/>
    </contour>
    <contour>
      <point x="592" y="885" type="line"/>
      <point x="453" y="740" type="line"/>
      <point x="325" y="740" type="line"/>
      <point x="186" y="885" type="line"/>
      <point x="314" y="885" type="line"/>
      <point x="388" y="808" type="line"/>
      <point x="462" y="885" type="line"/>
    </contour>
  </outline>
</glyph>
<glyph name="Dcaron" format="1">
  <advance width="778"/>
  <unicode hex="010E"/>
  <outline>
    <contour>
      <point x="74" y="688" type="line"/>
      <point x="372" y="688" type="line" smooth="yes"/>
      <point x="607" y="688"/>
      <point x="733" y="579"/>
      <point x="733" y="344" type="curve" smooth="yes"/>
      <point x="733" y="109"/>
      <point x="607" y="0"/>
      <point x="372" y="0" type="curve" smooth="yes"/>
      <point x="74" y="0" type="line"/>
    </contour>
    <contour>
      <point x="368" y="523" type="curve" smooth="yes"/>
      <point x="295" y="523" type="line"/>
      <point x="295" y="165" type="line"/>
      <point x="368" y="165" type="line" smooth="yes"/>
      <point x="465" y="165"/>
      <point x="507" y="220"/>
      <point x="507" y="314" type="curve" smooth="yes"/>
      <point x="507" y="374" type="line" smooth="yes"/>
      <point x="507" y="468"/>
      <point x="465" y="523"/>
    </contour>
    <contour>
      <point x="556" y="885" type="line"/>
      <point x="417" y="740" type="line"/>
      <point x="289" y="740" type="line"/>
      <point x="149" y="885" type="line"/>
      <point x="277" y="885" type="line"/>
      <point x="352" y="808" type="line"/>
      <point x="426" y="885" type="line"/>
    </contour>
  </outline>
</glyph>
<glyph name="dcaron" format="1">
  <advance width="844"/>
  <unicode hex="010F"/>
  <outline>
    <contour>
      <point x="606" y="725" type="line"/>
      <point x="606" y="0" type="line"/>
      <point x="444" y="0" type="line"/>
      <point x="427" y="75" type="line"/>
      <point x="388" y="16"/>
      <point x="330" y="-12"/>
      <point x="259" y="-12" type="curve" smooth="yes"/>
      <point x="119" y="-12"/>
      <point x="36" y="79"/>
      <point x="36" y="265" type="curve" smooth="yes"/>
      <point x="36" y="449"/>
      <point x="119" y="540"/>
      <point x="259" y="540" type="curve" smooth="yes"/>
      <point x="318" y="540"/>
      <point x="369" y="520"/>
      <point x="407" y="479" type="curve"/>
      <point x="407" y="725" type="line"/>
    </contour>
    <contour>
      <point x="321" y="393" type="curve" smooth="yes"/>
      <point x="259" y="393"/>
      <point x="235" y="352"/>
      <point x="235" y="290" type="curve" smooth="yes"/>
      <point x="235" y="237" type="line" smooth="yes"/>
      <point x="235" y="175"/>
      <point x="259" y="135"/>
      <point x="321" y="135" type="curve" smooth="yes"/>
      <point x="383" y="135"/>
      <point x="409" y="185"/>
      <point x="409" y="247" type="curve" smooth="yes"/>
      <point x="409" y="280" type="line" smooth="yes"/>
      <point x="409" y="342"/>
      <point x="383" y="393"/>
    </contour>
    <contour>
      <point x="785" y="688" type="line"/>
      <point x="785" y="580" type="line"/>
      <point x="731" y="481" type="line"/>
      <point x="664" y="481" type="line"/>
      <point x="705" y="573" type="line"/>
      <point x="655" y="573" type="line"/>
      <point x="655" y="688" type="line"/>
    </contour>
  </outline>
</glyph>
<glyph name="Dcroat" format="1">
  <advance width="778"/>
  <unicode hex="0110"/>
  <outline>
    <contour>
      <point x="1" y="304" type="line"/>
      <point x="1" y="402" type="line"/>
      <point x="74" y="402" type="line"/>
      <point x="74" y="688" type="line"/>
      <point x="372" y="688" type="line" smooth="yes"/>
      <point x="607" y="688"/>
      <point x="733" y="579"/>
      <point x="733" y="344" type="curve" smooth="yes"/>
      <point x="733" y="109"/>
      <point x="607" y="0"/>
      <point x="372" y="0" type="curve" smooth="yes"/>
      <point x="74" y="0" type="line"/>
      <point x="74" y="304" type="line"/>
    </contour>
    <contour>
      <point x="392" y="304" type="line"/>
      <point x="295" y="304" type="line"/>
      <point x="295" y="165" type="line"/>
      <point x="368" y="165" type="line" smooth="yes"/>
      <point x="465" y="165"/>
      <point x="507" y="220"/>
      <point x="507" y="314" type="curve" smooth="yes"/>
      <point x="507" y="374" type="line" smooth="yes"/>
      <point x="507" y="468"/>
      <point x="465" y="523"/>
      <point x="368" y="523" type="curve" smooth="yes"/>
      <point x="295" y="523" type="line"/>
      <point x="295" y="402" type="line"/>
      <point x="392" y="402" type="line"/>
    </contour>
  </outline>
</glyph>
<glyph name="dcroat" format="1">
  <advance width="667"/>
  <unicode hex="0111"/>
  <outline>
    <contour>
      <point x="606" y="725" type="line"/>
      <point x="606" y="668" type="line"/>
      <point x="667" y="668" type="line"/>
      <point x="667" y="575" type="line"/>
      <point x="606" y="575" type="line"/>
      <point x="606" y="0" type="line"/>
      <point x="444" y="0" type="line"/>
      <point x="427" y="75" type="line"/>
      <point x="388" y="16"/>
      <point x="330" y="-12"/>
      <point x="259" y="-12" type="curve" smooth="yes"/>
      <point x="119" y="-12"/>
      <point x="36" y="79"/>
      <point x="36" y="265" type="curve" smooth="yes"/>
      <point x="36" y="449"/>
      <point x="119" y="540"/>
      <point x="259" y="540" type="curve" smooth="yes"/>
      <point x="318" y="540"/>
      <point x="369" y="520"/>
      <point x="407" y="479" type="curve"/>
      <point x="407" y="575" type="line"/>
      <point x="336" y="575" type="line"/>
      <point x="336" y="668" type="line"/>
      <point x="407" y="668" type="line"/>
      <point x="407" y="725" type="line"/>
    </contour>
    <contour>
      <point x="321" y="393" type="curve" smooth="yes"/>
      <point x="259" y="393"/>
      <point x="235" y="352"/>
      <point x="235" y="290" type="curve" smooth="yes"/>
      <point x="235" y="237" type="line" smooth="yes"/>
      <point x="235" y="175"/>
      <point x="259" y="135"/>
      <point x="321" y="135" type="curve" smooth="yes"/>
      <point x="383" y="135"/>
      <point x="409" y="185"/>
      <point x="409" y="247" type="curve" smooth="yes"/>
      <point x="409" y="280" type="line" smooth="yes"/>
      <point x="409" y="342"/>
      <point x="383" y="393"/>
    </contour>
  </outline>
</glyph>
<glyph name="Emacron" format="1">
  <advance width="722"/>
  <unicode hex="0112"/>
  <outline>
    <contour>
      <point x="544" y="865" type="line"/>
      <point x="544" y="765" type="line"/>
      <point x="228" y="765" type="line"/>
      <point x="228" y="865" type="line"/>
    </contour>
    <contour>
      <point x="676" y="0" type="line"/>
      <point x="74" y="0" type="line"/>
      <point x="74" y="688" type="line"/>
      <point x="669" y="688" type="line"/>
      <point x="669" y="523" type="line"/>
      <point x="295" y="523" type="line"/>
      <point x="295" y="428" type="line"/>
      <point x="615" y="428" type="line"/>
      <point x="615" y="270" type="line"/>
      <point x="295" y="270" type="line"/>
      <point x="295" y="165" type="line"/>
      <point x="676" y="165" type="line"/>
    </contour>
  </outline>
</glyph>
<glyph name="emacron" format="1">
  <advance width="667"/>
  <unicode hex="0113"/>
  <outline>
    <contour>
      <point x="333" y="540" type="curve" smooth="yes"/>
      <point x="523" y="540"/>
      <point x="631" y="454"/>
      <point x="631" y="264" type="curve" smooth="yes"/>
      <point x="631" y="230" type="line"/>
      <point x="235" y="230" type="line"/>
      <point x="235" y="157"/>
      <point x="265" y="115"/>
      <point x="341" y="115" type="curve" smooth="yes"/>
      <point x="412" y="115"/>
      <point x="438" y="149"/>
      <point x="438" y="192" type="curve"/>
      <point x="631" y="192" type="line"/>
      <point x="631" y="66"/>
      <point x="535" y="-12"/>
      <point x="345" y="-12" type="curve" smooth="yes"/>
      <point x="155" y="-12"/>
      <point x="36" y="74"/>
      <point x="36" y="264" type="curve" smooth="yes"/>
      <point x="36" y="449"/>
      <point x="153" y="540"/>
    </contour>
    <contour>
      <point x="341" y="413" type="curve" smooth="yes"/>
      <point x="274" y="413"/>
      <point x="243" y="379"/>
      <point x="236" y="324" type="curve"/>
      <point x="430" y="324" type="line"/>
      <point x="430" y="379"/>
      <point x="397" y="413"/>
    </contour>
    <contour>
      <point x="492" y="705" type="line"/>
      <point x="492" y="605" type="line"/>
      <point x="175" y="605" type="line"/>
      <point x="175" y="705" type="line"/>
    </contour>
  </outline>
</glyph>
<glyph name="Ebreve" format="1">
  <advance width="722"/>
  <unicode hex="0114"/>
  <outline>
    <contour>
      <point x="475" y="885" type="curve"/>
      <point x="570" y="885" type="line"/>
      <point x="570" y="818"/>
      <point x="499" y="741"/>
      <point x="385" y="741" type="curve" smooth="yes"/>
      <point x="270" y="741"/>
      <point x="201" y="818"/>
      <point x="201" y="885" type="curve"/>
      <point x="297" y="885" type="line"/>
      <point x="301" y="864"/>
      <point x="336" y="835"/>
      <point x="385" y="835" type="curve" smooth="yes"/>
      <point x="435" y="835"/>
      <point x="471" y="864"/>
    </contour>
    <contour>
      <point x="676" y="0" type="line"/>
      <point x="74" y="0" type="line"/>
      <point x="74" y="688" type="line"/>
      <point x="669" y="688" type="line"/>
      <point x="669" y="523" type="line"/>
      <point x="295" y="523" type="line"/>
      <point x="295" y="428" type="line"/>
      <point x="615" y="428" type="line"/>
      <point x="615" y="270" type="line"/>
      <point x="295" y="270" type="line"/>
      <point x="295" y="165" type="line"/>
      <point x="676" y="165" type="line"/>
    </contour>
  </outline>
</glyph>
<glyph name="ebreve" format="1">
  <advance width="667"/>
  <unicode hex="0115"/>
  <outline>
    <contour>
      <point x="333" y="540" type="curve" smooth="yes"/>
      <point x="523" y="540"/>
      <point x="631" y="454"/>
      <point x="631" y="264" type="curve" smooth="yes"/>
      <point x="631" y="230" type="line"/>
      <point x="235" y="230" type="line"/>
      <point x="235" y="157"/>
      <point x="265" y="115"/>
      <point x="341" y="115" type="curve" smooth="yes"/>
      <point x="412" y="115"/>
      <point x="438" y="149"/>
      <point x="438" y="192" type="curve"/>
      <point x="631" y="192" type="line"/>
      <point x="631" y="66"/>
      <point x="535" y="-12"/>
      <point x="345" y="-12" type="curve" smooth="yes"/>
      <point x="155" y="-12"/>
      <point x="36" y="74"/>
      <point x="36" y="264" type="curve" smooth="yes"/>
      <point x="36" y="449"/>
      <point x="153" y="540"/>
    </contour>
    <contour>
      <point x="341" y="413" type="curve" smooth="yes"/>
      <point x="274" y="413"/>
      <point x="243" y="379"/>
      <point x="236" y="324" type="curve"/>
      <point x="430" y="324" type="line"/>
      <point x="430" y="379"/>
      <point x="397" y="413"/>
    </contour>
    <contour>
      <point x="423" y="725" type="curve"/>
      <point x="518" y="725" type="line"/>
      <point x="518" y="658"/>
      <point x="447" y="581"/>
      <point x="333" y="581" type="curve" smooth="yes"/>
      <point x="218" y="581"/>
      <point x="149" y="658"/>
      <point x="149" y="725" type="curve"/>
      <point x="245" y="725" type="line"/>
      <point x="247" y="715"/>
      <point x="257" y="702"/>
      <point x="272" y="692" type="curve" smooth="yes"/>
      <point x="288" y="682"/>
      <point x="309" y="675"/>
      <point x="333" y="675" type="curve" smooth="yes"/>
      <point x="383" y="675"/>
      <point x="419" y="704"/>
    </contour>
  </outline>
</glyph>
<glyph name="Eogonek" format="1">
  <advance width="722"/>
  <unicode hex="0118"/>
  <outline>
    <contour>
      <point x="669" y="688" type="line"/>
      <point x="669" y="523" type="line"/>
      <point x="295" y="523" type="line"/>
      <point x="295" y="428" type="line"/>
      <point x="615" y="428" type="line"/>
      <point x="615" y="270" type="line"/>
      <point x="295" y="270" type="line"/>
      <point x="295" y="165" type="line"/>
      <point x="676" y="165" type="line"/>
      <point x="676" y="0" type="line"/>
      <point x="627" y="0" type="line"/>
      <point x="620" y="-16"/>
      <point x="611" y="-43"/>
      <point x="611" y="-69" type="curve" smooth="yes"/>
      <point x="611" y="-95"/>
      <point x="626" y="-120"/>
      <point x="671" y="-120" type="curve" smooth="yes"/>
      <point x="713" y="-120" type="line"/>
      <point x="713" y="-196" type="line"/>
      <point x="682" y="-206"/>
      <point x="650" y="-211"/>
      <point x="617" y="-211" type="curve" smooth="yes"/>
      <point x="553" y="-211"/>
      <point x="491" y="-179"/>
      <point x="491" y="-97" type="curve" smooth="yes"/>
      <point x="491" y="-55"/>
      <point x="511" y="-25"/>
      <point x="531" y="0" type="curve"/>
      <point x="74" y="0" type="line"/>
      <point x="74" y="688" type="line"/>
    </contour>
  </outline>
</glyph>
